M48
; DRILL file {KiCad (5.1.5)-3} date 2021/02/16 22:09:04
; FORMAT={-:-/ absolute / metric / decimal}
; #@! TF.CreationDate,2021-02-16T22:09:04+09:00
; #@! TF.GenerationSoftware,Kicad,Pcbnew,(5.1.5)-3
; #@! TF.FileFunction,Plated,1,2,PTH
FMAT,2
METRIC
T1C0.400
T2C0.762
T3C0.813
T4C1.000
T5C1.270
T6C1.300
T7C4.100
%
G90
G05
T1
X205.602Y8.692
X208.328Y-81.825
X212.412Y-57.914
X251.365Y-111.728
X254.947Y-90.805
X338.295Y-14.797
X348.165Y-34.173
X362.525Y-35.402
X364.254Y-36.894
X378.52Y-3.335
X406.4Y4.445
X414.551Y3.969
T2
X405.17Y7.62
X410.17Y7.62
T3
X387.35Y0.635
X387.35Y-14.605
X389.89Y0.635
X389.89Y-14.605
X392.43Y0.635
X392.43Y-14.605
X394.97Y0.635
X394.97Y-14.605
X397.51Y0.635
X397.51Y-14.605
X400.05Y0.635
X400.05Y-14.605
X402.59Y0.635
X402.59Y-14.605
X405.13Y0.635
X405.13Y-14.605
X407.67Y0.635
X407.67Y-14.605
X410.21Y0.635
X410.21Y-14.605
X412.75Y0.635
X412.75Y-14.605
X415.29Y0.635
X415.29Y-14.605
X417.83Y0.635
X417.83Y-14.605
X353.822Y8.128
X369.062Y8.128
T4
X337.112Y-24.675
X337.112Y-32.475
X318.062Y-81.825
X318.062Y-89.625
X56.125Y-43.725
X56.125Y-51.525
X189.475Y-43.725
X189.475Y-51.525
X58.506Y-100.875
X58.506Y-108.675
X165.662Y-81.825
X165.662Y-89.625
X15.644Y-62.775
X15.644Y-70.575
X392.972Y-56.261
X400.772Y-56.261
X318.062Y3.9
X318.062Y-3.9
X122.8Y-24.675
X122.8Y-32.475
X177.568Y-100.875
X177.568Y-108.675
X252.095Y-43.979
X252.095Y-51.779
X146.612Y-81.825
X146.612Y-89.625
X379.975Y-81.825
X379.975Y-89.625
X137.088Y-62.775
X137.088Y-70.575
X381.0Y-3.175
X381.0Y-5.715
X381.0Y-8.255
X360.925Y-43.725
X360.925Y-51.525
X337.112Y-100.875
X337.112Y-108.675
X46.6Y-24.675
X46.6Y-32.475
X160.9Y-24.675
X160.9Y-32.475
X30.797Y-81.38
X30.797Y-89.18
X65.65Y-24.675
X65.65Y-32.475
X201.381Y-100.875
X201.381Y-108.675
X46.6Y3.9
X46.6Y-3.9
X184.712Y-81.825
X184.712Y-89.625
X11.43Y-103.415
X11.43Y-111.215
X299.012Y-24.675
X299.012Y-32.475
X94.225Y-43.725
X94.225Y-51.525
X379.975Y-100.875
X379.975Y-108.675
X253.084Y-20.002
X260.884Y-20.002
X129.944Y-100.875
X129.944Y-108.675
X82.319Y-100.875
X82.319Y-108.675
X113.275Y-43.725
X113.275Y-51.525
X318.062Y-43.725
X318.062Y-51.525
X318.062Y-24.675
X318.062Y-32.475
X318.062Y-100.875
X318.062Y-108.675
X41.837Y-62.775
X41.837Y-70.575
X170.425Y-43.725
X170.425Y-51.525
X393.734Y-112.522
X401.534Y-112.522
X60.887Y-62.775
X60.887Y-70.575
X237.1Y3.9
X237.1Y-3.9
X8.5Y3.9
X8.5Y-3.9
X75.175Y-43.725
X75.175Y-51.525
X213.288Y-62.775
X213.288Y-70.575
X394.184Y-74.549
X401.984Y-74.549
X225.194Y-100.875
X225.194Y-108.675
X98.987Y-62.775
X98.987Y-70.575
X299.012Y-43.725
X299.012Y-51.525
X84.7Y-24.675
X84.7Y-32.475
X398.907Y-96.811
X398.907Y-104.611
X118.038Y-62.775
X118.038Y-70.575
X379.975Y-24.675
X379.975Y-32.475
X360.925Y-62.775
X360.925Y-70.575
X299.012Y-100.875
X299.012Y-108.675
X34.694Y-100.875
X34.694Y-108.675
X218.05Y3.9
X218.05Y-3.9
X79.938Y-62.775
X79.938Y-70.575
X199.0Y-24.675
X199.0Y-32.475
X37.075Y-43.725
X37.075Y-51.525
X156.138Y-62.775
X156.138Y-70.575
X275.2Y-24.675
X275.2Y-32.475
X392.782Y-92.329
X400.582Y-92.329
X244.83Y-56.706
X252.63Y-56.706
X132.325Y3.9
X132.325Y-3.9
X399.025Y-43.725
X399.025Y-51.525
X246.625Y-43.725
X246.625Y-51.525
X127.562Y-81.825
X127.562Y-89.625
X360.925Y-24.675
X360.925Y-32.475
X337.112Y3.9
X337.112Y-3.9
X272.818Y-100.875
X272.818Y-108.675
X65.65Y3.9
X65.65Y-3.9
X203.762Y-81.825
X203.762Y-89.625
X103.75Y3.9
X103.75Y-3.9
X208.525Y-43.725
X208.525Y-51.525
X51.362Y-81.825
X51.362Y-89.625
X189.475Y3.9
X189.475Y-3.9
X13.263Y-43.725
X13.263Y-51.525
X232.338Y-62.775
X232.338Y-70.575
X275.2Y3.9
X275.2Y-3.9
X170.425Y3.9
X170.425Y-3.9
X106.131Y-100.875
X106.131Y-108.675
X227.575Y-43.725
X227.575Y-51.525
X132.325Y-43.725
X132.325Y-51.525
X379.975Y-43.725
X379.975Y-51.525
X360.925Y-81.825
X360.925Y-89.625
X337.112Y-43.725
X337.112Y-51.525
X89.462Y-81.825
X89.462Y-89.625
X175.188Y-62.775
X175.188Y-70.575
X27.55Y-24.675
X27.55Y-32.475
X222.812Y-81.825
X222.812Y-89.625
X275.146Y-81.383
X275.146Y-89.183
X399.025Y-24.675
X399.025Y-32.475
X256.15Y3.9
X256.15Y-3.9
X151.375Y3.9
X151.375Y-3.9
X399.025Y-60.047
X399.025Y-67.847
X279.654Y-100.176
X279.654Y-107.976
X108.512Y-81.825
X108.512Y-89.625
X249.006Y-100.875
X249.006Y-108.675
X344.424Y-100.812
X344.424Y-108.612
X379.975Y-62.775
X379.975Y-70.575
X84.7Y3.9
X84.7Y-3.9
X179.95Y-24.675
X179.95Y-32.475
X70.412Y-81.825
X70.412Y-89.625
X194.238Y-62.775
X194.238Y-70.575
X8.5Y-24.675
X8.5Y-32.475
X418.075Y-24.675
X418.075Y-32.475
X237.1Y-24.675
X237.1Y-32.475
X151.375Y-43.725
X151.375Y-51.525
X398.716Y-79.034
X398.716Y-86.834
X218.05Y-24.675
X218.05Y-32.475
X141.85Y-24.675
X141.85Y-32.475
X153.756Y-100.875
X153.756Y-108.675
X299.012Y3.9
X299.012Y-3.9
X103.75Y-24.675
X103.75Y-32.475
T5
X412.115Y-91.44
X414.655Y-97.79
X111.76Y-33.655
X118.11Y-31.115
X216.535Y-52.705
X222.885Y-50.165
X387.985Y-71.755
X394.335Y-69.215
X135.572Y-90.805
X141.922Y-88.265
X287.972Y-52.705
X294.322Y-50.165
X145.098Y-71.755
X151.448Y-69.215
X326.072Y-109.855
X332.422Y-107.315
X187.96Y-33.655
X194.31Y-31.115
X387.985Y-33.655
X394.335Y-31.115
X368.935Y-71.755
X375.285Y-69.215
X407.035Y-33.655
X413.385Y-31.115
X30.797Y-71.755
X37.148Y-69.215
X40.322Y-90.805
X46.672Y-88.265
X83.185Y-52.705
X89.535Y-50.165
X68.897Y-71.755
X75.248Y-69.215
X121.285Y-5.08
X127.635Y-2.54
X407.035Y-90.805
X413.385Y-88.265
X121.285Y-52.705
X127.635Y-50.165
X159.385Y-52.705
X165.735Y-50.165
X387.985Y-109.855
X394.335Y-107.315
X207.01Y-33.655
X213.36Y-31.115
X307.022Y-5.08
X313.372Y-2.54
X164.148Y-71.755
X170.498Y-69.215
X252.328Y-71.755
X258.678Y-69.215
X197.485Y-52.705
X203.835Y-50.165
X226.06Y-33.655
X232.41Y-31.115
X259.398Y-52.705
X265.748Y-50.165
X92.71Y-33.655
X99.06Y-31.115
X73.66Y-5.08
X80.01Y-2.54
X87.947Y-71.755
X94.297Y-69.215
X59.372Y-90.805
X65.722Y-88.265
X387.985Y-52.705
X394.335Y-50.165
X259.238Y-54.61
X261.778Y-60.96
X221.298Y-71.755
X227.648Y-69.215
X257.016Y-90.805
X263.366Y-88.265
X126.048Y-71.755
X132.398Y-69.215
X190.341Y-109.855
X196.691Y-107.315
X349.885Y-52.705
X356.235Y-50.165
X106.998Y-71.755
X113.348Y-69.215
X-2.54Y-5.08
X3.81Y-2.54
X287.972Y-33.655
X294.322Y-31.115
X226.06Y-5.08
X232.41Y-2.54
X368.935Y-90.805
X375.285Y-88.265
X211.772Y-90.805
X218.122Y-88.265
X235.585Y-52.705
X241.935Y-50.165
X326.072Y-5.08
X332.422Y-2.54
X35.56Y-33.655
X41.91Y-31.115
X78.422Y-90.805
X84.772Y-88.265
X54.61Y-33.655
X60.96Y-31.115
X368.935Y-109.855
X375.285Y-107.315
X349.885Y-33.655
X356.235Y-31.115
X254.635Y-33.655
X260.985Y-31.115
X230.822Y-90.805
X237.172Y-88.265
X183.198Y-71.755
X189.548Y-69.215
X140.335Y-52.705
X146.685Y-50.165
X214.154Y-109.855
X220.504Y-107.315
X287.972Y-109.855
X294.322Y-107.315
X202.248Y-71.755
X208.598Y-69.215
X307.022Y-52.705
X313.372Y-50.165
X168.91Y-33.655
X175.26Y-31.115
X326.072Y-33.655
X332.422Y-31.115
X387.985Y-90.805
X394.335Y-88.265
X23.653Y-109.855
X30.003Y-107.315
X2.223Y-52.705
X8.573Y-50.165
X26.035Y-52.705
X32.385Y-50.165
X9.441Y-90.805
X15.791Y-88.265
X368.935Y-33.655
X375.285Y-31.115
X349.885Y-109.855
X356.235Y-107.315
X237.966Y-109.855
X244.316Y-107.315
X237.966Y-90.805
X244.316Y-88.265
X264.16Y-33.655
X270.51Y-31.115
X95.091Y-109.855
X101.441Y-107.315
X116.522Y-90.805
X122.872Y-88.265
X154.622Y-90.805
X160.972Y-88.265
X245.11Y-5.08
X251.46Y-2.54
X118.904Y-109.855
X125.254Y-107.315
X326.072Y-52.705
X332.422Y-50.165
X178.435Y-52.705
X184.785Y-50.165
X349.885Y-90.805
X356.235Y-88.265
X287.972Y-5.08
X294.322Y-2.54
X166.528Y-109.855
X172.878Y-107.315
X92.71Y-5.08
X99.06Y-2.54
X4.604Y-71.755
X10.954Y-69.215
X54.61Y-5.08
X60.96Y-2.54
X97.472Y-90.805
X103.822Y-88.265
X142.716Y-109.855
X149.066Y-107.315
X407.035Y-109.855
X413.385Y-107.315
X245.11Y-33.655
X251.46Y-31.115
X240.348Y-71.755
X246.698Y-69.215
X140.335Y-5.08
X146.685Y-2.54
X264.16Y-90.805
X270.51Y-88.265
X207.01Y-5.08
X213.36Y-2.54
X264.16Y-5.08
X270.51Y-2.54
X159.385Y-5.08
X165.735Y-2.54
X178.435Y-5.08
X184.785Y-2.54
X368.935Y-52.705
X375.285Y-50.165
X307.022Y-33.655
X313.372Y-31.115
X307.022Y-109.855
X313.372Y-107.315
X16.51Y-33.655
X22.86Y-31.115
X261.778Y-109.855
X268.128Y-107.315
X-0.159Y-109.855
X6.191Y-107.315
X49.847Y-71.755
X56.197Y-69.215
X45.085Y-52.705
X51.435Y-50.165
X64.135Y-52.705
X70.485Y-50.165
X407.035Y-71.755
X413.385Y-69.215
X407.035Y-52.705
X413.385Y-50.165
X149.86Y-33.655
X156.21Y-31.115
X192.722Y-90.805
X199.072Y-88.265
X102.235Y-52.705
X108.585Y-50.165
X349.885Y-71.755
X356.235Y-69.215
X130.81Y-33.655
X137.16Y-31.115
X247.492Y-90.805
X253.842Y-88.265
X173.672Y-90.805
X180.022Y-88.265
X412.115Y-53.34
X414.655Y-59.69
X359.41Y-109.855
X365.76Y-107.315
X307.022Y-90.805
X313.372Y-88.265
X-2.54Y-33.655
X3.81Y-31.115
X35.56Y-5.08
X41.91Y-2.54
X73.66Y-33.655
X80.01Y-31.115
X47.466Y-109.855
X53.816Y-107.315
X71.278Y-109.855
X77.629Y-107.315
T6
X404.17Y5.12
X411.17Y5.12
T7
X133.35Y-96.52
X381.0Y-95.25
X279.4Y5.905
X228.6Y-95.25
X17.145Y-39.37
X343.535Y5.905
X299.974Y-94.996
X228.6Y-38.735
X17.145Y5.905
X343.535Y-12.7
X14.224Y-99.251
X416.814Y5.969
X109.474Y5.905
X319.405Y-38.1
X123.825Y-37.465
X195.58Y5.905
T0
M30
