M48
; DRILL file {KiCad (5.1.5)-3} date 2021/02/16 22:09:04
; FORMAT={-:-/ absolute / metric / decimal}
; #@! TF.CreationDate,2021-02-16T22:09:04+09:00
; #@! TF.GenerationSoftware,Kicad,Pcbnew,(5.1.5)-3
; #@! TF.FileFunction,NonPlated,1,2,NPTH
FMAT,2
METRIC
T1C0.150
T2C1.702
T3C3.048
T4C3.988
%
G90
G05
T3
X242.93Y-59.69
X266.806Y-59.69
X271.303Y-45.212
X271.303Y-69.088
X245.237Y-21.59
X269.113Y-21.59
X0.043Y-78.74
X23.919Y-78.74
X71.406Y-97.79
X171.482Y-97.79
X238.094Y-78.74
X261.97Y-78.74
X402.59Y-45.212
X402.59Y-69.088
X350.012Y-97.79
X373.888Y-97.79
X402.59Y-83.312
X402.59Y-107.188
T4
X390.525Y-47.625
X256.063Y-45.212
X256.063Y-69.088
X264.318Y-57.15
X223.838Y-66.675
X259.556Y-85.725
X128.588Y-66.675
X192.881Y-104.775
X352.425Y-47.625
X109.538Y-66.675
X0.0Y0.0
X290.512Y-28.575
X228.6Y0.0
X371.475Y-85.725
X214.312Y-85.725
X238.125Y-47.625
X328.612Y0.0
X38.1Y-28.575
X80.962Y-85.725
X57.15Y-28.575
X371.475Y-104.775
X352.425Y-28.575
X245.237Y-36.83
X257.175Y-28.575
X269.113Y-36.83
X233.362Y-85.725
X185.738Y-66.675
X142.875Y-47.625
X216.694Y-104.775
X290.512Y-104.775
X204.788Y-66.675
X309.562Y-47.625
X171.45Y-28.575
X328.612Y-28.575
X390.525Y-85.725
X26.194Y-104.775
X4.763Y-47.625
X28.575Y-47.625
X0.043Y-93.98
X11.981Y-85.725
X23.919Y-93.98
X371.475Y-28.575
X352.425Y-104.775
X240.506Y-104.775
X240.506Y-85.725
X266.7Y-28.575
X97.631Y-104.775
X119.062Y-85.725
X157.162Y-85.725
X247.65Y0.0
X71.406Y-113.03
X121.444Y-104.775
X171.482Y-113.03
X328.612Y-47.625
X180.975Y-47.625
X352.425Y-85.725
X290.512Y0.0
X169.068Y-104.775
X95.25Y0.0
X7.144Y-66.675
X57.15Y0.0
X100.012Y-85.725
X145.256Y-104.775
X409.575Y-104.775
X247.65Y-28.575
X242.888Y-66.675
X142.875Y0.0
X266.7Y-85.725
X209.55Y0.0
X266.7Y0.0
X161.925Y0.0
X180.975Y0.0
X371.475Y-47.625
X309.562Y-28.575
X309.562Y-104.775
X19.05Y-28.575
X264.318Y-104.775
X2.381Y-104.775
X52.387Y-66.675
X47.625Y-47.625
X66.675Y-47.625
X409.575Y-66.675
X409.575Y-47.625
X152.4Y-28.575
X195.262Y-85.725
X104.775Y-47.625
X352.425Y-66.675
X133.35Y-28.575
X238.094Y-93.98
X250.032Y-85.725
X261.97Y-93.98
X176.212Y-85.725
X409.575Y-57.15
X417.83Y-45.212
X417.83Y-69.088
X350.012Y-113.03
X361.95Y-104.775
X373.888Y-113.03
X309.562Y-85.725
X0.0Y-28.575
X38.1Y0.0
X76.2Y-28.575
X50.006Y-104.775
X73.819Y-104.775
X409.575Y-95.25
X417.83Y-83.312
X417.83Y-107.188
X114.3Y-28.575
X219.075Y-47.625
X390.525Y-66.675
X138.112Y-85.725
X290.512Y-47.625
X147.638Y-66.675
X328.612Y-104.775
X190.5Y-28.575
X390.525Y-28.575
X371.475Y-66.675
X409.575Y-28.575
X33.337Y-66.675
X42.862Y-85.725
X85.725Y-47.625
X71.438Y-66.675
X123.825Y0.0
X409.575Y-85.725
X123.825Y-47.625
X161.925Y-47.625
X390.525Y-104.775
X209.55Y-28.575
X309.562Y0.0
X166.688Y-66.675
X242.93Y-74.93
X254.868Y-66.675
X266.806Y-74.93
X200.025Y-47.625
X228.6Y-28.575
X261.938Y-47.625
X95.25Y-28.575
X76.2Y0.0
X90.487Y-66.675
X61.912Y-85.725
T1
G00X190.231Y-101.7
M15
G01X190.231Y-98.45
M16
G05
G00X190.256Y-98.425
M15
G01X195.506Y-98.425
M16
G05
G00X190.256Y-101.725
M15
G01X195.506Y-101.725
M16
G05
G00X195.531Y-101.7
M15
G01X195.531Y-98.45
M16
G05
G00X349.775Y-44.55
M15
G01X349.775Y-41.3
M16
G05
G00X349.8Y-41.275
M15
G01X355.05Y-41.275
M16
G05
G00X349.8Y-44.575
M15
G01X355.05Y-44.575
M16
G05
G00X355.075Y-44.55
M15
G01X355.075Y-41.3
M16
G05
G00X106.888Y-63.6
M15
G01X106.888Y-60.35
M16
G05
G00X106.913Y-60.325
M15
G01X112.163Y-60.325
M16
G05
G00X106.913Y-63.625
M15
G01X112.163Y-63.625
M16
G05
G00X112.188Y-63.6
M15
G01X112.188Y-60.35
M16
G05
G00X-2.65Y3.075
M15
G01X-2.65Y6.325
M16
G05
G00X-2.625Y6.35
M15
G01X2.625Y6.35
M16
G05
G00X-2.625Y3.05
M15
G01X2.625Y3.05
M16
G05
G00X2.65Y3.075
M15
G01X2.65Y6.325
M16
G05
G00X287.862Y-25.5
M15
G01X287.862Y-22.25
M16
G05
G00X287.887Y-22.225
M15
G01X293.137Y-22.225
M16
G05
G00X287.887Y-25.525
M15
G01X293.137Y-25.525
M16
G05
G00X293.162Y-25.5
M15
G01X293.162Y-22.25
M16
G05
G00X225.95Y3.075
M15
G01X225.95Y6.325
M16
G05
G00X225.975Y6.35
M15
G01X231.225Y6.35
M16
G05
G00X225.975Y3.05
M15
G01X231.225Y3.05
M16
G05
G00X231.25Y3.075
M15
G01X231.25Y6.325
M16
G05
G00X368.825Y-82.65
M15
G01X368.825Y-79.4
M16
G05
G00X368.85Y-79.375
M15
G01X374.1Y-79.375
M16
G05
G00X368.85Y-82.675
M15
G01X374.1Y-82.675
M16
G05
G00X374.125Y-82.65
M15
G01X374.125Y-79.4
M16
G05
G00X211.662Y-82.65
M15
G01X211.662Y-79.4
M16
G05
G00X211.687Y-79.375
M15
G01X216.937Y-79.375
M16
G05
G00X211.687Y-82.675
M15
G01X216.937Y-82.675
M16
G05
G00X216.962Y-82.65
M15
G01X216.962Y-79.4
M16
G05
G00X235.475Y-44.55
M15
G01X235.475Y-41.3
M16
G05
G00X235.5Y-41.275
M15
G01X240.75Y-41.275
M16
G05
G00X235.5Y-44.575
M15
G01X240.75Y-44.575
M16
G05
G00X240.775Y-44.55
M15
G01X240.775Y-41.3
M16
G05
G00X325.962Y3.075
M15
G01X325.962Y6.325
M16
G05
G00X325.987Y6.35
M15
G01X331.237Y6.35
M16
G05
G00X325.987Y3.05
M15
G01X331.237Y3.05
M16
G05
G00X331.262Y3.075
M15
G01X331.262Y6.325
M16
G05
G00X35.45Y-25.5
M15
G01X35.45Y-22.25
M16
G05
G00X35.475Y-22.225
M15
G01X40.725Y-22.225
M16
G05
G00X35.475Y-25.525
M15
G01X40.725Y-25.525
M16
G05
G00X40.75Y-25.5
M15
G01X40.75Y-22.25
M16
G05
G00X78.312Y-82.65
M15
G01X78.312Y-79.4
M16
G05
G00X78.337Y-79.375
M15
G01X83.587Y-79.375
M16
G05
G00X78.337Y-82.675
M15
G01X83.587Y-82.675
M16
G05
G00X83.612Y-82.65
M15
G01X83.612Y-79.4
M16
G05
G00X54.5Y-25.5
M15
G01X54.5Y-22.25
M16
G05
G00X54.525Y-22.225
M15
G01X59.775Y-22.225
M16
G05
G00X54.525Y-25.525
M15
G01X59.775Y-25.525
M16
G05
G00X59.8Y-25.5
M15
G01X59.8Y-22.25
M16
G05
G00X368.825Y-101.7
M15
G01X368.825Y-98.45
M16
G05
G00X368.85Y-98.425
M15
G01X374.1Y-98.425
M16
G05
G00X368.85Y-101.725
M15
G01X374.1Y-101.725
M16
G05
G00X374.125Y-101.7
M15
G01X374.125Y-98.45
M16
G05
G00X349.775Y-25.5
M15
G01X349.775Y-22.25
M16
G05
G00X349.8Y-22.225
M15
G01X355.05Y-22.225
M16
G05
G00X349.8Y-25.525
M15
G01X355.05Y-25.525
M16
G05
G00X355.075Y-25.5
M15
G01X355.075Y-22.25
M16
G05
G00X254.525Y-25.5
M15
G01X254.525Y-22.25
M16
G05
G00X254.55Y-22.225
M15
G01X259.8Y-22.225
M16
G05
G00X254.55Y-25.525
M15
G01X259.8Y-25.525
M16
G05
G00X259.825Y-25.5
M15
G01X259.825Y-22.25
M16
G05
G00X230.712Y-82.65
M15
G01X230.712Y-79.4
M16
G05
G00X230.737Y-79.375
M15
G01X235.987Y-79.375
M16
G05
G00X230.737Y-82.675
M15
G01X235.987Y-82.675
M16
G05
G00X236.012Y-82.65
M15
G01X236.012Y-79.4
M16
G05
G00X183.088Y-63.6
M15
G01X183.088Y-60.35
M16
G05
G00X183.113Y-60.325
M15
G01X188.363Y-60.325
M16
G05
G00X183.113Y-63.625
M15
G01X188.363Y-63.625
M16
G05
G00X188.388Y-63.6
M15
G01X188.388Y-60.35
M16
G05
G00X140.225Y-44.55
M15
G01X140.225Y-41.3
M16
G05
G00X140.25Y-41.275
M15
G01X145.5Y-41.275
M16
G05
G00X140.25Y-44.575
M15
G01X145.5Y-44.575
M16
G05
G00X145.525Y-44.55
M15
G01X145.525Y-41.3
M16
G05
G00X214.044Y-101.7
M15
G01X214.044Y-98.45
M16
G05
G00X214.069Y-98.425
M15
G01X219.319Y-98.425
M16
G05
G00X214.069Y-101.725
M15
G01X219.319Y-101.725
M16
G05
G00X219.344Y-101.7
M15
G01X219.344Y-98.45
M16
G05
G00X287.862Y-101.7
M15
G01X287.862Y-98.45
M16
G05
G00X287.887Y-98.425
M15
G01X293.137Y-98.425
M16
G05
G00X287.887Y-101.725
M15
G01X293.137Y-101.725
M16
G05
G00X293.162Y-101.7
M15
G01X293.162Y-98.45
M16
G05
G00X202.138Y-63.6
M15
G01X202.138Y-60.35
M16
G05
G00X202.163Y-60.325
M15
G01X207.413Y-60.325
M16
G05
G00X202.163Y-63.625
M15
G01X207.413Y-63.625
M16
G05
G00X207.438Y-63.6
M15
G01X207.438Y-60.35
M16
G05
G00X306.912Y-44.55
M15
G01X306.912Y-41.3
M16
G05
G00X306.937Y-41.275
M15
G01X312.187Y-41.275
M16
G05
G00X306.937Y-44.575
M15
G01X312.187Y-44.575
M16
G05
G00X312.212Y-44.55
M15
G01X312.212Y-41.3
M16
G05
G00X168.8Y-25.5
M15
G01X168.8Y-22.25
M16
G05
G00X168.825Y-22.225
M15
G01X174.075Y-22.225
M16
G05
G00X168.825Y-25.525
M15
G01X174.075Y-25.525
M16
G05
G00X174.1Y-25.5
M15
G01X174.1Y-22.25
M16
G05
G00X325.962Y-25.5
M15
G01X325.962Y-22.25
M16
G05
G00X325.987Y-22.225
M15
G01X331.237Y-22.225
M16
G05
G00X325.987Y-25.525
M15
G01X331.237Y-25.525
M16
G05
G00X331.262Y-25.5
M15
G01X331.262Y-22.25
M16
G05
G00X387.875Y-82.65
M15
G01X387.875Y-79.4
M16
G05
G00X387.9Y-79.375
M15
G01X393.15Y-79.375
M16
G05
G00X387.9Y-82.675
M15
G01X393.15Y-82.675
M16
G05
G00X393.175Y-82.65
M15
G01X393.175Y-79.4
M16
G05
G00X23.543Y-101.7
M15
G01X23.543Y-98.45
M16
G05
G00X23.569Y-98.425
M15
G01X28.819Y-98.425
M16
G05
G00X23.569Y-101.725
M15
G01X28.819Y-101.725
M16
G05
G00X28.843Y-101.7
M15
G01X28.843Y-98.45
M16
G05
G00X2.113Y-44.55
M15
G01X2.113Y-41.3
M16
G05
G00X2.138Y-41.275
M15
G01X7.388Y-41.275
M16
G05
G00X2.138Y-44.575
M15
G01X7.388Y-44.575
M16
G05
G00X7.413Y-44.55
M15
G01X7.413Y-41.3
M16
G05
G00X25.925Y-44.55
M15
G01X25.925Y-41.3
M16
G05
G00X25.95Y-41.275
M15
G01X31.2Y-41.275
M16
G05
G00X25.95Y-44.575
M15
G01X31.2Y-44.575
M16
G05
G00X31.225Y-44.55
M15
G01X31.225Y-41.3
M16
G05
G00X9.331Y-82.65
M15
G01X9.331Y-79.4
M16
G05
G00X9.356Y-79.375
M15
G01X14.606Y-79.375
M16
G05
G00X9.356Y-82.675
M15
G01X14.606Y-82.675
M16
G05
G00X14.631Y-82.65
M15
G01X14.631Y-79.4
M16
G05
G00X368.825Y-25.5
M15
G01X368.825Y-22.25
M16
G05
G00X368.85Y-22.225
M15
G01X374.1Y-22.225
M16
G05
G00X368.85Y-25.525
M15
G01X374.1Y-25.525
M16
G05
G00X374.125Y-25.5
M15
G01X374.125Y-22.25
M16
G05
G00X349.775Y-101.7
M15
G01X349.775Y-98.45
M16
G05
G00X349.8Y-98.425
M15
G01X355.05Y-98.425
M16
G05
G00X349.8Y-101.725
M15
G01X355.05Y-101.725
M16
G05
G00X355.075Y-101.7
M15
G01X355.075Y-98.45
M16
G05
G00X237.856Y-101.7
M15
G01X237.856Y-98.45
M16
G05
G00X237.881Y-98.425
M15
G01X243.131Y-98.425
M16
G05
G00X237.881Y-101.725
M15
G01X243.131Y-101.725
M16
G05
G00X243.156Y-101.7
M15
G01X243.156Y-98.45
M16
G05
G00X237.856Y-82.65
M15
G01X237.856Y-79.4
M16
G05
G00X237.881Y-79.375
M15
G01X243.131Y-79.375
M16
G05
G00X237.881Y-82.675
M15
G01X243.131Y-82.675
M16
G05
G00X243.156Y-82.65
M15
G01X243.156Y-79.4
M16
G05
G00X264.05Y-25.5
M15
G01X264.05Y-22.25
M16
G05
G00X264.075Y-22.225
M15
G01X269.325Y-22.225
M16
G05
G00X264.075Y-25.525
M15
G01X269.325Y-25.525
M16
G05
G00X269.35Y-25.5
M15
G01X269.35Y-22.25
M16
G05
G00X94.981Y-101.7
M15
G01X94.981Y-98.45
M16
G05
G00X95.006Y-98.425
M15
G01X100.256Y-98.425
M16
G05
G00X95.006Y-101.725
M15
G01X100.256Y-101.725
M16
G05
G00X100.281Y-101.7
M15
G01X100.281Y-98.45
M16
G05
G00X116.412Y-82.65
M15
G01X116.412Y-79.4
M16
G05
G00X116.437Y-79.375
M15
G01X121.687Y-79.375
M16
G05
G00X116.437Y-82.675
M15
G01X121.687Y-82.675
M16
G05
G00X121.712Y-82.65
M15
G01X121.712Y-79.4
M16
G05
G00X154.512Y-82.65
M15
G01X154.512Y-79.4
M16
G05
G00X154.537Y-79.375
M15
G01X159.787Y-79.375
M16
G05
G00X154.537Y-82.675
M15
G01X159.787Y-82.675
M16
G05
G00X159.812Y-82.65
M15
G01X159.812Y-79.4
M16
G05
G00X245.0Y3.075
M15
G01X245.0Y6.325
M16
G05
G00X245.025Y6.35
M15
G01X250.275Y6.35
M16
G05
G00X245.025Y3.05
M15
G01X250.275Y3.05
M16
G05
G00X250.3Y3.075
M15
G01X250.3Y6.325
M16
G05
G00X118.794Y-101.7
M15
G01X118.794Y-98.45
M16
G05
G00X118.819Y-98.425
M15
G01X124.069Y-98.425
M16
G05
G00X118.819Y-101.725
M15
G01X124.069Y-101.725
M16
G05
G00X124.094Y-101.7
M15
G01X124.094Y-98.45
M16
G05
G00X325.962Y-44.55
M15
G01X325.962Y-41.3
M16
G05
G00X325.987Y-41.275
M15
G01X331.237Y-41.275
M16
G05
G00X325.987Y-44.575
M15
G01X331.237Y-44.575
M16
G05
G00X331.262Y-44.55
M15
G01X331.262Y-41.3
M16
G05
G00X178.325Y-44.55
M15
G01X178.325Y-41.3
M16
G05
G00X178.35Y-41.275
M15
G01X183.6Y-41.275
M16
G05
G00X178.35Y-44.575
M15
G01X183.6Y-44.575
M16
G05
G00X183.625Y-44.55
M15
G01X183.625Y-41.3
M16
G05
G00X349.775Y-82.65
M15
G01X349.775Y-79.4
M16
G05
G00X349.8Y-79.375
M15
G01X355.05Y-79.375
M16
G05
G00X349.8Y-82.675
M15
G01X355.05Y-82.675
M16
G05
G00X355.075Y-82.65
M15
G01X355.075Y-79.4
M16
G05
G00X287.862Y3.075
M15
G01X287.862Y6.325
M16
G05
G00X287.887Y6.35
M15
G01X293.137Y6.35
M16
G05
G00X287.887Y3.05
M15
G01X293.137Y3.05
M16
G05
G00X293.162Y3.075
M15
G01X293.162Y6.325
M16
G05
G00X166.418Y-101.7
M15
G01X166.418Y-98.45
M16
G05
G00X166.443Y-98.425
M15
G01X171.693Y-98.425
M16
G05
G00X166.443Y-101.725
M15
G01X171.693Y-101.725
M16
G05
G00X171.718Y-101.7
M15
G01X171.718Y-98.45
M16
G05
G00X92.6Y3.075
M15
G01X92.6Y6.325
M16
G05
G00X92.625Y6.35
M15
G01X97.875Y6.35
M16
G05
G00X92.625Y3.05
M15
G01X97.875Y3.05
M16
G05
G00X97.9Y3.075
M15
G01X97.9Y6.325
M16
G05
G00X4.494Y-63.6
M15
G01X4.494Y-60.35
M16
G05
G00X4.519Y-60.325
M15
G01X9.769Y-60.325
M16
G05
G00X4.519Y-63.625
M15
G01X9.769Y-63.625
M16
G05
G00X9.794Y-63.6
M15
G01X9.794Y-60.35
M16
G05
G00X54.5Y3.075
M15
G01X54.5Y6.325
M16
G05
G00X54.525Y6.35
M15
G01X59.775Y6.35
M16
G05
G00X54.525Y3.05
M15
G01X59.775Y3.05
M16
G05
G00X59.8Y3.075
M15
G01X59.8Y6.325
M16
G05
G00X97.362Y-82.65
M15
G01X97.362Y-79.4
M16
G05
G00X97.387Y-79.375
M15
G01X102.637Y-79.375
M16
G05
G00X97.387Y-82.675
M15
G01X102.637Y-82.675
M16
G05
G00X102.662Y-82.65
M15
G01X102.662Y-79.4
M16
G05
G00X142.606Y-101.7
M15
G01X142.606Y-98.45
M16
G05
G00X142.631Y-98.425
M15
G01X147.881Y-98.425
M16
G05
G00X142.631Y-101.725
M15
G01X147.881Y-101.725
M16
G05
G00X147.906Y-101.7
M15
G01X147.906Y-98.45
M16
G05
G00X406.925Y-101.7
M15
G01X406.925Y-98.45
M16
G05
G00X406.95Y-98.425
M15
G01X412.2Y-98.425
M16
G05
G00X406.95Y-101.725
M15
G01X412.2Y-101.725
M16
G05
G00X412.225Y-101.7
M15
G01X412.225Y-98.45
M16
G05
G00X245.0Y-25.5
M15
G01X245.0Y-22.25
M16
G05
G00X245.025Y-22.225
M15
G01X250.275Y-22.225
M16
G05
G00X245.025Y-25.525
M15
G01X250.275Y-25.525
M16
G05
G00X250.3Y-25.5
M15
G01X250.3Y-22.25
M16
G05
G00X240.238Y-63.6
M15
G01X240.238Y-60.35
M16
G05
G00X240.263Y-60.325
M15
G01X245.513Y-60.325
M16
G05
G00X240.263Y-63.625
M15
G01X245.513Y-63.625
M16
G05
G00X245.538Y-63.6
M15
G01X245.538Y-60.35
M16
G05
G00X140.225Y3.075
M15
G01X140.225Y6.325
M16
G05
G00X140.25Y6.35
M15
G01X145.5Y6.35
M16
G05
G00X140.25Y3.05
M15
G01X145.5Y3.05
M16
G05
G00X145.525Y3.075
M15
G01X145.525Y6.325
M16
G05
G00X264.05Y-82.65
M15
G01X264.05Y-79.4
M16
G05
G00X264.075Y-79.375
M15
G01X269.325Y-79.375
M16
G05
G00X264.075Y-82.675
M15
G01X269.325Y-82.675
M16
G05
G00X269.35Y-82.65
M15
G01X269.35Y-79.4
M16
G05
G00X206.9Y3.075
M15
G01X206.9Y6.325
M16
G05
G00X206.925Y6.35
M15
G01X212.175Y6.35
M16
G05
G00X206.925Y3.05
M15
G01X212.175Y3.05
M16
G05
G00X212.2Y3.075
M15
G01X212.2Y6.325
M16
G05
G00X264.05Y3.075
M15
G01X264.05Y6.325
M16
G05
G00X264.075Y6.35
M15
G01X269.325Y6.35
M16
G05
G00X264.075Y3.05
M15
G01X269.325Y3.05
M16
G05
G00X269.35Y3.075
M15
G01X269.35Y6.325
M16
G05
G00X159.275Y3.075
M15
G01X159.275Y6.325
M16
G05
G00X159.3Y6.35
M15
G01X164.55Y6.35
M16
G05
G00X159.3Y3.05
M15
G01X164.55Y3.05
M16
G05
G00X164.575Y3.075
M15
G01X164.575Y6.325
M16
G05
G00X178.325Y3.075
M15
G01X178.325Y6.325
M16
G05
G00X178.35Y6.35
M15
G01X183.6Y6.35
M16
G05
G00X178.35Y3.05
M15
G01X183.6Y3.05
M16
G05
G00X183.625Y3.075
M15
G01X183.625Y6.325
M16
G05
G00X368.825Y-44.55
M15
G01X368.825Y-41.3
M16
G05
G00X368.85Y-41.275
M15
G01X374.1Y-41.275
M16
G05
G00X368.85Y-44.575
M15
G01X374.1Y-44.575
M16
G05
G00X374.125Y-44.55
M15
G01X374.125Y-41.3
M16
G05
G00X306.912Y-25.5
M15
G01X306.912Y-22.25
M16
G05
G00X306.937Y-22.225
M15
G01X312.187Y-22.225
M16
G05
G00X306.937Y-25.525
M15
G01X312.187Y-25.525
M16
G05
G00X312.212Y-25.5
M15
G01X312.212Y-22.25
M16
G05
G00X306.912Y-101.7
M15
G01X306.912Y-98.45
M16
G05
G00X306.937Y-98.425
M15
G01X312.187Y-98.425
M16
G05
G00X306.937Y-101.725
M15
G01X312.187Y-101.725
M16
G05
G00X312.212Y-101.7
M15
G01X312.212Y-98.45
M16
G05
G00X16.4Y-25.5
M15
G01X16.4Y-22.25
M16
G05
G00X16.425Y-22.225
M15
G01X21.675Y-22.225
M16
G05
G00X16.425Y-25.525
M15
G01X21.675Y-25.525
M16
G05
G00X21.7Y-25.5
M15
G01X21.7Y-22.25
M16
G05
G00X261.668Y-101.7
M15
G01X261.668Y-98.45
M16
G05
G00X261.693Y-98.425
M15
G01X266.943Y-98.425
M16
G05
G00X261.693Y-101.725
M15
G01X266.943Y-101.725
M16
G05
G00X266.968Y-101.7
M15
G01X266.968Y-98.45
M16
G05
G00X-0.269Y-101.7
M15
G01X-0.269Y-98.45
M16
G05
G00X-0.244Y-98.425
M15
G01X5.006Y-98.425
M16
G05
G00X-0.244Y-101.725
M15
G01X5.006Y-101.725
M16
G05
G00X5.031Y-101.7
M15
G01X5.031Y-98.45
M16
G05
G00X49.737Y-63.6
M15
G01X49.737Y-60.35
M16
G05
G00X49.762Y-60.325
M15
G01X55.012Y-60.325
M16
G05
G00X49.762Y-63.625
M15
G01X55.012Y-63.625
M16
G05
G00X55.037Y-63.6
M15
G01X55.037Y-60.35
M16
G05
G00X44.975Y-44.55
M15
G01X44.975Y-41.3
M16
G05
G00X45.0Y-41.275
M15
G01X50.25Y-41.275
M16
G05
G00X45.0Y-44.575
M15
G01X50.25Y-44.575
M16
G05
G00X50.275Y-44.55
M15
G01X50.275Y-41.3
M16
G05
G00X64.025Y-44.55
M15
G01X64.025Y-41.3
M16
G05
G00X64.05Y-41.275
M15
G01X69.3Y-41.275
M16
G05
G00X64.05Y-44.575
M15
G01X69.3Y-44.575
M16
G05
G00X69.325Y-44.55
M15
G01X69.325Y-41.3
M16
G05
G00X406.925Y-63.6
M15
G01X406.925Y-60.35
M16
G05
G00X406.95Y-60.325
M15
G01X412.2Y-60.325
M16
G05
G00X406.95Y-63.625
M15
G01X412.2Y-63.625
M16
G05
G00X412.225Y-63.6
M15
G01X412.225Y-60.35
M16
G05
G00X406.925Y-44.55
M15
G01X406.925Y-41.3
M16
G05
G00X406.95Y-41.275
M15
G01X412.2Y-41.275
M16
G05
G00X406.95Y-44.575
M15
G01X412.2Y-44.575
M16
G05
G00X412.225Y-44.55
M15
G01X412.225Y-41.3
M16
G05
G00X149.75Y-25.5
M15
G01X149.75Y-22.25
M16
G05
G00X149.775Y-22.225
M15
G01X155.025Y-22.225
M16
G05
G00X149.775Y-25.525
M15
G01X155.025Y-25.525
M16
G05
G00X155.05Y-25.5
M15
G01X155.05Y-22.25
M16
G05
G00X192.612Y-82.65
M15
G01X192.612Y-79.4
M16
G05
G00X192.637Y-79.375
M15
G01X197.887Y-79.375
M16
G05
G00X192.637Y-82.675
M15
G01X197.887Y-82.675
M16
G05
G00X197.912Y-82.65
M15
G01X197.912Y-79.4
M16
G05
G00X102.125Y-44.55
M15
G01X102.125Y-41.3
M16
G05
G00X102.15Y-41.275
M15
G01X107.4Y-41.275
M16
G05
G00X102.15Y-44.575
M15
G01X107.4Y-44.575
M16
G05
G00X107.425Y-44.55
M15
G01X107.425Y-41.3
M16
G05
G00X349.775Y-63.6
M15
G01X349.775Y-60.35
M16
G05
G00X349.8Y-60.325
M15
G01X355.05Y-60.325
M16
G05
G00X349.8Y-63.625
M15
G01X355.05Y-63.625
M16
G05
G00X355.075Y-63.6
M15
G01X355.075Y-60.35
M16
G05
G00X130.7Y-25.5
M15
G01X130.7Y-22.25
M16
G05
G00X130.725Y-22.225
M15
G01X135.975Y-22.225
M16
G05
G00X130.725Y-25.525
M15
G01X135.975Y-25.525
M16
G05
G00X136.0Y-25.5
M15
G01X136.0Y-22.25
M16
G05
G00X247.382Y-82.65
M15
G01X247.382Y-79.4
M16
G05
G00X247.407Y-79.375
M15
G01X252.657Y-79.375
M16
G05
G00X247.407Y-82.675
M15
G01X252.657Y-82.675
M16
G05
G00X252.682Y-82.65
M15
G01X252.682Y-79.4
M16
G05
G00X173.562Y-82.65
M15
G01X173.562Y-79.4
M16
G05
G00X173.587Y-79.375
M15
G01X178.837Y-79.375
M16
G05
G00X173.587Y-82.675
M15
G01X178.837Y-82.675
M16
G05
G00X178.862Y-82.65
M15
G01X178.862Y-79.4
M16
G05
G00X403.225Y-59.775
M15
G01X403.225Y-54.525
M16
G05
G00X406.5Y-54.5
M15
G01X403.25Y-54.5
M16
G05
G00X406.5Y-59.8
M15
G01X403.25Y-59.8
M16
G05
G00X406.525Y-59.775
M15
G01X406.525Y-54.525
M16
G05
G00X359.3Y-101.7
M15
G01X359.3Y-98.45
M16
G05
G00X359.325Y-98.425
M15
G01X364.575Y-98.425
M16
G05
G00X359.325Y-101.725
M15
G01X364.575Y-101.725
M16
G05
G00X364.6Y-101.7
M15
G01X364.6Y-98.45
M16
G05
G00X306.912Y-82.65
M15
G01X306.912Y-79.4
M16
G05
G00X306.937Y-79.375
M15
G01X312.187Y-79.375
M16
G05
G00X306.937Y-82.675
M15
G01X312.187Y-82.675
M16
G05
G00X312.212Y-82.65
M15
G01X312.212Y-79.4
M16
G05
G00X-2.65Y-25.5
M15
G01X-2.65Y-22.25
M16
G05
G00X-2.625Y-22.225
M15
G01X2.625Y-22.225
M16
G05
G00X-2.625Y-25.525
M15
G01X2.625Y-25.525
M16
G05
G00X2.65Y-25.5
M15
G01X2.65Y-22.25
M16
G05
G00X35.45Y3.075
M15
G01X35.45Y6.325
M16
G05
G00X35.475Y6.35
M15
G01X40.725Y6.35
M16
G05
G00X35.475Y3.05
M15
G01X40.725Y3.05
M16
G05
G00X40.75Y3.075
M15
G01X40.75Y6.325
M16
G05
G00X73.55Y-25.5
M15
G01X73.55Y-22.25
M16
G05
G00X73.575Y-22.225
M15
G01X78.825Y-22.225
M16
G05
G00X73.575Y-25.525
M15
G01X78.825Y-25.525
M16
G05
G00X78.85Y-25.5
M15
G01X78.85Y-22.25
M16
G05
G00X47.356Y-101.7
M15
G01X47.356Y-98.45
M16
G05
G00X47.381Y-98.425
M15
G01X52.631Y-98.425
M16
G05
G00X47.381Y-101.725
M15
G01X52.631Y-101.725
M16
G05
G00X52.656Y-101.7
M15
G01X52.656Y-98.45
M16
G05
G00X71.168Y-101.7
M15
G01X71.168Y-98.45
M16
G05
G00X71.194Y-98.425
M15
G01X76.444Y-98.425
M16
G05
G00X71.194Y-101.725
M15
G01X76.444Y-101.725
M16
G05
G00X76.468Y-101.7
M15
G01X76.468Y-98.45
M16
G05
G00X403.225Y-97.875
M15
G01X403.225Y-92.625
M16
G05
G00X406.5Y-92.6
M15
G01X403.25Y-92.6
M16
G05
G00X406.5Y-97.9
M15
G01X403.25Y-97.9
M16
G05
G00X406.525Y-97.875
M15
G01X406.525Y-92.625
M16
G05
G00X111.65Y-25.5
M15
G01X111.65Y-22.25
M16
G05
G00X111.675Y-22.225
M15
G01X116.925Y-22.225
M16
G05
G00X111.675Y-25.525
M15
G01X116.925Y-25.525
M16
G05
G00X116.95Y-25.5
M15
G01X116.95Y-22.25
M16
G05
G00X216.425Y-44.55
M15
G01X216.425Y-41.3
M16
G05
G00X216.45Y-41.275
M15
G01X221.7Y-41.275
M16
G05
G00X216.45Y-44.575
M15
G01X221.7Y-44.575
M16
G05
G00X221.725Y-44.55
M15
G01X221.725Y-41.3
M16
G05
G00X387.875Y-63.6
M15
G01X387.875Y-60.35
M16
G05
G00X387.9Y-60.325
M15
G01X393.15Y-60.325
M16
G05
G00X387.9Y-63.625
M15
G01X393.15Y-63.625
M16
G05
G00X393.175Y-63.6
M15
G01X393.175Y-60.35
M16
G05
G00X135.462Y-82.65
M15
G01X135.462Y-79.4
M16
G05
G00X135.487Y-79.375
M15
G01X140.737Y-79.375
M16
G05
G00X135.487Y-82.675
M15
G01X140.737Y-82.675
M16
G05
G00X140.762Y-82.65
M15
G01X140.762Y-79.4
M16
G05
G00X287.862Y-44.55
M15
G01X287.862Y-41.3
M16
G05
G00X287.887Y-41.275
M15
G01X293.137Y-41.275
M16
G05
G00X287.887Y-44.575
M15
G01X293.137Y-44.575
M16
G05
G00X293.162Y-44.55
M15
G01X293.162Y-41.3
M16
G05
G00X144.988Y-63.6
M15
G01X144.988Y-60.35
M16
G05
G00X145.013Y-60.325
M15
G01X150.263Y-60.325
M16
G05
G00X145.013Y-63.625
M15
G01X150.263Y-63.625
M16
G05
G00X150.288Y-63.6
M15
G01X150.288Y-60.35
M16
G05
G00X325.962Y-101.7
M15
G01X325.962Y-98.45
M16
G05
G00X325.987Y-98.425
M15
G01X331.237Y-98.425
M16
G05
G00X325.987Y-101.725
M15
G01X331.237Y-101.725
M16
G05
G00X331.262Y-101.7
M15
G01X331.262Y-98.45
M16
G05
G00X187.85Y-25.5
M15
G01X187.85Y-22.25
M16
G05
G00X187.875Y-22.225
M15
G01X193.125Y-22.225
M16
G05
G00X187.875Y-25.525
M15
G01X193.125Y-25.525
M16
G05
G00X193.15Y-25.5
M15
G01X193.15Y-22.25
M16
G05
G00X387.875Y-25.5
M15
G01X387.875Y-22.25
M16
G05
G00X387.9Y-22.225
M15
G01X393.15Y-22.225
M16
G05
G00X387.9Y-25.525
M15
G01X393.15Y-25.525
M16
G05
G00X393.175Y-25.5
M15
G01X393.175Y-22.25
M16
G05
G00X368.825Y-63.6
M15
G01X368.825Y-60.35
M16
G05
G00X368.85Y-60.325
M15
G01X374.1Y-60.325
M16
G05
G00X368.85Y-63.625
M15
G01X374.1Y-63.625
M16
G05
G00X374.125Y-63.6
M15
G01X374.125Y-60.35
M16
G05
G00X406.925Y-25.5
M15
G01X406.925Y-22.25
M16
G05
G00X406.95Y-22.225
M15
G01X412.2Y-22.225
M16
G05
G00X406.95Y-25.525
M15
G01X412.2Y-25.525
M16
G05
G00X412.225Y-25.5
M15
G01X412.225Y-22.25
M16
G05
G00X30.688Y-63.6
M15
G01X30.688Y-60.35
M16
G05
G00X30.712Y-60.325
M15
G01X35.962Y-60.325
M16
G05
G00X30.712Y-63.625
M15
G01X35.962Y-63.625
M16
G05
G00X35.987Y-63.6
M15
G01X35.987Y-60.35
M16
G05
G00X40.212Y-82.65
M15
G01X40.212Y-79.4
M16
G05
G00X40.237Y-79.375
M15
G01X45.487Y-79.375
M16
G05
G00X40.237Y-82.675
M15
G01X45.487Y-82.675
M16
G05
G00X45.512Y-82.65
M15
G01X45.512Y-79.4
M16
G05
G00X83.075Y-44.55
M15
G01X83.075Y-41.3
M16
G05
G00X83.1Y-41.275
M15
G01X88.35Y-41.275
M16
G05
G00X83.1Y-44.575
M15
G01X88.35Y-44.575
M16
G05
G00X88.375Y-44.55
M15
G01X88.375Y-41.3
M16
G05
G00X68.787Y-63.6
M15
G01X68.787Y-60.35
M16
G05
G00X68.812Y-60.325
M15
G01X74.062Y-60.325
M16
G05
G00X68.812Y-63.625
M15
G01X74.062Y-63.625
M16
G05
G00X74.087Y-63.6
M15
G01X74.087Y-60.35
M16
G05
G00X121.175Y3.075
M15
G01X121.175Y6.325
M16
G05
G00X121.2Y6.35
M15
G01X126.45Y6.35
M16
G05
G00X121.2Y3.05
M15
G01X126.45Y3.05
M16
G05
G00X126.475Y3.075
M15
G01X126.475Y6.325
M16
G05
G00X406.925Y-82.65
M15
G01X406.925Y-79.4
M16
G05
G00X406.95Y-79.375
M15
G01X412.2Y-79.375
M16
G05
G00X406.95Y-82.675
M15
G01X412.2Y-82.675
M16
G05
G00X412.225Y-82.65
M15
G01X412.225Y-79.4
M16
G05
G00X121.175Y-44.55
M15
G01X121.175Y-41.3
M16
G05
G00X121.2Y-41.275
M15
G01X126.45Y-41.275
M16
G05
G00X121.2Y-44.575
M15
G01X126.45Y-44.575
M16
G05
G00X126.475Y-44.55
M15
G01X126.475Y-41.3
M16
G05
G00X159.275Y-44.55
M15
G01X159.275Y-41.3
M16
G05
G00X159.3Y-41.275
M15
G01X164.55Y-41.275
M16
G05
G00X159.3Y-44.575
M15
G01X164.55Y-44.575
M16
G05
G00X164.575Y-44.55
M15
G01X164.575Y-41.3
M16
G05
G00X387.875Y-101.7
M15
G01X387.875Y-98.45
M16
G05
G00X387.9Y-98.425
M15
G01X393.15Y-98.425
M16
G05
G00X387.9Y-101.725
M15
G01X393.15Y-101.725
M16
G05
G00X393.175Y-101.7
M15
G01X393.175Y-98.45
M16
G05
G00X206.9Y-25.5
M15
G01X206.9Y-22.25
M16
G05
G00X206.925Y-22.225
M15
G01X212.175Y-22.225
M16
G05
G00X206.925Y-25.525
M15
G01X212.175Y-25.525
M16
G05
G00X212.2Y-25.5
M15
G01X212.2Y-22.25
M16
G05
G00X306.912Y3.075
M15
G01X306.912Y6.325
M16
G05
G00X306.937Y6.35
M15
G01X312.187Y6.35
M16
G05
G00X306.937Y3.05
M15
G01X312.187Y3.05
M16
G05
G00X312.212Y3.075
M15
G01X312.212Y6.325
M16
G05
G00X164.038Y-63.6
M15
G01X164.038Y-60.35
M16
G05
G00X164.063Y-60.325
M15
G01X169.313Y-60.325
M16
G05
G00X164.063Y-63.625
M15
G01X169.313Y-63.625
M16
G05
G00X169.338Y-63.6
M15
G01X169.338Y-60.35
M16
G05
G00X252.218Y-63.6
M15
G01X252.218Y-60.35
M16
G05
G00X252.243Y-60.325
M15
G01X257.493Y-60.325
M16
G05
G00X252.243Y-63.625
M15
G01X257.493Y-63.625
M16
G05
G00X257.518Y-63.6
M15
G01X257.518Y-60.35
M16
G05
G00X197.375Y-44.55
M15
G01X197.375Y-41.3
M16
G05
G00X197.4Y-41.275
M15
G01X202.65Y-41.275
M16
G05
G00X197.4Y-44.575
M15
G01X202.65Y-44.575
M16
G05
G00X202.675Y-44.55
M15
G01X202.675Y-41.3
M16
G05
G00X225.95Y-25.5
M15
G01X225.95Y-22.25
M16
G05
G00X225.975Y-22.225
M15
G01X231.225Y-22.225
M16
G05
G00X225.975Y-25.525
M15
G01X231.225Y-25.525
M16
G05
G00X231.25Y-25.5
M15
G01X231.25Y-22.25
M16
G05
G00X259.288Y-44.55
M15
G01X259.288Y-41.3
M16
G05
G00X259.313Y-41.275
M15
G01X264.563Y-41.275
M16
G05
G00X259.313Y-44.575
M15
G01X264.563Y-44.575
M16
G05
G00X264.588Y-44.55
M15
G01X264.588Y-41.3
M16
G05
G00X92.6Y-25.5
M15
G01X92.6Y-22.25
M16
G05
G00X92.625Y-22.225
M15
G01X97.875Y-22.225
M16
G05
G00X92.625Y-25.525
M15
G01X97.875Y-25.525
M16
G05
G00X97.9Y-25.5
M15
G01X97.9Y-22.25
M16
G05
G00X73.55Y3.075
M15
G01X73.55Y6.325
M16
G05
G00X73.575Y6.35
M15
G01X78.825Y6.35
M16
G05
G00X73.575Y3.05
M15
G01X78.825Y3.05
M16
G05
G00X78.85Y3.075
M15
G01X78.85Y6.325
M16
G05
G00X87.837Y-63.6
M15
G01X87.837Y-60.35
M16
G05
G00X87.862Y-60.325
M15
G01X93.112Y-60.325
M16
G05
G00X87.862Y-63.625
M15
G01X93.112Y-63.625
M16
G05
G00X93.138Y-63.6
M15
G01X93.138Y-60.35
M16
G05
G00X59.262Y-82.65
M15
G01X59.262Y-79.4
M16
G05
G00X59.287Y-79.375
M15
G01X64.537Y-79.375
M16
G05
G00X59.287Y-82.675
M15
G01X64.537Y-82.675
M16
G05
G00X64.562Y-82.65
M15
G01X64.562Y-79.4
M16
G05
G00X387.875Y-44.55
M15
G01X387.875Y-41.3
M16
G05
G00X387.9Y-41.275
M15
G01X393.15Y-41.275
M16
G05
G00X387.9Y-44.575
M15
G01X393.15Y-44.575
M16
G05
G00X393.175Y-44.55
M15
G01X393.175Y-41.3
M16
G05
G00X267.368Y-54.525
M15
G01X267.368Y-59.775
M16
G05
G00X267.393Y-54.5
M15
G01X270.643Y-54.5
M16
G05
G00X267.393Y-59.8
M15
G01X270.643Y-59.8
M16
G05
G00X270.668Y-54.525
M15
G01X270.668Y-59.775
M16
G05
G00X221.188Y-63.6
M15
G01X221.188Y-60.35
M16
G05
G00X221.213Y-60.325
M15
G01X226.463Y-60.325
M16
G05
G00X221.213Y-63.625
M15
G01X226.463Y-63.625
M16
G05
G00X226.488Y-63.6
M15
G01X226.488Y-60.35
M16
G05
G00X256.906Y-82.65
M15
G01X256.906Y-79.4
M16
G05
G00X256.931Y-79.375
M15
G01X262.181Y-79.375
M16
G05
G00X256.931Y-82.675
M15
G01X262.181Y-82.675
M16
G05
G00X262.206Y-82.65
M15
G01X262.206Y-79.4
M16
G05
G00X125.938Y-63.6
M15
G01X125.938Y-60.35
M16
G05
G00X125.963Y-60.325
M15
G01X131.213Y-60.325
M16
G05
G00X125.963Y-63.625
M15
G01X131.213Y-63.625
M16
G05
G00X131.238Y-63.6
M15
G01X131.238Y-60.35
M16
G05
T2
G00X347.345Y-28.575
M15
G01X347.345Y-28.575
M16
G05
G00X357.505Y-28.575
M15
G01X357.505Y-28.575
M16
G05
G00X252.095Y-28.575
M15
G01X252.095Y-28.575
M16
G05
G00X262.255Y-28.575
M15
G01X262.255Y-28.575
M16
G05
G00X228.282Y-85.725
M15
G01X228.282Y-85.725
M16
G05
G00X238.442Y-85.725
M15
G01X238.442Y-85.725
M16
G05
G00X180.658Y-66.675
M15
G01X180.658Y-66.675
M16
G05
G00X190.818Y-66.675
M15
G01X190.818Y-66.675
M16
G05
G00X137.795Y-47.625
M15
G01X137.795Y-47.625
M16
G05
G00X147.955Y-47.625
M15
G01X147.955Y-47.625
M16
G05
G00X211.614Y-104.775
M15
G01X211.614Y-104.775
M16
G05
G00X221.774Y-104.775
M15
G01X221.774Y-104.775
M16
G05
G00X285.432Y-104.775
M15
G01X285.432Y-104.775
M16
G05
G00X295.592Y-104.775
M15
G01X295.592Y-104.775
M16
G05
G00X199.708Y-66.675
M15
G01X199.708Y-66.675
M16
G05
G00X209.868Y-66.675
M15
G01X209.868Y-66.675
M16
G05
G00X304.482Y-47.625
M15
G01X304.482Y-47.625
M16
G05
G00X314.642Y-47.625
M15
G01X314.642Y-47.625
M16
G05
G00X166.37Y-28.575
M15
G01X166.37Y-28.575
M16
G05
G00X176.53Y-28.575
M15
G01X176.53Y-28.575
M16
G05
G00X323.532Y-28.575
M15
G01X323.532Y-28.575
M16
G05
G00X333.692Y-28.575
M15
G01X333.692Y-28.575
M16
G05
G00X385.445Y-85.725
M15
G01X385.445Y-85.725
M16
G05
G00X395.605Y-85.725
M15
G01X395.605Y-85.725
M16
G05
G00X21.113Y-104.775
M15
G01X21.113Y-104.775
M16
G05
G00X31.273Y-104.775
M15
G01X31.273Y-104.775
M16
G05
G00X-0.317Y-47.625
M15
G01X-0.317Y-47.625
M16
G05
G00X9.843Y-47.625
M15
G01X9.843Y-47.625
M16
G05
G00X23.495Y-47.625
M15
G01X23.495Y-47.625
M16
G05
G00X33.655Y-47.625
M15
G01X33.655Y-47.625
M16
G05
G00X6.901Y-85.725
M15
G01X6.901Y-85.725
M16
G05
G00X17.061Y-85.725
M15
G01X17.061Y-85.725
M16
G05
G00X366.395Y-28.575
M15
G01X366.395Y-28.575
M16
G05
G00X376.555Y-28.575
M15
G01X376.555Y-28.575
M16
G05
G00X347.345Y-104.775
M15
G01X347.345Y-104.775
M16
G05
G00X357.505Y-104.775
M15
G01X357.505Y-104.775
M16
G05
G00X235.426Y-104.775
M15
G01X235.426Y-104.775
M16
G05
G00X245.586Y-104.775
M15
G01X245.586Y-104.775
M16
G05
G00X235.426Y-85.725
M15
G01X235.426Y-85.725
M16
G05
G00X245.586Y-85.725
M15
G01X245.586Y-85.725
M16
G05
G00X261.62Y-28.575
M15
G01X261.62Y-28.575
M16
G05
G00X271.78Y-28.575
M15
G01X271.78Y-28.575
M16
G05
G00X92.551Y-104.775
M15
G01X92.551Y-104.775
M16
G05
G00X102.711Y-104.775
M15
G01X102.711Y-104.775
M16
G05
G00X113.982Y-85.725
M15
G01X113.982Y-85.725
M16
G05
G00X124.142Y-85.725
M15
G01X124.142Y-85.725
M16
G05
G00X152.082Y-85.725
M15
G01X152.082Y-85.725
M16
G05
G00X162.242Y-85.725
M15
G01X162.242Y-85.725
M16
G05
G00X242.57Y0.0
M15
G01X242.57Y0.0
M16
G05
G00X252.73Y0.0
M15
G01X252.73Y0.0
M16
G05
G00X116.364Y-104.775
M15
G01X116.364Y-104.775
M16
G05
G00X126.524Y-104.775
M15
G01X126.524Y-104.775
M16
G05
G00X323.532Y-47.625
M15
G01X323.532Y-47.625
M16
G05
G00X333.692Y-47.625
M15
G01X333.692Y-47.625
M16
G05
G00X175.895Y-47.625
M15
G01X175.895Y-47.625
M16
G05
G00X186.055Y-47.625
M15
G01X186.055Y-47.625
M16
G05
G00X347.345Y-85.725
M15
G01X347.345Y-85.725
M16
G05
G00X357.505Y-85.725
M15
G01X357.505Y-85.725
M16
G05
G00X285.432Y0.0
M15
G01X285.432Y0.0
M16
G05
G00X295.592Y0.0
M15
G01X295.592Y0.0
M16
G05
G00X163.988Y-104.775
M15
G01X163.988Y-104.775
M16
G05
G00X174.148Y-104.775
M15
G01X174.148Y-104.775
M16
G05
G00X90.17Y0.0
M15
G01X90.17Y0.0
M16
G05
G00X100.33Y0.0
M15
G01X100.33Y0.0
M16
G05
G00X2.064Y-66.675
M15
G01X2.064Y-66.675
M16
G05
G00X12.224Y-66.675
M15
G01X12.224Y-66.675
M16
G05
G00X52.07Y0.0
M15
G01X52.07Y0.0
M16
G05
G00X62.23Y0.0
M15
G01X62.23Y0.0
M16
G05
G00X94.932Y-85.725
M15
G01X94.932Y-85.725
M16
G05
G00X105.092Y-85.725
M15
G01X105.092Y-85.725
M16
G05
G00X140.176Y-104.775
M15
G01X140.176Y-104.775
M16
G05
G00X150.336Y-104.775
M15
G01X150.336Y-104.775
M16
G05
G00X404.495Y-104.775
M15
G01X404.495Y-104.775
M16
G05
G00X414.655Y-104.775
M15
G01X414.655Y-104.775
M16
G05
G00X242.57Y-28.575
M15
G01X242.57Y-28.575
M16
G05
G00X252.73Y-28.575
M15
G01X252.73Y-28.575
M16
G05
G00X237.808Y-66.675
M15
G01X237.808Y-66.675
M16
G05
G00X247.968Y-66.675
M15
G01X247.968Y-66.675
M16
G05
G00X137.795Y0.0
M15
G01X137.795Y0.0
M16
G05
G00X147.955Y0.0
M15
G01X147.955Y0.0
M16
G05
G00X261.62Y-85.725
M15
G01X261.62Y-85.725
M16
G05
G00X271.78Y-85.725
M15
G01X271.78Y-85.725
M16
G05
G00X204.47Y0.0
M15
G01X204.47Y0.0
M16
G05
G00X214.63Y0.0
M15
G01X214.63Y0.0
M16
G05
G00X261.62Y0.0
M15
G01X261.62Y0.0
M16
G05
G00X271.78Y0.0
M15
G01X271.78Y0.0
M16
G05
G00X156.845Y0.0
M15
G01X156.845Y0.0
M16
G05
G00X167.005Y0.0
M15
G01X167.005Y0.0
M16
G05
G00X175.895Y0.0
M15
G01X175.895Y0.0
M16
G05
G00X186.055Y0.0
M15
G01X186.055Y0.0
M16
G05
G00X366.395Y-47.625
M15
G01X366.395Y-47.625
M16
G05
G00X376.555Y-47.625
M15
G01X376.555Y-47.625
M16
G05
G00X304.482Y-28.575
M15
G01X304.482Y-28.575
M16
G05
G00X314.642Y-28.575
M15
G01X314.642Y-28.575
M16
G05
G00X304.482Y-104.775
M15
G01X304.482Y-104.775
M16
G05
G00X314.642Y-104.775
M15
G01X314.642Y-104.775
M16
G05
G00X13.97Y-28.575
M15
G01X13.97Y-28.575
M16
G05
G00X24.13Y-28.575
M15
G01X24.13Y-28.575
M16
G05
G00X259.238Y-104.775
M15
G01X259.238Y-104.775
M16
G05
G00X269.398Y-104.775
M15
G01X269.398Y-104.775
M16
G05
G00X-2.699Y-104.775
M15
G01X-2.699Y-104.775
M16
G05
G00X7.461Y-104.775
M15
G01X7.461Y-104.775
M16
G05
G00X47.307Y-66.675
M15
G01X47.307Y-66.675
M16
G05
G00X57.467Y-66.675
M15
G01X57.467Y-66.675
M16
G05
G00X42.545Y-47.625
M15
G01X42.545Y-47.625
M16
G05
G00X52.705Y-47.625
M15
G01X52.705Y-47.625
M16
G05
G00X61.595Y-47.625
M15
G01X61.595Y-47.625
M16
G05
G00X71.755Y-47.625
M15
G01X71.755Y-47.625
M16
G05
G00X404.495Y-66.675
M15
G01X404.495Y-66.675
M16
G05
G00X414.655Y-66.675
M15
G01X414.655Y-66.675
M16
G05
G00X404.495Y-47.625
M15
G01X404.495Y-47.625
M16
G05
G00X414.655Y-47.625
M15
G01X414.655Y-47.625
M16
G05
G00X147.32Y-28.575
M15
G01X147.32Y-28.575
M16
G05
G00X157.48Y-28.575
M15
G01X157.48Y-28.575
M16
G05
G00X190.182Y-85.725
M15
G01X190.182Y-85.725
M16
G05
G00X200.342Y-85.725
M15
G01X200.342Y-85.725
M16
G05
G00X99.695Y-47.625
M15
G01X99.695Y-47.625
M16
G05
G00X109.855Y-47.625
M15
G01X109.855Y-47.625
M16
G05
G00X347.345Y-66.675
M15
G01X347.345Y-66.675
M16
G05
G00X357.505Y-66.675
M15
G01X357.505Y-66.675
M16
G05
G00X128.27Y-28.575
M15
G01X128.27Y-28.575
M16
G05
G00X138.43Y-28.575
M15
G01X138.43Y-28.575
M16
G05
G00X244.952Y-85.725
M15
G01X244.952Y-85.725
M16
G05
G00X255.112Y-85.725
M15
G01X255.112Y-85.725
M16
G05
G00X171.132Y-85.725
M15
G01X171.132Y-85.725
M16
G05
G00X181.292Y-85.725
M15
G01X181.292Y-85.725
M16
G05
G00X409.575Y-52.07
M15
G01X409.575Y-52.07
M16
G05
G00X409.575Y-62.23
M15
G01X409.575Y-62.23
M16
G05
G00X356.87Y-104.775
M15
G01X356.87Y-104.775
M16
G05
G00X367.03Y-104.775
M15
G01X367.03Y-104.775
M16
G05
G00X304.482Y-85.725
M15
G01X304.482Y-85.725
M16
G05
G00X314.642Y-85.725
M15
G01X314.642Y-85.725
M16
G05
G00X-5.08Y-28.575
M15
G01X-5.08Y-28.575
M16
G05
G00X5.08Y-28.575
M15
G01X5.08Y-28.575
M16
G05
G00X33.02Y0.0
M15
G01X33.02Y0.0
M16
G05
G00X43.18Y0.0
M15
G01X43.18Y0.0
M16
G05
G00X71.12Y-28.575
M15
G01X71.12Y-28.575
M16
G05
G00X81.28Y-28.575
M15
G01X81.28Y-28.575
M16
G05
G00X44.926Y-104.775
M15
G01X44.926Y-104.775
M16
G05
G00X55.086Y-104.775
M15
G01X55.086Y-104.775
M16
G05
G00X68.739Y-104.775
M15
G01X68.739Y-104.775
M16
G05
G00X78.898Y-104.775
M15
G01X78.898Y-104.775
M16
G05
G00X409.575Y-90.17
M15
G01X409.575Y-90.17
M16
G05
G00X409.575Y-100.33
M15
G01X409.575Y-100.33
M16
G05
G00X109.22Y-28.575
M15
G01X109.22Y-28.575
M16
G05
G00X119.38Y-28.575
M15
G01X119.38Y-28.575
M16
G05
G00X213.995Y-47.625
M15
G01X213.995Y-47.625
M16
G05
G00X224.155Y-47.625
M15
G01X224.155Y-47.625
M16
G05
G00X385.445Y-66.675
M15
G01X385.445Y-66.675
M16
G05
G00X395.605Y-66.675
M15
G01X395.605Y-66.675
M16
G05
G00X133.032Y-85.725
M15
G01X133.032Y-85.725
M16
G05
G00X143.192Y-85.725
M15
G01X143.192Y-85.725
M16
G05
G00X285.432Y-47.625
M15
G01X285.432Y-47.625
M16
G05
G00X295.592Y-47.625
M15
G01X295.592Y-47.625
M16
G05
G00X142.558Y-66.675
M15
G01X142.558Y-66.675
M16
G05
G00X152.718Y-66.675
M15
G01X152.718Y-66.675
M16
G05
G00X323.532Y-104.775
M15
G01X323.532Y-104.775
M16
G05
G00X333.692Y-104.775
M15
G01X333.692Y-104.775
M16
G05
G00X185.42Y-28.575
M15
G01X185.42Y-28.575
M16
G05
G00X195.58Y-28.575
M15
G01X195.58Y-28.575
M16
G05
G00X385.445Y-28.575
M15
G01X385.445Y-28.575
M16
G05
G00X395.605Y-28.575
M15
G01X395.605Y-28.575
M16
G05
G00X366.395Y-66.675
M15
G01X366.395Y-66.675
M16
G05
G00X376.555Y-66.675
M15
G01X376.555Y-66.675
M16
G05
G00X404.495Y-28.575
M15
G01X404.495Y-28.575
M16
G05
G00X414.655Y-28.575
M15
G01X414.655Y-28.575
M16
G05
G00X28.258Y-66.675
M15
G01X28.258Y-66.675
M16
G05
G00X38.417Y-66.675
M15
G01X38.417Y-66.675
M16
G05
G00X37.782Y-85.725
M15
G01X37.782Y-85.725
M16
G05
G00X47.942Y-85.725
M15
G01X47.942Y-85.725
M16
G05
G00X80.645Y-47.625
M15
G01X80.645Y-47.625
M16
G05
G00X90.805Y-47.625
M15
G01X90.805Y-47.625
M16
G05
G00X66.358Y-66.675
M15
G01X66.358Y-66.675
M16
G05
G00X76.517Y-66.675
M15
G01X76.517Y-66.675
M16
G05
G00X118.745Y0.0
M15
G01X118.745Y0.0
M16
G05
G00X128.905Y0.0
M15
G01X128.905Y0.0
M16
G05
G00X404.495Y-85.725
M15
G01X404.495Y-85.725
M16
G05
G00X414.655Y-85.725
M15
G01X414.655Y-85.725
M16
G05
G00X118.745Y-47.625
M15
G01X118.745Y-47.625
M16
G05
G00X128.905Y-47.625
M15
G01X128.905Y-47.625
M16
G05
G00X156.845Y-47.625
M15
G01X156.845Y-47.625
M16
G05
G00X167.005Y-47.625
M15
G01X167.005Y-47.625
M16
G05
G00X385.445Y-104.775
M15
G01X385.445Y-104.775
M16
G05
G00X395.605Y-104.775
M15
G01X395.605Y-104.775
M16
G05
G00X204.47Y-28.575
M15
G01X204.47Y-28.575
M16
G05
G00X214.63Y-28.575
M15
G01X214.63Y-28.575
M16
G05
G00X304.482Y0.0
M15
G01X304.482Y0.0
M16
G05
G00X314.642Y0.0
M15
G01X314.642Y0.0
M16
G05
G00X161.608Y-66.675
M15
G01X161.608Y-66.675
M16
G05
G00X171.768Y-66.675
M15
G01X171.768Y-66.675
M16
G05
G00X249.788Y-66.675
M15
G01X249.788Y-66.675
M16
G05
G00X259.948Y-66.675
M15
G01X259.948Y-66.675
M16
G05
G00X194.945Y-47.625
M15
G01X194.945Y-47.625
M16
G05
G00X205.105Y-47.625
M15
G01X205.105Y-47.625
M16
G05
G00X223.52Y-28.575
M15
G01X223.52Y-28.575
M16
G05
G00X233.68Y-28.575
M15
G01X233.68Y-28.575
M16
G05
G00X256.858Y-47.625
M15
G01X256.858Y-47.625
M16
G05
G00X267.018Y-47.625
M15
G01X267.018Y-47.625
M16
G05
G00X90.17Y-28.575
M15
G01X90.17Y-28.575
M16
G05
G00X100.33Y-28.575
M15
G01X100.33Y-28.575
M16
G05
G00X71.12Y0.0
M15
G01X71.12Y0.0
M16
G05
G00X81.28Y0.0
M15
G01X81.28Y0.0
M16
G05
G00X85.407Y-66.675
M15
G01X85.407Y-66.675
M16
G05
G00X95.567Y-66.675
M15
G01X95.567Y-66.675
M16
G05
G00X56.832Y-85.725
M15
G01X56.832Y-85.725
M16
G05
G00X66.992Y-85.725
M15
G01X66.992Y-85.725
M16
G05
G00X385.445Y-47.625
M15
G01X385.445Y-47.625
M16
G05
G00X395.605Y-47.625
M15
G01X395.605Y-47.625
M16
G05
G00X264.318Y-52.07
M15
G01X264.318Y-52.07
M16
G05
G00X264.318Y-62.23
M15
G01X264.318Y-62.23
M16
G05
G00X218.758Y-66.675
M15
G01X218.758Y-66.675
M16
G05
G00X228.918Y-66.675
M15
G01X228.918Y-66.675
M16
G05
G00X254.476Y-85.725
M15
G01X254.476Y-85.725
M16
G05
G00X264.636Y-85.725
M15
G01X264.636Y-85.725
M16
G05
G00X123.508Y-66.675
M15
G01X123.508Y-66.675
M16
G05
G00X133.668Y-66.675
M15
G01X133.668Y-66.675
M16
G05
G00X187.801Y-104.775
M15
G01X187.801Y-104.775
M16
G05
G00X197.961Y-104.775
M15
G01X197.961Y-104.775
M16
G05
G00X347.345Y-47.625
M15
G01X347.345Y-47.625
M16
G05
G00X357.505Y-47.625
M15
G01X357.505Y-47.625
M16
G05
G00X104.458Y-66.675
M15
G01X104.458Y-66.675
M16
G05
G00X114.618Y-66.675
M15
G01X114.618Y-66.675
M16
G05
G00X-5.08Y0.0
M15
G01X-5.08Y0.0
M16
G05
G00X5.08Y0.0
M15
G01X5.08Y0.0
M16
G05
G00X285.432Y-28.575
M15
G01X285.432Y-28.575
M16
G05
G00X295.592Y-28.575
M15
G01X295.592Y-28.575
M16
G05
G00X223.52Y0.0
M15
G01X223.52Y0.0
M16
G05
G00X233.68Y0.0
M15
G01X233.68Y0.0
M16
G05
G00X366.395Y-85.725
M15
G01X366.395Y-85.725
M16
G05
G00X376.555Y-85.725
M15
G01X376.555Y-85.725
M16
G05
G00X209.232Y-85.725
M15
G01X209.232Y-85.725
M16
G05
G00X219.392Y-85.725
M15
G01X219.392Y-85.725
M16
G05
G00X233.045Y-47.625
M15
G01X233.045Y-47.625
M16
G05
G00X243.205Y-47.625
M15
G01X243.205Y-47.625
M16
G05
G00X323.532Y0.0
M15
G01X323.532Y0.0
M16
G05
G00X333.692Y0.0
M15
G01X333.692Y0.0
M16
G05
G00X33.02Y-28.575
M15
G01X33.02Y-28.575
M16
G05
G00X43.18Y-28.575
M15
G01X43.18Y-28.575
M16
G05
G00X75.882Y-85.725
M15
G01X75.882Y-85.725
M16
G05
G00X86.042Y-85.725
M15
G01X86.042Y-85.725
M16
G05
G00X52.07Y-28.575
M15
G01X52.07Y-28.575
M16
G05
G00X62.23Y-28.575
M15
G01X62.23Y-28.575
M16
G05
G00X366.395Y-104.775
M15
G01X366.395Y-104.775
M16
G05
G00X376.555Y-104.775
M15
G01X376.555Y-104.775
M16
G05
T0
M30
