G04 #@! TF.GenerationSoftware,KiCad,Pcbnew,(5.1.5)-3*
G04 #@! TF.CreationDate,2021-02-16T22:09:04+09:00*
G04 #@! TF.ProjectId,108,3130382e-6b69-4636-9164-5f7063625858,rev?*
G04 #@! TF.SameCoordinates,Original*
G04 #@! TF.FileFunction,Legend,Top*
G04 #@! TF.FilePolarity,Positive*
%FSLAX46Y46*%
G04 Gerber Fmt 4.6, Leading zero omitted, Abs format (unit mm)*
G04 Created by KiCad (PCBNEW (5.1.5)-3) date 2021-02-16 22:09:04*
%MOMM*%
%LPD*%
G04 APERTURE LIST*
%ADD10C,0.050000*%
%ADD11C,1.626000*%
%ADD12C,1.902000*%
%ADD13O,0.252000X3.502000*%
%ADD14O,5.502000X0.252000*%
%ADD15C,2.134000*%
%ADD16C,1.803800*%
%ADD17C,4.089800*%
%ADD18C,4.902000*%
%ADD19O,0.252000X5.502000*%
%ADD20O,3.502000X0.252000*%
%ADD21C,3.150000*%
%ADD22C,1.702000*%
%ADD23R,1.702000X1.702000*%
%ADD24O,1.802000X1.802000*%
%ADD25R,1.802000X1.802000*%
G04 APERTURE END LIST*
D10*
X417830000Y9525000D02*
G75*
G02X420370000Y6985000I0J-2540000D01*
G01*
X-9525000Y6985000D02*
G75*
G02X-6985000Y9525000I2540000J0D01*
G01*
X420370000Y-113030000D02*
G75*
G02X417830000Y-115570000I-2540000J0D01*
G01*
X-6985000Y-115570000D02*
G75*
G02X-9525000Y-113030000I0J2540000D01*
G01*
X420370000Y6985000D02*
X420370000Y-113030000D01*
X-6985000Y-115570000D02*
X417830000Y-115570000D01*
X-9525000Y-113030000D02*
X-9525000Y6985000D01*
X417830000Y9525000D02*
X-6985000Y9525000D01*
%LPC*%
D11*
X405170000Y7620000D03*
X410170000Y7620000D03*
D12*
X404170000Y5120000D03*
X411170000Y5120000D03*
D13*
X368825000Y-81025000D03*
X374125000Y-81025000D03*
D14*
X371475000Y-82675000D03*
X371475000Y-79375000D03*
D15*
X368935000Y-90805000D03*
X375285000Y-88265000D03*
D16*
X376555000Y-85725000D03*
X366395000Y-85725000D03*
D17*
X371475000Y-85725000D03*
D11*
X353822000Y8128000D03*
X369062000Y8128000D03*
X415290000Y635000D03*
X412750000Y635000D03*
X410210000Y635000D03*
X407670000Y635000D03*
X405130000Y635000D03*
X402590000Y635000D03*
X400050000Y635000D03*
X397510000Y635000D03*
X394970000Y635000D03*
X392430000Y635000D03*
X389890000Y635000D03*
X387350000Y-14605000D03*
X389890000Y-14605000D03*
X392430000Y-14605000D03*
X394970000Y-14605000D03*
X397510000Y-14605000D03*
X400050000Y-14605000D03*
X402590000Y-14605000D03*
X405130000Y-14605000D03*
X407670000Y-14605000D03*
X410210000Y-14605000D03*
X412750000Y-14605000D03*
X387350000Y635000D03*
X415290000Y-14605000D03*
X417830000Y-14605000D03*
X417830000Y635000D03*
D13*
X-2650000Y4700000D03*
X2650000Y4700000D03*
D14*
X0Y3050000D03*
X0Y6350000D03*
D15*
X-2540000Y-5080000D03*
X3810000Y-2540000D03*
D16*
X5080000Y0D03*
X-5080000Y0D03*
D17*
X0Y0D03*
D18*
X17145000Y5905500D03*
X195580000Y5905500D03*
X299974000Y-94996000D03*
X109474000Y5905500D03*
X343535000Y-12700000D03*
X343535000Y5905500D03*
X381000000Y-95250000D03*
X228600000Y-95250000D03*
X133350000Y-96520000D03*
X14224000Y-99250500D03*
X319405000Y-38100000D03*
X228600000Y-38735000D03*
X123825000Y-37465000D03*
X17145000Y-39370000D03*
X416814000Y5969000D03*
X279400000Y5905500D03*
D19*
X406525000Y-95250000D03*
D20*
X404875000Y-92600000D03*
X404875000Y-97900000D03*
D19*
X403225000Y-95250000D03*
D15*
X414655000Y-97790000D03*
X412115000Y-91440000D03*
D16*
X409575000Y-90170000D03*
X409575000Y-100330000D03*
D17*
X409575000Y-95250000D03*
X417830000Y-107188000D03*
D21*
X402590000Y-107188000D03*
X402590000Y-83312000D03*
D17*
X417830000Y-83312000D03*
D13*
X245000000Y-23875000D03*
X250300000Y-23875000D03*
D14*
X247650000Y-25525000D03*
X247650000Y-22225000D03*
D15*
X245110000Y-33655000D03*
X251460000Y-31115000D03*
D16*
X252730000Y-28575000D03*
X242570000Y-28575000D03*
D17*
X247650000Y-28575000D03*
D14*
X240506000Y-101725000D03*
D13*
X243156000Y-100075000D03*
X237856000Y-100075000D03*
D14*
X240506000Y-98425000D03*
D17*
X240506000Y-104775000D03*
D16*
X235426000Y-104775000D03*
X245586000Y-104775000D03*
D15*
X244316000Y-107315000D03*
X237966000Y-109855000D03*
D13*
X264050000Y-23875000D03*
X269350000Y-23875000D03*
D14*
X266700000Y-25525000D03*
X266700000Y-22225000D03*
D15*
X264160000Y-33655000D03*
X270510000Y-31115000D03*
D16*
X271780000Y-28575000D03*
X261620000Y-28575000D03*
D17*
X266700000Y-28575000D03*
D14*
X257175000Y-25525000D03*
D13*
X259825000Y-23875000D03*
X254525000Y-23875000D03*
D14*
X257175000Y-22225000D03*
D17*
X269113000Y-36830000D03*
D21*
X269113000Y-21590000D03*
X245237000Y-21590000D03*
D17*
X245237000Y-36830000D03*
X257175000Y-28575000D03*
D16*
X252095000Y-28575000D03*
X262255000Y-28575000D03*
D15*
X260985000Y-31115000D03*
X254635000Y-33655000D03*
D22*
X249006000Y-100875000D03*
D23*
X249006000Y-108675000D03*
D19*
X267368000Y-57150000D03*
D20*
X269018000Y-59800000D03*
X269018000Y-54500000D03*
D19*
X270668000Y-57150000D03*
D15*
X259238000Y-54610000D03*
X261778000Y-60960000D03*
D16*
X264318000Y-62230000D03*
X264318000Y-52070000D03*
D17*
X264318000Y-57150000D03*
X256063000Y-45212000D03*
D21*
X271303000Y-45212000D03*
X271303000Y-69088000D03*
D17*
X256063000Y-69088000D03*
D13*
X406925000Y-81025000D03*
X412225000Y-81025000D03*
D14*
X409575000Y-82675000D03*
X409575000Y-79375000D03*
D15*
X407035000Y-90805000D03*
X413385000Y-88265000D03*
D16*
X414655000Y-85725000D03*
X404495000Y-85725000D03*
D17*
X409575000Y-85725000D03*
D13*
X406925000Y-42925000D03*
X412225000Y-42925000D03*
D14*
X409575000Y-44575000D03*
X409575000Y-41275000D03*
D15*
X407035000Y-52705000D03*
X413385000Y-50165000D03*
D16*
X414655000Y-47625000D03*
X404495000Y-47625000D03*
D17*
X409575000Y-47625000D03*
D14*
X169068000Y-101725000D03*
D13*
X171718000Y-100075000D03*
X166418000Y-100075000D03*
D14*
X169068000Y-98425000D03*
D17*
X169068000Y-104775000D03*
D16*
X163988000Y-104775000D03*
X174148000Y-104775000D03*
D15*
X172878000Y-107315000D03*
X166528000Y-109855000D03*
D13*
X406925000Y-23875000D03*
X412225000Y-23875000D03*
D14*
X409575000Y-25525000D03*
X409575000Y-22225000D03*
D15*
X407035000Y-33655000D03*
X413385000Y-31115000D03*
D16*
X414655000Y-28575000D03*
X404495000Y-28575000D03*
D17*
X409575000Y-28575000D03*
D14*
X264318000Y-101725000D03*
D13*
X266968000Y-100075000D03*
X261668000Y-100075000D03*
D14*
X264318000Y-98425000D03*
D17*
X264318000Y-104775000D03*
D16*
X259238000Y-104775000D03*
X269398000Y-104775000D03*
D15*
X268128000Y-107315000D03*
X261778000Y-109855000D03*
D22*
X401984000Y-74549000D03*
D23*
X394184000Y-74549000D03*
D22*
X379975000Y-100875000D03*
D23*
X379975000Y-108675000D03*
D22*
X177568000Y-100875000D03*
D23*
X177568000Y-108675000D03*
D22*
X153756000Y-100875000D03*
D23*
X153756000Y-108675000D03*
D22*
X106131000Y-100875000D03*
D23*
X106131000Y-108675000D03*
D22*
X82318500Y-100875000D03*
D23*
X82318500Y-108675000D03*
D22*
X400582000Y-92329000D03*
D23*
X392782000Y-92329000D03*
D22*
X400772000Y-56261000D03*
D23*
X392972000Y-56261000D03*
D22*
X418075000Y-24675000D03*
D23*
X418075000Y-32475000D03*
D22*
X398907000Y-96811000D03*
D23*
X398907000Y-104611000D03*
D22*
X398716000Y-79034000D03*
D23*
X398716000Y-86834000D03*
D22*
X399025000Y-60047500D03*
D23*
X399025000Y-67847500D03*
D22*
X399025000Y-43725000D03*
D23*
X399025000Y-51525000D03*
D22*
X399025000Y-24675000D03*
D23*
X399025000Y-32475000D03*
D22*
X379975000Y-81825000D03*
D23*
X379975000Y-89625000D03*
D22*
X379975000Y-62775000D03*
D23*
X379975000Y-70575000D03*
D22*
X379975000Y-43725000D03*
D23*
X379975000Y-51525000D03*
D22*
X379975000Y-24675000D03*
D23*
X379975000Y-32475000D03*
D22*
X337112000Y-100875000D03*
D23*
X337112000Y-108675000D03*
D22*
X344424000Y-100812000D03*
D23*
X344424000Y-108612000D03*
D22*
X360925000Y-81825000D03*
D23*
X360925000Y-89625000D03*
D22*
X360925000Y-62775000D03*
D23*
X360925000Y-70575000D03*
D22*
X360925000Y-43725000D03*
D23*
X360925000Y-51525000D03*
D22*
X360925000Y-24675000D03*
D23*
X360925000Y-32475000D03*
D22*
X318062000Y-81825000D03*
D23*
X318062000Y-89625000D03*
D22*
X318062000Y-43725000D03*
D23*
X318062000Y-51525000D03*
D22*
X337112000Y-43725000D03*
D23*
X337112000Y-51525000D03*
D22*
X318062000Y-24675000D03*
D23*
X318062000Y-32475000D03*
D22*
X337112000Y-24675000D03*
D23*
X337112000Y-32475000D03*
D22*
X337112000Y3900000D03*
D23*
X337112000Y-3900000D03*
D22*
X272818000Y-100875000D03*
D23*
X272818000Y-108675000D03*
D22*
X299012000Y-100875000D03*
D23*
X299012000Y-108675000D03*
D22*
X318062000Y-100875000D03*
D23*
X318062000Y-108675000D03*
D22*
X299012000Y-43725000D03*
D23*
X299012000Y-51525000D03*
D22*
X299012000Y-24675000D03*
D23*
X299012000Y-32475000D03*
D22*
X318062000Y3900000D03*
D23*
X318062000Y-3900000D03*
D22*
X279654000Y-100176000D03*
D23*
X279654000Y-107976000D03*
D22*
X275146000Y-81383500D03*
D23*
X275146000Y-89183500D03*
D22*
X244830000Y-56705500D03*
D23*
X252630000Y-56705500D03*
D22*
X252095000Y-43979000D03*
D23*
X252095000Y-51779000D03*
D22*
X275200000Y-24675000D03*
D23*
X275200000Y-32475000D03*
D22*
X299012000Y3900000D03*
D23*
X299012000Y-3900000D03*
D22*
X246625000Y-43725000D03*
D23*
X246625000Y-51525000D03*
D22*
X253084000Y-20002500D03*
D23*
X260884000Y-20002500D03*
D22*
X237100000Y-24675000D03*
D23*
X237100000Y-32475000D03*
D22*
X275200000Y3900000D03*
D23*
X275200000Y-3900000D03*
D22*
X232338000Y-62775000D03*
D23*
X232338000Y-70575000D03*
D22*
X227575000Y-43725000D03*
D23*
X227575000Y-51525000D03*
D22*
X218050000Y-24675000D03*
D23*
X218050000Y-32475000D03*
D22*
X256150000Y3900000D03*
D23*
X256150000Y-3900000D03*
D22*
X225194000Y-100875000D03*
D23*
X225194000Y-108675000D03*
D22*
X222812000Y-81825000D03*
D23*
X222812000Y-89625000D03*
D22*
X213288000Y-62775000D03*
D23*
X213288000Y-70575000D03*
D22*
X208525000Y-43725000D03*
D23*
X208525000Y-51525000D03*
D22*
X199000000Y-24675000D03*
D23*
X199000000Y-32475000D03*
D22*
X237100000Y3900000D03*
D23*
X237100000Y-3900000D03*
D22*
X201381000Y-100875000D03*
D23*
X201381000Y-108675000D03*
D22*
X203762000Y-81825000D03*
D23*
X203762000Y-89625000D03*
D22*
X194238000Y-62775000D03*
D23*
X194238000Y-70575000D03*
D22*
X189475000Y-43725000D03*
D23*
X189475000Y-51525000D03*
D22*
X179950000Y-24675000D03*
D23*
X179950000Y-32475000D03*
D22*
X218050000Y3900000D03*
D23*
X218050000Y-3900000D03*
D22*
X184712000Y-81825000D03*
D23*
X184712000Y-89625000D03*
D22*
X175188000Y-62775000D03*
D23*
X175188000Y-70575000D03*
D22*
X170425000Y-43725000D03*
D23*
X170425000Y-51525000D03*
D22*
X160900000Y-24675000D03*
D23*
X160900000Y-32475000D03*
D22*
X189475000Y3900000D03*
D23*
X189475000Y-3900000D03*
D22*
X165662000Y-81825000D03*
D23*
X165662000Y-89625000D03*
D22*
X156138000Y-62775000D03*
D23*
X156138000Y-70575000D03*
D22*
X151375000Y-43725000D03*
D23*
X151375000Y-51525000D03*
D22*
X141850000Y-24675000D03*
D23*
X141850000Y-32475000D03*
D22*
X170425000Y3900000D03*
D23*
X170425000Y-3900000D03*
D22*
X146612000Y-81825000D03*
D23*
X146612000Y-89625000D03*
D22*
X137088000Y-62775000D03*
D23*
X137088000Y-70575000D03*
D22*
X132325000Y-43725000D03*
D23*
X132325000Y-51525000D03*
D22*
X122800000Y-24675000D03*
D23*
X122800000Y-32475000D03*
D22*
X151375000Y3900000D03*
D23*
X151375000Y-3900000D03*
D22*
X129944000Y-100875000D03*
D23*
X129944000Y-108675000D03*
D22*
X127562000Y-81825000D03*
D23*
X127562000Y-89625000D03*
D22*
X118038000Y-62775000D03*
D23*
X118038000Y-70575000D03*
D22*
X113275000Y-43725000D03*
D23*
X113275000Y-51525000D03*
D22*
X103750000Y-24675000D03*
D23*
X103750000Y-32475000D03*
D22*
X132325000Y3900000D03*
D23*
X132325000Y-3900000D03*
D22*
X108512000Y-81825000D03*
D23*
X108512000Y-89625000D03*
D22*
X98987500Y-62775000D03*
D23*
X98987500Y-70575000D03*
D22*
X94225000Y-43725000D03*
D23*
X94225000Y-51525000D03*
D22*
X84700000Y-24675000D03*
D23*
X84700000Y-32475000D03*
D22*
X103750000Y3900000D03*
D23*
X103750000Y-3900000D03*
D22*
X89462500Y-81825000D03*
D23*
X89462500Y-89625000D03*
D22*
X79937500Y-62775000D03*
D23*
X79937500Y-70575000D03*
D22*
X75175000Y-43725000D03*
D23*
X75175000Y-51525000D03*
D22*
X65650000Y-24675000D03*
D23*
X65650000Y-32475000D03*
D22*
X84700000Y3900000D03*
D23*
X84700000Y-3900000D03*
D22*
X58506000Y-100875000D03*
D23*
X58506000Y-108675000D03*
D22*
X70412500Y-81825000D03*
D23*
X70412500Y-89625000D03*
D22*
X60887500Y-62775000D03*
D23*
X60887500Y-70575000D03*
D22*
X56125000Y-43725000D03*
D23*
X56125000Y-51525000D03*
D22*
X46600000Y-24675000D03*
D23*
X46600000Y-32475000D03*
D22*
X65650000Y3900000D03*
D23*
X65650000Y-3900000D03*
D22*
X34693500Y-100875000D03*
D23*
X34693500Y-108675000D03*
D22*
X51362500Y-81825000D03*
D23*
X51362500Y-89625000D03*
D22*
X41837500Y-62775000D03*
D23*
X41837500Y-70575000D03*
D22*
X37075000Y-43725000D03*
D23*
X37075000Y-51525000D03*
D22*
X27550000Y-24675000D03*
D23*
X27550000Y-32475000D03*
D22*
X46600000Y3900000D03*
D23*
X46600000Y-3900000D03*
D22*
X11430000Y-103415000D03*
D23*
X11430000Y-111215000D03*
D22*
X30797500Y-81380500D03*
D23*
X30797500Y-89180500D03*
D22*
X15644000Y-62775000D03*
D23*
X15644000Y-70575000D03*
D22*
X13263000Y-43725000D03*
D23*
X13263000Y-51525000D03*
D22*
X8500000Y-24675000D03*
D23*
X8500000Y-32475000D03*
D22*
X8500000Y3900000D03*
D23*
X8500000Y-3900000D03*
D22*
X401534000Y-112522000D03*
D23*
X393734000Y-112522000D03*
D19*
X406525000Y-57150000D03*
D20*
X404875000Y-54500000D03*
X404875000Y-59800000D03*
D19*
X403225000Y-57150000D03*
D15*
X414655000Y-59690000D03*
X412115000Y-53340000D03*
D16*
X409575000Y-52070000D03*
X409575000Y-62230000D03*
D17*
X409575000Y-57150000D03*
X417830000Y-69088000D03*
D21*
X402590000Y-69088000D03*
X402590000Y-45212000D03*
D17*
X417830000Y-45212000D03*
D14*
X361950000Y-101725000D03*
D13*
X364600000Y-100075000D03*
X359300000Y-100075000D03*
D14*
X361950000Y-98425000D03*
D17*
X373888000Y-113030000D03*
D21*
X373888000Y-97790000D03*
X350012000Y-97790000D03*
D17*
X350012000Y-113030000D03*
X361950000Y-104775000D03*
D16*
X356870000Y-104775000D03*
X367030000Y-104775000D03*
D15*
X365760000Y-107315000D03*
X359410000Y-109855000D03*
D13*
X325962000Y-100075000D03*
X331262000Y-100075000D03*
D14*
X328612000Y-101725000D03*
X328612000Y-98425000D03*
D15*
X326072000Y-109855000D03*
X332422000Y-107315000D03*
D16*
X333692000Y-104775000D03*
X323532000Y-104775000D03*
D17*
X328612000Y-104775000D03*
D13*
X387875000Y-100075000D03*
X393175000Y-100075000D03*
D14*
X390525000Y-101725000D03*
X390525000Y-98425000D03*
D15*
X387985000Y-109855000D03*
X394335000Y-107315000D03*
D16*
X395605000Y-104775000D03*
X385445000Y-104775000D03*
D17*
X390525000Y-104775000D03*
D13*
X387875000Y-81025000D03*
X393175000Y-81025000D03*
D14*
X390525000Y-82675000D03*
X390525000Y-79375000D03*
D15*
X387985000Y-90805000D03*
X394335000Y-88265000D03*
D16*
X395605000Y-85725000D03*
X385445000Y-85725000D03*
D17*
X390525000Y-85725000D03*
D13*
X387875000Y-61975000D03*
X393175000Y-61975000D03*
D14*
X390525000Y-63625000D03*
X390525000Y-60325000D03*
D15*
X387985000Y-71755000D03*
X394335000Y-69215000D03*
D16*
X395605000Y-66675000D03*
X385445000Y-66675000D03*
D17*
X390525000Y-66675000D03*
D13*
X387875000Y-23875000D03*
X393175000Y-23875000D03*
D14*
X390525000Y-25525000D03*
X390525000Y-22225000D03*
D15*
X387985000Y-33655000D03*
X394335000Y-31115000D03*
D16*
X395605000Y-28575000D03*
X385445000Y-28575000D03*
D17*
X390525000Y-28575000D03*
D13*
X368825000Y-61975000D03*
X374125000Y-61975000D03*
D14*
X371475000Y-63625000D03*
X371475000Y-60325000D03*
D15*
X368935000Y-71755000D03*
X375285000Y-69215000D03*
D16*
X376555000Y-66675000D03*
X366395000Y-66675000D03*
D17*
X371475000Y-66675000D03*
D13*
X368825000Y-42925000D03*
X374125000Y-42925000D03*
D14*
X371475000Y-44575000D03*
X371475000Y-41275000D03*
D15*
X368935000Y-52705000D03*
X375285000Y-50165000D03*
D16*
X376555000Y-47625000D03*
X366395000Y-47625000D03*
D17*
X371475000Y-47625000D03*
D13*
X349775000Y-81025000D03*
X355075000Y-81025000D03*
D14*
X352425000Y-82675000D03*
X352425000Y-79375000D03*
D15*
X349885000Y-90805000D03*
X356235000Y-88265000D03*
D16*
X357505000Y-85725000D03*
X347345000Y-85725000D03*
D17*
X352425000Y-85725000D03*
D13*
X349775000Y-61975000D03*
X355075000Y-61975000D03*
D14*
X352425000Y-63625000D03*
X352425000Y-60325000D03*
D15*
X349885000Y-71755000D03*
X356235000Y-69215000D03*
D16*
X357505000Y-66675000D03*
X347345000Y-66675000D03*
D17*
X352425000Y-66675000D03*
D13*
X349775000Y-42925000D03*
X355075000Y-42925000D03*
D14*
X352425000Y-44575000D03*
X352425000Y-41275000D03*
D15*
X349885000Y-52705000D03*
X356235000Y-50165000D03*
D16*
X357505000Y-47625000D03*
X347345000Y-47625000D03*
D17*
X352425000Y-47625000D03*
D13*
X306912000Y-81025000D03*
X312212000Y-81025000D03*
D14*
X309562000Y-82675000D03*
X309562000Y-79375000D03*
D15*
X307022000Y-90805000D03*
X313372000Y-88265000D03*
D16*
X314642000Y-85725000D03*
X304482000Y-85725000D03*
D17*
X309562000Y-85725000D03*
D13*
X306912000Y-42925000D03*
X312212000Y-42925000D03*
D14*
X309562000Y-44575000D03*
X309562000Y-41275000D03*
D15*
X307022000Y-52705000D03*
X313372000Y-50165000D03*
D16*
X314642000Y-47625000D03*
X304482000Y-47625000D03*
D17*
X309562000Y-47625000D03*
D13*
X325962000Y-42925000D03*
X331262000Y-42925000D03*
D14*
X328612000Y-44575000D03*
X328612000Y-41275000D03*
D15*
X326072000Y-52705000D03*
X332422000Y-50165000D03*
D16*
X333692000Y-47625000D03*
X323532000Y-47625000D03*
D17*
X328612000Y-47625000D03*
D13*
X306912000Y-23875000D03*
X312212000Y-23875000D03*
D14*
X309562000Y-25525000D03*
X309562000Y-22225000D03*
D15*
X307022000Y-33655000D03*
X313372000Y-31115000D03*
D16*
X314642000Y-28575000D03*
X304482000Y-28575000D03*
D17*
X309562000Y-28575000D03*
D13*
X325962000Y-23875000D03*
X331262000Y-23875000D03*
D14*
X328612000Y-25525000D03*
X328612000Y-22225000D03*
D15*
X326072000Y-33655000D03*
X332422000Y-31115000D03*
D16*
X333692000Y-28575000D03*
X323532000Y-28575000D03*
D17*
X328612000Y-28575000D03*
D13*
X325962000Y4700000D03*
X331262000Y4700000D03*
D14*
X328612000Y3050000D03*
X328612000Y6350000D03*
D15*
X326072000Y-5080000D03*
X332422000Y-2540000D03*
D16*
X333692000Y0D03*
X323532000Y0D03*
D17*
X328612000Y0D03*
D13*
X287862000Y-100075000D03*
X293162000Y-100075000D03*
D14*
X290512000Y-101725000D03*
X290512000Y-98425000D03*
D15*
X287972000Y-109855000D03*
X294322000Y-107315000D03*
D16*
X295592000Y-104775000D03*
X285432000Y-104775000D03*
D17*
X290512000Y-104775000D03*
D13*
X306912000Y-100075000D03*
X312212000Y-100075000D03*
D14*
X309562000Y-101725000D03*
X309562000Y-98425000D03*
D15*
X307022000Y-109855000D03*
X313372000Y-107315000D03*
D16*
X314642000Y-104775000D03*
X304482000Y-104775000D03*
D17*
X309562000Y-104775000D03*
D13*
X287862000Y-42925000D03*
X293162000Y-42925000D03*
D14*
X290512000Y-44575000D03*
X290512000Y-41275000D03*
D15*
X287972000Y-52705000D03*
X294322000Y-50165000D03*
D16*
X295592000Y-47625000D03*
X285432000Y-47625000D03*
D17*
X290512000Y-47625000D03*
D13*
X287862000Y-23875000D03*
X293162000Y-23875000D03*
D14*
X290512000Y-25525000D03*
X290512000Y-22225000D03*
D15*
X287972000Y-33655000D03*
X294322000Y-31115000D03*
D16*
X295592000Y-28575000D03*
X285432000Y-28575000D03*
D17*
X290512000Y-28575000D03*
D13*
X306912000Y4700000D03*
X312212000Y4700000D03*
D14*
X309562000Y3050000D03*
X309562000Y6350000D03*
D15*
X307022000Y-5080000D03*
X313372000Y-2540000D03*
D16*
X314642000Y0D03*
X304482000Y0D03*
D17*
X309562000Y0D03*
D14*
X250032000Y-82675000D03*
D13*
X252682000Y-81025000D03*
X247382000Y-81025000D03*
D14*
X250032000Y-79375000D03*
D21*
X261970000Y-78740000D03*
D17*
X261970000Y-93980000D03*
X238094000Y-93980000D03*
D21*
X238094000Y-78740000D03*
D17*
X250032000Y-85725000D03*
D16*
X244952000Y-85725000D03*
X255112000Y-85725000D03*
D15*
X253842000Y-88265000D03*
X247492000Y-90805000D03*
D14*
X254868000Y-63625000D03*
D13*
X257518000Y-61975000D03*
X252218000Y-61975000D03*
D14*
X254868000Y-60325000D03*
D17*
X242930000Y-74930000D03*
D21*
X242930000Y-59690000D03*
X266806000Y-59690000D03*
D17*
X266806000Y-74930000D03*
X254868000Y-66675000D03*
D16*
X249788000Y-66675000D03*
X259948000Y-66675000D03*
D15*
X258678000Y-69215000D03*
X252328000Y-71755000D03*
D14*
X261938000Y-44575000D03*
D13*
X264588000Y-42925000D03*
X259288000Y-42925000D03*
D14*
X261938000Y-41275000D03*
D17*
X261938000Y-47625000D03*
D16*
X256858000Y-47625000D03*
X267018000Y-47625000D03*
D15*
X265748000Y-50165000D03*
X259398000Y-52705000D03*
D13*
X287862000Y4700000D03*
X293162000Y4700000D03*
D14*
X290512000Y3050000D03*
X290512000Y6350000D03*
D15*
X287972000Y-5080000D03*
X294322000Y-2540000D03*
D16*
X295592000Y0D03*
X285432000Y0D03*
D17*
X290512000Y0D03*
D14*
X238125000Y-44575000D03*
D13*
X240775000Y-42925000D03*
X235475000Y-42925000D03*
D14*
X238125000Y-41275000D03*
D17*
X238125000Y-47625000D03*
D16*
X233045000Y-47625000D03*
X243205000Y-47625000D03*
D15*
X241935000Y-50165000D03*
X235585000Y-52705000D03*
D13*
X225950000Y-23875000D03*
X231250000Y-23875000D03*
D14*
X228600000Y-25525000D03*
X228600000Y-22225000D03*
D15*
X226060000Y-33655000D03*
X232410000Y-31115000D03*
D16*
X233680000Y-28575000D03*
X223520000Y-28575000D03*
D17*
X228600000Y-28575000D03*
D13*
X264050000Y4700000D03*
X269350000Y4700000D03*
D14*
X266700000Y3050000D03*
X266700000Y6350000D03*
D15*
X264160000Y-5080000D03*
X270510000Y-2540000D03*
D16*
X271780000Y0D03*
X261620000Y0D03*
D17*
X266700000Y0D03*
D13*
X221188000Y-61975000D03*
X226488000Y-61975000D03*
D14*
X223838000Y-63625000D03*
X223838000Y-60325000D03*
D15*
X221298000Y-71755000D03*
X227648000Y-69215000D03*
D16*
X228918000Y-66675000D03*
X218758000Y-66675000D03*
D17*
X223838000Y-66675000D03*
D13*
X216425000Y-42925000D03*
X221725000Y-42925000D03*
D14*
X219075000Y-44575000D03*
X219075000Y-41275000D03*
D15*
X216535000Y-52705000D03*
X222885000Y-50165000D03*
D16*
X224155000Y-47625000D03*
X213995000Y-47625000D03*
D17*
X219075000Y-47625000D03*
D13*
X206900000Y-23875000D03*
X212200000Y-23875000D03*
D14*
X209550000Y-25525000D03*
X209550000Y-22225000D03*
D15*
X207010000Y-33655000D03*
X213360000Y-31115000D03*
D16*
X214630000Y-28575000D03*
X204470000Y-28575000D03*
D17*
X209550000Y-28575000D03*
D13*
X245000000Y4700000D03*
X250300000Y4700000D03*
D14*
X247650000Y3050000D03*
X247650000Y6350000D03*
D15*
X245110000Y-5080000D03*
X251460000Y-2540000D03*
D16*
X252730000Y0D03*
X242570000Y0D03*
D17*
X247650000Y0D03*
D14*
X216694000Y-101725000D03*
D13*
X219344000Y-100075000D03*
X214044000Y-100075000D03*
D14*
X216694000Y-98425000D03*
D17*
X216694000Y-104775000D03*
D16*
X211614000Y-104775000D03*
X221774000Y-104775000D03*
D15*
X220504000Y-107315000D03*
X214154000Y-109855000D03*
D13*
X211662000Y-81025000D03*
X216962000Y-81025000D03*
D14*
X214312000Y-82675000D03*
X214312000Y-79375000D03*
D15*
X211772000Y-90805000D03*
X218122000Y-88265000D03*
D16*
X219392000Y-85725000D03*
X209232000Y-85725000D03*
D17*
X214312000Y-85725000D03*
D13*
X202138000Y-61975000D03*
X207438000Y-61975000D03*
D14*
X204788000Y-63625000D03*
X204788000Y-60325000D03*
D15*
X202248000Y-71755000D03*
X208598000Y-69215000D03*
D16*
X209868000Y-66675000D03*
X199708000Y-66675000D03*
D17*
X204788000Y-66675000D03*
D13*
X197375000Y-42925000D03*
X202675000Y-42925000D03*
D14*
X200025000Y-44575000D03*
X200025000Y-41275000D03*
D15*
X197485000Y-52705000D03*
X203835000Y-50165000D03*
D16*
X205105000Y-47625000D03*
X194945000Y-47625000D03*
D17*
X200025000Y-47625000D03*
D13*
X187850000Y-23875000D03*
X193150000Y-23875000D03*
D14*
X190500000Y-25525000D03*
X190500000Y-22225000D03*
D15*
X187960000Y-33655000D03*
X194310000Y-31115000D03*
D16*
X195580000Y-28575000D03*
X185420000Y-28575000D03*
D17*
X190500000Y-28575000D03*
D13*
X225950000Y4700000D03*
X231250000Y4700000D03*
D14*
X228600000Y3050000D03*
X228600000Y6350000D03*
D15*
X226060000Y-5080000D03*
X232410000Y-2540000D03*
D16*
X233680000Y0D03*
X223520000Y0D03*
D17*
X228600000Y0D03*
D14*
X192881000Y-101725000D03*
D13*
X195531000Y-100075000D03*
X190231000Y-100075000D03*
D14*
X192881000Y-98425000D03*
D17*
X192881000Y-104775000D03*
D16*
X187801000Y-104775000D03*
X197961000Y-104775000D03*
D15*
X196691000Y-107315000D03*
X190341000Y-109855000D03*
D13*
X192612000Y-81025000D03*
X197912000Y-81025000D03*
D14*
X195262000Y-82675000D03*
X195262000Y-79375000D03*
D15*
X192722000Y-90805000D03*
X199072000Y-88265000D03*
D16*
X200342000Y-85725000D03*
X190182000Y-85725000D03*
D17*
X195262000Y-85725000D03*
D13*
X183088000Y-61975000D03*
X188388000Y-61975000D03*
D14*
X185738000Y-63625000D03*
X185738000Y-60325000D03*
D15*
X183198000Y-71755000D03*
X189548000Y-69215000D03*
D16*
X190818000Y-66675000D03*
X180658000Y-66675000D03*
D17*
X185738000Y-66675000D03*
D13*
X178325000Y-42925000D03*
X183625000Y-42925000D03*
D14*
X180975000Y-44575000D03*
X180975000Y-41275000D03*
D15*
X178435000Y-52705000D03*
X184785000Y-50165000D03*
D16*
X186055000Y-47625000D03*
X175895000Y-47625000D03*
D17*
X180975000Y-47625000D03*
D13*
X168800000Y-23875000D03*
X174100000Y-23875000D03*
D14*
X171450000Y-25525000D03*
X171450000Y-22225000D03*
D15*
X168910000Y-33655000D03*
X175260000Y-31115000D03*
D16*
X176530000Y-28575000D03*
X166370000Y-28575000D03*
D17*
X171450000Y-28575000D03*
D13*
X206900000Y4700000D03*
X212200000Y4700000D03*
D14*
X209550000Y3050000D03*
X209550000Y6350000D03*
D15*
X207010000Y-5080000D03*
X213360000Y-2540000D03*
D16*
X214630000Y0D03*
X204470000Y0D03*
D17*
X209550000Y0D03*
D13*
X173562000Y-81025000D03*
X178862000Y-81025000D03*
D14*
X176212000Y-82675000D03*
X176212000Y-79375000D03*
D15*
X173672000Y-90805000D03*
X180022000Y-88265000D03*
D16*
X181292000Y-85725000D03*
X171132000Y-85725000D03*
D17*
X176212000Y-85725000D03*
D13*
X164038000Y-61975000D03*
X169338000Y-61975000D03*
D14*
X166688000Y-63625000D03*
X166688000Y-60325000D03*
D15*
X164148000Y-71755000D03*
X170498000Y-69215000D03*
D16*
X171768000Y-66675000D03*
X161608000Y-66675000D03*
D17*
X166688000Y-66675000D03*
D13*
X159275000Y-42925000D03*
X164575000Y-42925000D03*
D14*
X161925000Y-44575000D03*
X161925000Y-41275000D03*
D15*
X159385000Y-52705000D03*
X165735000Y-50165000D03*
D16*
X167005000Y-47625000D03*
X156845000Y-47625000D03*
D17*
X161925000Y-47625000D03*
D13*
X149750000Y-23875000D03*
X155050000Y-23875000D03*
D14*
X152400000Y-25525000D03*
X152400000Y-22225000D03*
D15*
X149860000Y-33655000D03*
X156210000Y-31115000D03*
D16*
X157480000Y-28575000D03*
X147320000Y-28575000D03*
D17*
X152400000Y-28575000D03*
D13*
X178325000Y4700000D03*
X183625000Y4700000D03*
D14*
X180975000Y3050000D03*
X180975000Y6350000D03*
D15*
X178435000Y-5080000D03*
X184785000Y-2540000D03*
D16*
X186055000Y0D03*
X175895000Y0D03*
D17*
X180975000Y0D03*
D13*
X154512000Y-81025000D03*
X159812000Y-81025000D03*
D14*
X157162000Y-82675000D03*
X157162000Y-79375000D03*
D15*
X154622000Y-90805000D03*
X160972000Y-88265000D03*
D16*
X162242000Y-85725000D03*
X152082000Y-85725000D03*
D17*
X157162000Y-85725000D03*
D13*
X144988000Y-61975000D03*
X150288000Y-61975000D03*
D14*
X147638000Y-63625000D03*
X147638000Y-60325000D03*
D15*
X145098000Y-71755000D03*
X151448000Y-69215000D03*
D16*
X152718000Y-66675000D03*
X142558000Y-66675000D03*
D17*
X147638000Y-66675000D03*
D13*
X140225000Y-42925000D03*
X145525000Y-42925000D03*
D14*
X142875000Y-44575000D03*
X142875000Y-41275000D03*
D15*
X140335000Y-52705000D03*
X146685000Y-50165000D03*
D16*
X147955000Y-47625000D03*
X137795000Y-47625000D03*
D17*
X142875000Y-47625000D03*
D13*
X130700000Y-23875000D03*
X136000000Y-23875000D03*
D14*
X133350000Y-25525000D03*
X133350000Y-22225000D03*
D15*
X130810000Y-33655000D03*
X137160000Y-31115000D03*
D16*
X138430000Y-28575000D03*
X128270000Y-28575000D03*
D17*
X133350000Y-28575000D03*
D13*
X159275000Y4700000D03*
X164575000Y4700000D03*
D14*
X161925000Y3050000D03*
X161925000Y6350000D03*
D15*
X159385000Y-5080000D03*
X165735000Y-2540000D03*
D16*
X167005000Y0D03*
X156845000Y0D03*
D17*
X161925000Y0D03*
D13*
X135462000Y-81025000D03*
X140762000Y-81025000D03*
D14*
X138112000Y-82675000D03*
X138112000Y-79375000D03*
D15*
X135572000Y-90805000D03*
X141922000Y-88265000D03*
D16*
X143192000Y-85725000D03*
X133032000Y-85725000D03*
D17*
X138112000Y-85725000D03*
D13*
X125938000Y-61975000D03*
X131238000Y-61975000D03*
D14*
X128588000Y-63625000D03*
X128588000Y-60325000D03*
D15*
X126048000Y-71755000D03*
X132398000Y-69215000D03*
D16*
X133668000Y-66675000D03*
X123508000Y-66675000D03*
D17*
X128588000Y-66675000D03*
D13*
X121175000Y-42925000D03*
X126475000Y-42925000D03*
D14*
X123825000Y-44575000D03*
X123825000Y-41275000D03*
D15*
X121285000Y-52705000D03*
X127635000Y-50165000D03*
D16*
X128905000Y-47625000D03*
X118745000Y-47625000D03*
D17*
X123825000Y-47625000D03*
D13*
X111650000Y-23875000D03*
X116950000Y-23875000D03*
D14*
X114300000Y-25525000D03*
X114300000Y-22225000D03*
D15*
X111760000Y-33655000D03*
X118110000Y-31115000D03*
D16*
X119380000Y-28575000D03*
X109220000Y-28575000D03*
D17*
X114300000Y-28575000D03*
D13*
X140225000Y4700000D03*
X145525000Y4700000D03*
D14*
X142875000Y3050000D03*
X142875000Y6350000D03*
D15*
X140335000Y-5080000D03*
X146685000Y-2540000D03*
D16*
X147955000Y0D03*
X137795000Y0D03*
D17*
X142875000Y0D03*
D14*
X121444000Y-101725000D03*
D13*
X124094000Y-100075000D03*
X118794000Y-100075000D03*
D14*
X121444000Y-98425000D03*
D17*
X71406000Y-113030000D03*
D21*
X71406000Y-97790000D03*
X171482000Y-97790000D03*
D17*
X171482000Y-113030000D03*
X121444000Y-104775000D03*
D16*
X116364000Y-104775000D03*
X126524000Y-104775000D03*
D15*
X125254000Y-107315000D03*
X118904000Y-109855000D03*
D13*
X116412000Y-81025000D03*
X121712000Y-81025000D03*
D14*
X119062000Y-82675000D03*
X119062000Y-79375000D03*
D15*
X116522000Y-90805000D03*
X122872000Y-88265000D03*
D16*
X124142000Y-85725000D03*
X113982000Y-85725000D03*
D17*
X119062000Y-85725000D03*
D13*
X106888000Y-61975000D03*
X112188000Y-61975000D03*
D14*
X109538000Y-63625000D03*
X109538000Y-60325000D03*
D15*
X106998000Y-71755000D03*
X113348000Y-69215000D03*
D16*
X114618000Y-66675000D03*
X104458000Y-66675000D03*
D17*
X109538000Y-66675000D03*
D13*
X102125000Y-42925000D03*
X107425000Y-42925000D03*
D14*
X104775000Y-44575000D03*
X104775000Y-41275000D03*
D15*
X102235000Y-52705000D03*
X108585000Y-50165000D03*
D16*
X109855000Y-47625000D03*
X99695000Y-47625000D03*
D17*
X104775000Y-47625000D03*
D13*
X92600000Y-23875000D03*
X97900000Y-23875000D03*
D14*
X95250000Y-25525000D03*
X95250000Y-22225000D03*
D15*
X92710000Y-33655000D03*
X99060000Y-31115000D03*
D16*
X100330000Y-28575000D03*
X90170000Y-28575000D03*
D17*
X95250000Y-28575000D03*
D13*
X121175000Y4700000D03*
X126475000Y4700000D03*
D14*
X123825000Y3050000D03*
X123825000Y6350000D03*
D15*
X121285000Y-5080000D03*
X127635000Y-2540000D03*
D16*
X128905000Y0D03*
X118745000Y0D03*
D17*
X123825000Y0D03*
D13*
X97362000Y-81025000D03*
X102662000Y-81025000D03*
D14*
X100012000Y-82675000D03*
X100012000Y-79375000D03*
D15*
X97472000Y-90805000D03*
X103822000Y-88265000D03*
D16*
X105092000Y-85725000D03*
X94932000Y-85725000D03*
D17*
X100012000Y-85725000D03*
D13*
X87837500Y-61975000D03*
X93137500Y-61975000D03*
D14*
X90487500Y-63625000D03*
X90487500Y-60325000D03*
D15*
X87947500Y-71755000D03*
X94297500Y-69215000D03*
D16*
X95567500Y-66675000D03*
X85407500Y-66675000D03*
D17*
X90487500Y-66675000D03*
D13*
X83075000Y-42925000D03*
X88375000Y-42925000D03*
D14*
X85725000Y-44575000D03*
X85725000Y-41275000D03*
D15*
X83185000Y-52705000D03*
X89535000Y-50165000D03*
D16*
X90805000Y-47625000D03*
X80645000Y-47625000D03*
D17*
X85725000Y-47625000D03*
D13*
X73550000Y-23875000D03*
X78850000Y-23875000D03*
D14*
X76200000Y-25525000D03*
X76200000Y-22225000D03*
D15*
X73660000Y-33655000D03*
X80010000Y-31115000D03*
D16*
X81280000Y-28575000D03*
X71120000Y-28575000D03*
D17*
X76200000Y-28575000D03*
D13*
X92600000Y4700000D03*
X97900000Y4700000D03*
D14*
X95250000Y3050000D03*
X95250000Y6350000D03*
D15*
X92710000Y-5080000D03*
X99060000Y-2540000D03*
D16*
X100330000Y0D03*
X90170000Y0D03*
D17*
X95250000Y0D03*
D13*
X78312500Y-81025000D03*
X83612500Y-81025000D03*
D14*
X80962500Y-82675000D03*
X80962500Y-79375000D03*
D15*
X78422500Y-90805000D03*
X84772500Y-88265000D03*
D16*
X86042500Y-85725000D03*
X75882500Y-85725000D03*
D17*
X80962500Y-85725000D03*
D13*
X68787500Y-61975000D03*
X74087500Y-61975000D03*
D14*
X71437500Y-63625000D03*
X71437500Y-60325000D03*
D15*
X68897500Y-71755000D03*
X75247500Y-69215000D03*
D16*
X76517500Y-66675000D03*
X66357500Y-66675000D03*
D17*
X71437500Y-66675000D03*
D13*
X64025000Y-42925000D03*
X69325000Y-42925000D03*
D14*
X66675000Y-44575000D03*
X66675000Y-41275000D03*
D15*
X64135000Y-52705000D03*
X70485000Y-50165000D03*
D16*
X71755000Y-47625000D03*
X61595000Y-47625000D03*
D17*
X66675000Y-47625000D03*
D13*
X54500000Y-23875000D03*
X59800000Y-23875000D03*
D14*
X57150000Y-25525000D03*
X57150000Y-22225000D03*
D15*
X54610000Y-33655000D03*
X60960000Y-31115000D03*
D16*
X62230000Y-28575000D03*
X52070000Y-28575000D03*
D17*
X57150000Y-28575000D03*
D13*
X73550000Y4700000D03*
X78850000Y4700000D03*
D14*
X76200000Y3050000D03*
X76200000Y6350000D03*
D15*
X73660000Y-5080000D03*
X80010000Y-2540000D03*
D16*
X81280000Y0D03*
X71120000Y0D03*
D17*
X76200000Y0D03*
D14*
X50006000Y-101725000D03*
D13*
X52656000Y-100075000D03*
X47356000Y-100075000D03*
D14*
X50006000Y-98425000D03*
D17*
X50006000Y-104775000D03*
D16*
X44926000Y-104775000D03*
X55086000Y-104775000D03*
D15*
X53816000Y-107315000D03*
X47466000Y-109855000D03*
D13*
X59262500Y-81025000D03*
X64562500Y-81025000D03*
D14*
X61912500Y-82675000D03*
X61912500Y-79375000D03*
D15*
X59372500Y-90805000D03*
X65722500Y-88265000D03*
D16*
X66992500Y-85725000D03*
X56832500Y-85725000D03*
D17*
X61912500Y-85725000D03*
D13*
X49737500Y-61975000D03*
X55037500Y-61975000D03*
D14*
X52387500Y-63625000D03*
X52387500Y-60325000D03*
D15*
X49847500Y-71755000D03*
X56197500Y-69215000D03*
D16*
X57467500Y-66675000D03*
X47307500Y-66675000D03*
D17*
X52387500Y-66675000D03*
D13*
X44975000Y-42925000D03*
X50275000Y-42925000D03*
D14*
X47625000Y-44575000D03*
X47625000Y-41275000D03*
D15*
X45085000Y-52705000D03*
X51435000Y-50165000D03*
D16*
X52705000Y-47625000D03*
X42545000Y-47625000D03*
D17*
X47625000Y-47625000D03*
D13*
X35450000Y-23875000D03*
X40750000Y-23875000D03*
D14*
X38100000Y-25525000D03*
X38100000Y-22225000D03*
D15*
X35560000Y-33655000D03*
X41910000Y-31115000D03*
D16*
X43180000Y-28575000D03*
X33020000Y-28575000D03*
D17*
X38100000Y-28575000D03*
D13*
X54500000Y4700000D03*
X59800000Y4700000D03*
D14*
X57150000Y3050000D03*
X57150000Y6350000D03*
D15*
X54610000Y-5080000D03*
X60960000Y-2540000D03*
D16*
X62230000Y0D03*
X52070000Y0D03*
D17*
X57150000Y0D03*
D14*
X26193500Y-101725000D03*
D13*
X28843500Y-100075000D03*
X23543500Y-100075000D03*
D14*
X26193500Y-98425000D03*
D17*
X26193500Y-104775000D03*
D16*
X21113500Y-104775000D03*
X31273500Y-104775000D03*
D15*
X30003500Y-107315000D03*
X23653500Y-109855000D03*
D13*
X40212500Y-81025000D03*
X45512500Y-81025000D03*
D14*
X42862500Y-82675000D03*
X42862500Y-79375000D03*
D15*
X40322500Y-90805000D03*
X46672500Y-88265000D03*
D16*
X47942500Y-85725000D03*
X37782500Y-85725000D03*
D17*
X42862500Y-85725000D03*
D13*
X30687500Y-61975000D03*
X35987500Y-61975000D03*
D14*
X33337500Y-63625000D03*
X33337500Y-60325000D03*
D15*
X30797500Y-71755000D03*
X37147500Y-69215000D03*
D16*
X38417500Y-66675000D03*
X28257500Y-66675000D03*
D17*
X33337500Y-66675000D03*
D13*
X25925000Y-42925000D03*
X31225000Y-42925000D03*
D14*
X28575000Y-44575000D03*
X28575000Y-41275000D03*
D15*
X26035000Y-52705000D03*
X32385000Y-50165000D03*
D16*
X33655000Y-47625000D03*
X23495000Y-47625000D03*
D17*
X28575000Y-47625000D03*
D13*
X16400000Y-23875000D03*
X21700000Y-23875000D03*
D14*
X19050000Y-25525000D03*
X19050000Y-22225000D03*
D15*
X16510000Y-33655000D03*
X22860000Y-31115000D03*
D16*
X24130000Y-28575000D03*
X13970000Y-28575000D03*
D17*
X19050000Y-28575000D03*
D13*
X35450000Y4700000D03*
X40750000Y4700000D03*
D14*
X38100000Y3050000D03*
X38100000Y6350000D03*
D15*
X35560000Y-5080000D03*
X41910000Y-2540000D03*
D16*
X43180000Y0D03*
X33020000Y0D03*
D17*
X38100000Y0D03*
D14*
X2381000Y-101725000D03*
D13*
X5031000Y-100075000D03*
X-269000Y-100075000D03*
D14*
X2381000Y-98425000D03*
D17*
X2381000Y-104775000D03*
D16*
X-2699000Y-104775000D03*
X7461000Y-104775000D03*
D15*
X6191000Y-107315000D03*
X-159000Y-109855000D03*
D14*
X11980600Y-82675000D03*
D13*
X14630600Y-81025000D03*
X9330600Y-81025000D03*
D14*
X11980600Y-79375000D03*
D17*
X42600Y-93980000D03*
D21*
X42600Y-78740000D03*
X23918600Y-78740000D03*
D17*
X23918600Y-93980000D03*
X11980600Y-85725000D03*
D16*
X6900600Y-85725000D03*
X17060600Y-85725000D03*
D15*
X15790600Y-88265000D03*
X9440600Y-90805000D03*
D14*
X7144000Y-63625000D03*
D13*
X9794000Y-61975000D03*
X4494000Y-61975000D03*
D14*
X7144000Y-60325000D03*
D17*
X7144000Y-66675000D03*
D16*
X2064000Y-66675000D03*
X12224000Y-66675000D03*
D15*
X10954000Y-69215000D03*
X4604000Y-71755000D03*
D14*
X4763000Y-44575000D03*
D13*
X7413000Y-42925000D03*
X2113000Y-42925000D03*
D14*
X4763000Y-41275000D03*
D17*
X4763000Y-47625000D03*
D16*
X-317000Y-47625000D03*
X9843000Y-47625000D03*
D15*
X8573000Y-50165000D03*
X2223000Y-52705000D03*
D13*
X-2650000Y-23875000D03*
X2650000Y-23875000D03*
D14*
X0Y-25525000D03*
X0Y-22225000D03*
D15*
X-2540000Y-33655000D03*
X3810000Y-31115000D03*
D16*
X5080000Y-28575000D03*
X-5080000Y-28575000D03*
D17*
X0Y-28575000D03*
D24*
X381000000Y-8255000D03*
X381000000Y-5715000D03*
D25*
X381000000Y-3175000D03*
D13*
X349775000Y-23875000D03*
X355075000Y-23875000D03*
D14*
X352425000Y-25525000D03*
X352425000Y-22225000D03*
D15*
X349885000Y-33655000D03*
X356235000Y-31115000D03*
D16*
X357505000Y-28575000D03*
X347345000Y-28575000D03*
D17*
X352425000Y-28575000D03*
D13*
X368825000Y-23875000D03*
X374125000Y-23875000D03*
D14*
X371475000Y-25525000D03*
X371475000Y-22225000D03*
D15*
X368935000Y-33655000D03*
X375285000Y-31115000D03*
D16*
X376555000Y-28575000D03*
X366395000Y-28575000D03*
D17*
X371475000Y-28575000D03*
D13*
X387875000Y-42925000D03*
X393175000Y-42925000D03*
D14*
X390525000Y-44575000D03*
X390525000Y-41275000D03*
D15*
X387985000Y-52705000D03*
X394335000Y-50165000D03*
D16*
X395605000Y-47625000D03*
X385445000Y-47625000D03*
D17*
X390525000Y-47625000D03*
D14*
X73818500Y-101725000D03*
D13*
X76468500Y-100075000D03*
X71168500Y-100075000D03*
D14*
X73818500Y-98425000D03*
D17*
X73818500Y-104775000D03*
D16*
X68738500Y-104775000D03*
X78898500Y-104775000D03*
D15*
X77628500Y-107315000D03*
X71278500Y-109855000D03*
D14*
X145256000Y-101725000D03*
D13*
X147906000Y-100075000D03*
X142606000Y-100075000D03*
D14*
X145256000Y-98425000D03*
D17*
X145256000Y-104775000D03*
D16*
X140176000Y-104775000D03*
X150336000Y-104775000D03*
D15*
X149066000Y-107315000D03*
X142716000Y-109855000D03*
D13*
X368825000Y-100075000D03*
X374125000Y-100075000D03*
D14*
X371475000Y-101725000D03*
X371475000Y-98425000D03*
D15*
X368935000Y-109855000D03*
X375285000Y-107315000D03*
D16*
X376555000Y-104775000D03*
X366395000Y-104775000D03*
D17*
X371475000Y-104775000D03*
D13*
X406925000Y-61975000D03*
X412225000Y-61975000D03*
D14*
X409575000Y-63625000D03*
X409575000Y-60325000D03*
D15*
X407035000Y-71755000D03*
X413385000Y-69215000D03*
D16*
X414655000Y-66675000D03*
X404495000Y-66675000D03*
D17*
X409575000Y-66675000D03*
D14*
X97631000Y-101725000D03*
D13*
X100281000Y-100075000D03*
X94981000Y-100075000D03*
D14*
X97631000Y-98425000D03*
D17*
X97631000Y-104775000D03*
D16*
X92551000Y-104775000D03*
X102711000Y-104775000D03*
D15*
X101441000Y-107315000D03*
X95091000Y-109855000D03*
D13*
X406925000Y-100075000D03*
X412225000Y-100075000D03*
D14*
X409575000Y-101725000D03*
X409575000Y-98425000D03*
D15*
X407035000Y-109855000D03*
X413385000Y-107315000D03*
D16*
X414655000Y-104775000D03*
X404495000Y-104775000D03*
D17*
X409575000Y-104775000D03*
D13*
X240238000Y-61975000D03*
X245538000Y-61975000D03*
D14*
X242888000Y-63625000D03*
X242888000Y-60325000D03*
D15*
X240348000Y-71755000D03*
X246698000Y-69215000D03*
D16*
X247968000Y-66675000D03*
X237808000Y-66675000D03*
D17*
X242888000Y-66675000D03*
D13*
X237856000Y-81025000D03*
X243156000Y-81025000D03*
D14*
X240506000Y-82675000D03*
X240506000Y-79375000D03*
D15*
X237966000Y-90805000D03*
X244316000Y-88265000D03*
D16*
X245586000Y-85725000D03*
X235426000Y-85725000D03*
D17*
X240506000Y-85725000D03*
D13*
X230712000Y-81025000D03*
X236012000Y-81025000D03*
D14*
X233362000Y-82675000D03*
X233362000Y-79375000D03*
D15*
X230822000Y-90805000D03*
X237172000Y-88265000D03*
D16*
X238442000Y-85725000D03*
X228282000Y-85725000D03*
D17*
X233362000Y-85725000D03*
D13*
X264050000Y-81025000D03*
X269350000Y-81025000D03*
D14*
X266700000Y-82675000D03*
X266700000Y-79375000D03*
D15*
X264160000Y-90805000D03*
X270510000Y-88265000D03*
D16*
X271780000Y-85725000D03*
X261620000Y-85725000D03*
D17*
X266700000Y-85725000D03*
D13*
X256906000Y-81025000D03*
X262206000Y-81025000D03*
D14*
X259556000Y-82675000D03*
X259556000Y-79375000D03*
D15*
X257016000Y-90805000D03*
X263366000Y-88265000D03*
D16*
X264636000Y-85725000D03*
X254476000Y-85725000D03*
D17*
X259556000Y-85725000D03*
D13*
X349775000Y-100075000D03*
X355075000Y-100075000D03*
D14*
X352425000Y-101725000D03*
X352425000Y-98425000D03*
D15*
X349885000Y-109855000D03*
X356235000Y-107315000D03*
D16*
X357505000Y-104775000D03*
X347345000Y-104775000D03*
D17*
X352425000Y-104775000D03*
M02*
