G04 #@! TF.GenerationSoftware,KiCad,Pcbnew,(5.1.5)-3*
G04 #@! TF.CreationDate,2021-02-16T22:22:21+09:00*
G04 #@! TF.ProjectId,topplate,746f7070-6c61-4746-952e-6b696361645f,rev?*
G04 #@! TF.SameCoordinates,Original*
G04 #@! TF.FileFunction,Soldermask,Top*
G04 #@! TF.FilePolarity,Negative*
%FSLAX46Y46*%
G04 Gerber Fmt 4.6, Leading zero omitted, Abs format (unit mm)*
G04 Created by KiCad (PCBNEW (5.1.5)-3) date 2021-02-16 22:22:21*
%MOMM*%
%LPD*%
G04 APERTURE LIST*
%ADD10C,0.010000*%
%ADD11C,0.100000*%
G04 APERTURE END LIST*
D10*
X273715510Y-78741000D02*
X226378510Y-78741000D01*
X263596510Y-93491400D02*
X263596510Y-92740400D01*
X273715510Y-92740400D02*
X273715510Y-78741000D01*
X260296510Y-92740400D02*
X260296510Y-93491400D01*
X263596510Y-92740400D02*
X273715510Y-92740400D01*
X260296510Y-93491400D02*
X263596510Y-93491400D01*
X239796510Y-92740400D02*
X260296510Y-92740400D01*
X239796510Y-93491400D02*
X239796510Y-92740400D01*
X236497510Y-93491400D02*
X239796510Y-93491400D01*
X236497510Y-92740400D02*
X236497510Y-93491400D01*
X226378510Y-92740400D02*
X236497510Y-92740400D01*
X226378510Y-78741000D02*
X226378510Y-92740400D01*
X271334510Y-73690300D02*
X271334510Y-40641000D01*
X265058510Y-73690300D02*
X265058510Y-74441400D01*
X268359510Y-73690300D02*
X271334510Y-73690300D01*
X271334510Y-40641000D02*
X254953510Y-40641000D01*
X244557510Y-73690300D02*
X265058510Y-73690300D01*
X268359510Y-74441400D02*
X268359510Y-73690300D01*
X265058510Y-74441400D02*
X268359510Y-74441400D01*
X257333510Y-54640300D02*
X257333510Y-59691000D01*
X235903510Y-73690300D02*
X241258510Y-73690300D01*
X257333510Y-59691000D02*
X235903510Y-59691000D01*
X244557510Y-74441400D02*
X244557510Y-73690300D01*
X241258510Y-74441400D02*
X244557510Y-74441400D01*
X235903510Y-59691000D02*
X235903510Y-73690300D01*
X254953510Y-54640300D02*
X257333510Y-54640300D01*
X254953510Y-40641000D02*
X254953510Y-54640300D01*
X241258510Y-73690300D02*
X241258510Y-74441400D01*
X402592510Y-81716300D02*
X402592510Y-78741000D01*
X401622510Y-46816100D02*
X402592510Y-46816100D01*
X401622510Y-43616400D02*
X401622510Y-46816100D01*
X402592510Y-43616400D02*
X401622510Y-43616400D01*
X402592510Y-40641000D02*
X402592510Y-43616400D01*
X345442510Y-97789800D02*
X345442510Y-111691420D01*
X114458510Y-97789800D02*
X114458510Y-102491600D01*
X348416510Y-111691420D02*
X348416510Y-112661560D01*
X345442510Y-111691420D02*
X348416510Y-111691420D01*
X80733910Y-97789800D02*
X66833710Y-97789800D01*
X90647510Y-102491600D02*
X80733910Y-102491600D01*
X138272510Y-102491600D02*
X128358510Y-102491600D01*
X104547510Y-102491600D02*
X104547510Y-97789800D01*
X114458510Y-102491600D02*
X104547510Y-102491600D01*
X90647510Y-97789800D02*
X90647510Y-102491600D01*
X128358510Y-102491600D02*
X128358510Y-97789800D01*
X104547510Y-97789800D02*
X90647510Y-97789800D01*
X128358510Y-97789800D02*
X114458510Y-97789800D01*
X80733910Y-102491600D02*
X80733910Y-97789800D01*
X348416510Y-112661560D02*
X351616510Y-112661560D01*
X173008510Y-111691420D02*
X175983510Y-111691420D01*
X169809510Y-111691420D02*
X169809510Y-112661560D01*
X138272510Y-111691420D02*
X152172510Y-111691420D01*
X128358510Y-106990920D02*
X138272510Y-106990920D01*
X173008510Y-112661560D02*
X173008510Y-111691420D01*
X175983510Y-97789800D02*
X162083510Y-97789800D01*
X152172510Y-111691420D02*
X152172510Y-106990920D01*
X175983510Y-111691420D02*
X175983510Y-97789800D01*
X162083510Y-106990920D02*
X162083510Y-111691420D01*
X114458510Y-106990920D02*
X114458510Y-111691420D01*
X138272510Y-97789800D02*
X138272510Y-102491600D01*
X169809510Y-112661560D02*
X173008510Y-112661560D01*
X114458510Y-111691420D02*
X128358510Y-111691420D01*
X152172510Y-97789800D02*
X138272510Y-97789800D01*
X152172510Y-102491600D02*
X152172510Y-97789800D01*
X162083510Y-102491600D02*
X152172510Y-102491600D01*
X162083510Y-97789800D02*
X162083510Y-102491600D01*
X162083510Y-111691420D02*
X169809510Y-111691420D01*
X152172510Y-106990920D02*
X162083510Y-106990920D01*
X104547510Y-111691420D02*
X104547510Y-106990920D01*
X104547510Y-106990920D02*
X114458510Y-106990920D01*
X128358510Y-111691420D02*
X128358510Y-106990920D01*
X138272510Y-106990920D02*
X138272510Y-111691420D01*
X66833710Y-111691420D02*
X69809010Y-111691420D01*
X80733910Y-106990920D02*
X90647510Y-106990920D01*
X80733910Y-111691420D02*
X80733910Y-106990920D01*
X66833710Y-97789800D02*
X66833710Y-111691420D01*
X69809010Y-111691420D02*
X69809010Y-112661560D01*
X90647510Y-111691420D02*
X104547510Y-111691420D01*
X73008710Y-111691420D02*
X80733910Y-111691420D01*
X69809010Y-112661560D02*
X73008710Y-112661560D01*
X73008710Y-112661560D02*
X73008710Y-111691420D01*
X90647510Y-106990920D02*
X90647510Y-111691420D01*
X364492510Y-54541500D02*
X364492510Y-40641000D01*
X359341510Y-54541500D02*
X345442510Y-54541500D01*
X345442510Y-40641000D02*
X359341510Y-40641000D01*
X321628510Y-40641000D02*
X335527510Y-40641000D01*
X378391510Y-40641000D02*
X378391510Y-54541500D01*
X335527510Y-54541500D02*
X321628510Y-54541500D01*
X397441510Y-54541500D02*
X383542510Y-54541500D01*
X383542510Y-40641000D02*
X397441510Y-40641000D01*
X345442510Y-54541500D02*
X345442510Y-40641000D01*
X302578510Y-54541500D02*
X302578510Y-40641000D01*
X297427510Y-54541500D02*
X283528510Y-54541500D01*
X316477510Y-54541500D02*
X302578510Y-54541500D01*
X302578510Y-40641000D02*
X316477510Y-40641000D01*
X359341510Y-40641000D02*
X359341510Y-54541500D01*
X316477510Y-40641000D02*
X316477510Y-54541500D01*
X283528510Y-54541500D02*
X283528510Y-40641000D01*
X335527510Y-40641000D02*
X335527510Y-54541500D01*
X321628510Y-54541500D02*
X321628510Y-40641000D01*
X397441510Y-40641000D02*
X397441510Y-54541500D01*
X383542510Y-54541500D02*
X383542510Y-40641000D01*
X378391510Y-54541500D02*
X364492510Y-54541500D01*
X364492510Y-40641000D02*
X378391510Y-40641000D01*
X116841510Y-40641000D02*
X130741510Y-40641000D01*
X59691410Y-40641000D02*
X73591510Y-40641000D01*
X-2221130Y-54541500D02*
X-2221130Y-40641000D01*
X193041510Y-40641000D02*
X206941510Y-40641000D01*
X111691510Y-54541500D02*
X97789510Y-54541500D01*
X-2221130Y-40641000D02*
X11677810Y-40641000D01*
X92641510Y-54541500D02*
X78741410Y-54541500D01*
X40641410Y-54541500D02*
X40641410Y-40641000D01*
X231141510Y-54541500D02*
X231141510Y-40641000D01*
X245040510Y-54541500D02*
X231141510Y-54541500D01*
X245040510Y-40641000D02*
X245040510Y-54541500D01*
X231141510Y-40641000D02*
X245040510Y-40641000D01*
X212091510Y-54541500D02*
X212091510Y-40641000D01*
X225991510Y-40641000D02*
X225991510Y-54541500D01*
X97789510Y-40641000D02*
X111691510Y-40641000D01*
X206941510Y-54541500D02*
X193041510Y-54541500D01*
X11677810Y-54541500D02*
X-2221130Y-54541500D01*
X187891510Y-40641000D02*
X187891510Y-54541500D01*
X173991510Y-40641000D02*
X187891510Y-40641000D01*
X154941510Y-40641000D02*
X168841510Y-40641000D01*
X130741510Y-40641000D02*
X130741510Y-54541500D01*
X135891510Y-40641000D02*
X149791510Y-40641000D01*
X59691410Y-54541500D02*
X59691410Y-40641000D01*
X116841510Y-54541500D02*
X116841510Y-40641000D01*
X111691510Y-40641000D02*
X111691510Y-54541500D01*
X21591410Y-40641000D02*
X35491510Y-40641000D01*
X11677810Y-40641000D02*
X11677810Y-54541500D01*
X149791510Y-54541500D02*
X135891510Y-54541500D01*
X78741410Y-40641000D02*
X92641510Y-40641000D01*
X54541510Y-54541500D02*
X40641410Y-54541500D01*
X40641410Y-40641000D02*
X54541510Y-40641000D01*
X154941510Y-54541500D02*
X154941510Y-40641000D01*
X135891510Y-54541500D02*
X135891510Y-40641000D01*
X97789510Y-54541500D02*
X97789510Y-40641000D01*
X149791510Y-40641000D02*
X149791510Y-54541500D01*
X206941510Y-40641000D02*
X206941510Y-54541500D01*
X21591410Y-54541500D02*
X21591410Y-40641000D01*
X416491510Y-40641000D02*
X402592510Y-40641000D01*
X212091510Y-40641000D02*
X225991510Y-40641000D01*
X168841510Y-54541500D02*
X154941510Y-54541500D01*
X168841510Y-40641000D02*
X168841510Y-54541500D01*
X187891510Y-54541500D02*
X173991510Y-54541500D01*
X225991510Y-54541500D02*
X212091510Y-54541500D01*
X130741510Y-54541500D02*
X116841510Y-54541500D01*
X35491510Y-40641000D02*
X35491510Y-54541500D01*
X193041510Y-54541500D02*
X193041510Y-40641000D01*
X173991510Y-54541500D02*
X173991510Y-40641000D01*
X73591510Y-40641000D02*
X73591510Y-54541500D01*
X54541510Y-40641000D02*
X54541510Y-54541500D01*
X73591510Y-54541500D02*
X59691410Y-54541500D01*
X35491510Y-54541500D02*
X21591410Y-54541500D01*
X297427510Y-40641000D02*
X297427510Y-54541500D01*
X283528510Y-40641000D02*
X297427510Y-40641000D01*
X92641510Y-40641000D02*
X92641510Y-54541500D01*
X78741410Y-54541500D02*
X78741410Y-40641000D01*
X364492510Y-73591500D02*
X364492510Y-59691000D01*
X416491510Y-73591500D02*
X416491510Y-40641000D01*
X378391510Y-59691000D02*
X378391510Y-73591500D01*
X211702510Y-59691000D02*
X211702510Y-73591500D01*
X230752510Y-59691000D02*
X230752510Y-73591500D01*
X159703510Y-59691000D02*
X173602510Y-59691000D01*
X364492510Y-59691000D02*
X378391510Y-59691000D01*
X359341510Y-73591500D02*
X345442510Y-73591500D01*
X173602510Y-59691000D02*
X173602510Y-73591500D01*
X159703510Y-73591500D02*
X159703510Y-59691000D01*
X402592510Y-73591500D02*
X416491510Y-73591500D01*
X402592510Y-70616200D02*
X402592510Y-73591500D01*
X197803510Y-59691000D02*
X211702510Y-59691000D01*
X397441510Y-73591500D02*
X383542510Y-73591500D01*
X378391510Y-73591500D02*
X364492510Y-73591500D01*
X192652510Y-73591500D02*
X178753510Y-73591500D01*
X216853510Y-73591500D02*
X216853510Y-59691000D01*
X345442510Y-59691000D02*
X359341510Y-59691000D01*
X401622510Y-70616200D02*
X402592510Y-70616200D01*
X401622510Y-67416500D02*
X401622510Y-70616200D01*
X402592510Y-46816100D02*
X402592510Y-67416500D01*
X397441510Y-59691000D02*
X397441510Y-73591500D01*
X383542510Y-59691000D02*
X397441510Y-59691000D01*
X178753510Y-73591500D02*
X178753510Y-59691000D01*
X230752510Y-73591500D02*
X216853510Y-73591500D01*
X197803510Y-73591500D02*
X197803510Y-59691000D01*
X173602510Y-73591500D02*
X159703510Y-73591500D01*
X383542510Y-73591500D02*
X383542510Y-59691000D01*
X345442510Y-73591500D02*
X345442510Y-59691000D01*
X359341510Y-59691000D02*
X359341510Y-73591500D01*
X216853510Y-59691000D02*
X230752510Y-59691000D01*
X211702510Y-73591500D02*
X197803510Y-73591500D01*
X178753510Y-59691000D02*
X192652510Y-59691000D01*
X402592510Y-67416500D02*
X401622510Y-67416500D01*
X192652510Y-59691000D02*
X192652510Y-73591500D01*
X154552510Y-59691000D02*
X154552510Y-73591500D01*
X135502510Y-59691000D02*
X135502510Y-73591500D01*
X83503910Y-73591500D02*
X83503910Y-59691000D01*
X78352610Y-73591500D02*
X64453910Y-73591500D01*
X154552510Y-73591500D02*
X140653510Y-73591500D01*
X40252610Y-73591500D02*
X26353910Y-73591500D01*
X140653510Y-59691000D02*
X154552510Y-59691000D01*
X83503910Y-59691000D02*
X97402510Y-59691000D01*
X121603510Y-59691000D02*
X135502510Y-59691000D01*
X102553510Y-73591500D02*
X102553510Y-59691000D01*
X116452510Y-73591500D02*
X102553510Y-73591500D01*
X45403910Y-73591500D02*
X45403910Y-59691000D01*
X102553510Y-59691000D02*
X116452510Y-59691000D01*
X14059010Y-73591500D02*
X158740Y-73591500D01*
X158740Y-73591500D02*
X158740Y-59691000D01*
X64453910Y-59691000D02*
X78352610Y-59691000D01*
X59302610Y-73591500D02*
X45403910Y-73591500D01*
X59302610Y-59691000D02*
X59302610Y-73591500D01*
X45403910Y-59691000D02*
X59302610Y-59691000D01*
X26353910Y-73591500D02*
X26353910Y-59691000D01*
X14059010Y-59691000D02*
X14059010Y-73591500D01*
X158740Y-59691000D02*
X14059010Y-59691000D01*
X64453910Y-73591500D02*
X64453910Y-59691000D01*
X116452510Y-59691000D02*
X116452510Y-73591500D01*
X121603510Y-73591500D02*
X121603510Y-59691000D01*
X135502510Y-73591500D02*
X121603510Y-73591500D01*
X97402510Y-73591500D02*
X83503910Y-73591500D01*
X26353910Y-59691000D02*
X40252610Y-59691000D01*
X97402510Y-59691000D02*
X97402510Y-73591500D01*
X78352610Y-59691000D02*
X78352610Y-73591500D01*
X40252610Y-59691000D02*
X40252610Y-73591500D01*
X140653510Y-73591500D02*
X140653510Y-59691000D01*
X383542510Y-92641400D02*
X383542510Y-78741000D01*
X383542510Y-78741000D02*
X397441510Y-78741000D01*
X345442510Y-78741000D02*
X359341510Y-78741000D01*
X359341510Y-92641400D02*
X345442510Y-92641400D01*
X364492510Y-92641400D02*
X364492510Y-78741000D01*
X202177510Y-78741000D02*
X202177510Y-92641400D01*
X378391510Y-78741000D02*
X378391510Y-92641400D01*
X207328510Y-92641400D02*
X207328510Y-78741000D01*
X221227510Y-92641400D02*
X207328510Y-92641400D01*
X302578510Y-78741000D02*
X316477510Y-78741000D01*
X397441510Y-92641400D02*
X383542510Y-92641400D01*
X221227510Y-78741000D02*
X221227510Y-92641400D01*
X397441510Y-78741000D02*
X397441510Y-92641400D01*
X359341510Y-78741000D02*
X359341510Y-92641400D01*
X207328510Y-78741000D02*
X221227510Y-78741000D01*
X378391510Y-92641400D02*
X364492510Y-92641400D01*
X188278510Y-92641400D02*
X188278510Y-78741000D01*
X364492510Y-78741000D02*
X378391510Y-78741000D01*
X345442510Y-92641400D02*
X345442510Y-78741000D01*
X316477510Y-92641400D02*
X302578510Y-92641400D01*
X302578510Y-92641400D02*
X302578510Y-78741000D01*
X316477510Y-78741000D02*
X316477510Y-92641400D01*
X188278510Y-78741000D02*
X202177510Y-78741000D01*
X202177510Y-92641400D02*
X188278510Y-92641400D01*
X150178510Y-78741000D02*
X164077510Y-78741000D01*
X131128510Y-92641400D02*
X131128510Y-78741000D01*
X112078510Y-92641400D02*
X112078510Y-78741000D01*
X125977510Y-92641400D02*
X112078510Y-92641400D01*
X68827610Y-78741000D02*
X68827610Y-92641400D01*
X125977510Y-78741000D02*
X125977510Y-92641400D01*
X73978910Y-92641400D02*
X73978910Y-78741000D01*
X68827610Y-92641400D02*
X54928910Y-92641400D01*
X35878910Y-78741000D02*
X49777610Y-78741000D01*
X169228510Y-92641400D02*
X169228510Y-78741000D01*
X164077510Y-78741000D02*
X164077510Y-92641400D01*
X73978910Y-78741000D02*
X87877610Y-78741000D01*
X183127510Y-78741000D02*
X183127510Y-92641400D01*
X150178510Y-92641400D02*
X150178510Y-78741000D01*
X54928910Y-78741000D02*
X68827610Y-78741000D01*
X183127510Y-92641400D02*
X169228510Y-92641400D01*
X54928910Y-92641400D02*
X54928910Y-78741000D01*
X106927510Y-92641400D02*
X93028510Y-92641400D01*
X169228510Y-78741000D02*
X183127510Y-78741000D01*
X164077510Y-92641400D02*
X150178510Y-92641400D01*
X145027510Y-92641400D02*
X131128510Y-92641400D01*
X49777610Y-78741000D02*
X49777610Y-92641400D01*
X145027510Y-78741000D02*
X145027510Y-92641400D01*
X131128510Y-78741000D02*
X145027510Y-78741000D01*
X106927510Y-78741000D02*
X106927510Y-92641400D01*
X93028510Y-78741000D02*
X106927510Y-78741000D01*
X87877610Y-78741000D02*
X87877610Y-92641400D01*
X87877610Y-92641400D02*
X73978910Y-92641400D01*
X112078510Y-78741000D02*
X125977510Y-78741000D01*
X35878910Y-92641400D02*
X35878910Y-78741000D01*
X93028510Y-92641400D02*
X93028510Y-78741000D01*
X49777610Y-92641400D02*
X35878910Y-92641400D01*
X27922010Y-78741000D02*
X-4177920Y-78741000D01*
X1572610Y-92641400D02*
X22172910Y-92641400D01*
X22172910Y-92641400D02*
X22172910Y-93611600D01*
X1572610Y-93611600D02*
X1572610Y-92641400D01*
X27922010Y-78741000D02*
X27922010Y-92641400D01*
X25372710Y-92641400D02*
X27922010Y-92641400D01*
X22172910Y-93611600D02*
X25372710Y-93611600D01*
X25372710Y-93611600D02*
X25372710Y-92641400D01*
X401622510Y-108716250D02*
X402592510Y-108716250D01*
X-4177920Y-78741000D02*
X-4177920Y-92641400D01*
X416491510Y-78741000D02*
X402592510Y-78741000D01*
X402592510Y-108716250D02*
X402592510Y-111691420D01*
X416491510Y-111691420D02*
X416491510Y-78741000D01*
X-1627190Y-93611600D02*
X1572610Y-93611600D01*
X-1627190Y-92641400D02*
X-1627190Y-93611600D01*
X402592510Y-111691420D02*
X416491510Y-111691420D01*
X-4177920Y-92641400D02*
X-1627190Y-92641400D01*
X401622510Y-81716300D02*
X401622510Y-84916100D01*
X316477510Y-111691420D02*
X302578510Y-111691420D01*
X397441510Y-97789800D02*
X397441510Y-111691420D01*
X383542510Y-97789800D02*
X397441510Y-97789800D01*
X302578510Y-111691420D02*
X302578510Y-97789800D01*
X397441510Y-111691420D02*
X383542510Y-111691420D01*
X401622510Y-105516420D02*
X401622510Y-108716250D01*
X321628510Y-111691420D02*
X321628510Y-97789800D01*
X402592510Y-105516420D02*
X401622510Y-105516420D01*
X402592510Y-81716300D02*
X401622510Y-81716300D01*
X401622510Y-84916100D02*
X402592510Y-84916100D01*
X335527510Y-111691420D02*
X321628510Y-111691420D01*
X335527510Y-97789800D02*
X335527510Y-111691420D01*
X383542510Y-111691420D02*
X383542510Y-97789800D01*
X402592510Y-84916100D02*
X402592510Y-105516420D01*
X321628510Y-97789800D02*
X335527510Y-97789800D01*
X178366510Y-21591000D02*
X178366510Y-35491500D01*
X202566510Y-35491500D02*
X202566510Y-21591000D01*
X235516510Y-35491500D02*
X221616510Y-35491500D01*
X183516510Y-35491500D02*
X183516510Y-21591000D01*
X164466510Y-21591000D02*
X178366510Y-21591000D01*
X216466510Y-21591000D02*
X216466510Y-35491500D01*
X297427510Y-21591000D02*
X297427510Y-35491500D01*
X283528510Y-21591000D02*
X297427510Y-21591000D01*
X302578510Y-21591000D02*
X316477510Y-21591000D01*
X283528510Y-35491500D02*
X283528510Y-21591000D01*
X216466510Y-35491500D02*
X202566510Y-35491500D01*
X183516510Y-21591000D02*
X197416510Y-21591000D01*
X297427510Y-35491500D02*
X283528510Y-35491500D01*
X221616510Y-21591000D02*
X235516510Y-21591000D01*
X197416510Y-21591000D02*
X197416510Y-35491500D01*
X145416510Y-35491500D02*
X145416510Y-21591000D01*
X221616510Y-35491500D02*
X221616510Y-21591000D01*
X335527510Y-21591000D02*
X335527510Y-35491500D01*
X321628510Y-21591000D02*
X335527510Y-21591000D01*
X302578510Y-35491500D02*
X302578510Y-21591000D01*
X316477510Y-35491500D02*
X302578510Y-35491500D01*
X316477510Y-21591000D02*
X316477510Y-35491500D01*
X164466510Y-35491500D02*
X164466510Y-21591000D01*
X178366510Y-35491500D02*
X164466510Y-35491500D01*
X159316510Y-35491500D02*
X145416510Y-35491500D01*
X235516510Y-21591000D02*
X235516510Y-35491500D01*
X197416510Y-35491500D02*
X183516510Y-35491500D01*
X202566510Y-21591000D02*
X216466510Y-21591000D01*
X31114910Y-35491500D02*
X31114910Y-21591000D01*
X126366510Y-21591000D02*
X140266510Y-21591000D01*
X121216510Y-21591000D02*
X121216510Y-35491500D01*
X107316510Y-21591000D02*
X121216510Y-21591000D01*
X25966510Y-21591000D02*
X25966510Y-35491500D01*
X83116510Y-21591000D02*
X83116510Y-35491500D01*
X246841510Y-35491500D02*
X267441511Y-35491500D01*
X140266510Y-21591000D02*
X140266510Y-35491500D01*
X88264910Y-35491500D02*
X88264910Y-21591000D01*
X107316510Y-35491500D02*
X107316510Y-21591000D01*
X273190510Y-35491500D02*
X273190510Y-21591000D01*
X243641510Y-36461700D02*
X246841510Y-36461700D01*
X12066410Y-35491500D02*
X12066410Y-21591000D01*
X241090510Y-35491500D02*
X243641510Y-35491500D01*
X241090510Y-21591000D02*
X241090510Y-28991300D01*
X6916710Y-21591000D02*
X6916710Y-35491500D01*
X121216510Y-35491500D02*
X107316510Y-35491500D01*
X69214910Y-35491500D02*
X69214910Y-21591000D01*
X64066510Y-35491500D02*
X50164910Y-35491500D01*
X267441510Y-36461700D02*
X270641510Y-36461700D01*
X102165510Y-21591000D02*
X102165510Y-35491500D01*
X-6985000Y-35491500D02*
X-6985000Y-21591000D01*
X270641510Y-36461700D02*
X270641510Y-35491500D01*
X243641510Y-35491500D02*
X243641510Y-36461700D01*
X126366510Y-35491500D02*
X126366510Y-21591000D01*
X140266510Y-35491500D02*
X126366510Y-35491500D01*
X25966510Y-35491500D02*
X12066410Y-35491500D01*
X102165510Y-35491500D02*
X88264910Y-35491500D01*
X88264910Y-21591000D02*
X102165510Y-21591000D01*
X-6985000Y-21591000D02*
X6916710Y-21591000D01*
X83116510Y-35491500D02*
X69214910Y-35491500D01*
X69214910Y-21591000D02*
X83116510Y-21591000D01*
X45016510Y-35491500D02*
X31114910Y-35491500D01*
X50164910Y-35491500D02*
X50164910Y-21591000D01*
X12066410Y-21591000D02*
X25966510Y-21591000D01*
X267441511Y-35491500D02*
X267441510Y-36461700D01*
X6916710Y-35491500D02*
X-6985000Y-35491500D01*
X273190510Y-21591000D02*
X241090510Y-21591000D01*
X241090510Y-28991300D02*
X241090510Y-35491500D01*
X64066510Y-21591000D02*
X64066510Y-35491500D01*
X50164910Y-21591000D02*
X64066510Y-21591000D01*
X31114910Y-21591000D02*
X45016510Y-21591000D01*
X246841510Y-36461700D02*
X246841510Y-35491500D01*
X45016510Y-21591000D02*
X45016510Y-35491500D01*
X270641510Y-35491500D02*
X273190510Y-35491500D01*
X159316510Y-21591000D02*
X159316510Y-35491500D01*
X145416510Y-21591000D02*
X159316510Y-21591000D01*
X223608510Y-97789800D02*
X223608510Y-111691420D01*
X302578510Y-97789800D02*
X316477510Y-97789800D01*
X283528510Y-111691420D02*
X283528510Y-97789800D01*
X247422510Y-111691420D02*
X233522510Y-111691420D01*
X257333510Y-97789800D02*
X271233510Y-97789800D01*
X199797510Y-97789800D02*
X199797510Y-111691420D01*
X297427510Y-97789800D02*
X297427510Y-111691420D01*
X271233510Y-111691420D02*
X257333510Y-111691420D01*
X247422510Y-97789800D02*
X247422510Y-111691420D01*
X233522510Y-97789800D02*
X247422510Y-97789800D01*
X283528510Y-97789800D02*
X297427510Y-97789800D01*
X209708510Y-111691420D02*
X209708510Y-97789800D01*
X209708510Y-97789800D02*
X223608510Y-97789800D01*
X271233510Y-97789800D02*
X271233510Y-111691420D01*
X316477510Y-97789800D02*
X316477510Y-111691420D01*
X257333510Y-111691420D02*
X257333510Y-97789800D01*
X185897510Y-111691420D02*
X185897510Y-97789800D01*
X199797510Y-111691420D02*
X185897510Y-111691420D01*
X43022610Y-111691420D02*
X43022610Y-97789800D01*
X185897510Y-97789800D02*
X199797510Y-97789800D01*
X297427510Y-111691420D02*
X283528510Y-111691420D01*
X233522510Y-111691420D02*
X233522510Y-97789800D01*
X223608510Y-111691420D02*
X209708510Y-111691420D01*
X375417510Y-111691420D02*
X378391510Y-111691420D01*
X372218510Y-112661560D02*
X375417510Y-112661560D01*
X-4602380Y-97789800D02*
X9297910Y-97789800D01*
X351616510Y-111691420D02*
X372218510Y-111691420D01*
X33108810Y-111691420D02*
X19208710Y-111691420D01*
X19208710Y-97789800D02*
X33108810Y-97789800D01*
X378391510Y-111691420D02*
X378391510Y-97789800D01*
X9297910Y-97789800D02*
X9297910Y-111691420D01*
X375417510Y-112661560D02*
X375417510Y-111691420D01*
X351616510Y-112661560D02*
X351616510Y-111691420D01*
X372218510Y-111691420D02*
X372218510Y-112661560D01*
X56922810Y-111691420D02*
X43022610Y-111691420D01*
X9297910Y-111691420D02*
X-4602380Y-111691420D01*
X56922810Y-97789800D02*
X56922810Y-111691420D01*
X43022610Y-97789800D02*
X56922810Y-97789800D01*
X19208710Y-111691420D02*
X19208710Y-97789800D01*
X33108810Y-97789800D02*
X33108810Y-111691420D01*
X-4602380Y-111691420D02*
X-4602380Y-97789800D01*
X378391510Y-97789800D02*
X345442510Y-97789800D01*
X31114910Y-6917000D02*
X31114910Y6985000D01*
X345442510Y-21591000D02*
X359341510Y-21591000D01*
X45016510Y-6917000D02*
X31114910Y-6917000D01*
X45016510Y6985000D02*
X45016510Y-6917000D01*
X31114910Y6985000D02*
X45016510Y6985000D01*
X6916710Y-6917000D02*
X-6985000Y-6917000D01*
X397441510Y-21591000D02*
X397441510Y-35491500D01*
X364492510Y-35491500D02*
X364492510Y-21591000D01*
X397441510Y-35491500D02*
X383542510Y-35491500D01*
X378391510Y-21591000D02*
X378391510Y-35491500D01*
X383542510Y-21591000D02*
X397441510Y-21591000D01*
X-6985000Y6985000D02*
X6916710Y6985000D01*
X-6985000Y-6917000D02*
X-6985000Y6985000D01*
X6916710Y6985000D02*
X6916710Y-6917000D01*
X64066510Y6985000D02*
X64066510Y-6917000D01*
X383542510Y-35491500D02*
X383542510Y-21591000D01*
X359341510Y-35491500D02*
X345442510Y-35491500D01*
X416491510Y-35491500D02*
X402592510Y-35491500D01*
X416491510Y-21591000D02*
X416491510Y-35491500D01*
X359341510Y-21591000D02*
X359341510Y-35491500D01*
X364492510Y-21591000D02*
X378391510Y-21591000D01*
X335527510Y-35491500D02*
X321628510Y-35491500D01*
X345442510Y-35491500D02*
X345442510Y-21591000D01*
X321628510Y-35491500D02*
X321628510Y-21591000D01*
X378391510Y-35491500D02*
X364492510Y-35491500D01*
X50164910Y6985000D02*
X64066510Y6985000D01*
X402592510Y-35491500D02*
X402592510Y-21591000D01*
X402592510Y-21591000D02*
X416491510Y-21591000D01*
X202566510Y6985000D02*
X216466510Y6985000D01*
X173991510Y-6917000D02*
X173991510Y6985000D01*
X259716510Y6985000D02*
X273616510Y6985000D01*
X83116510Y-6917000D02*
X69214910Y-6917000D01*
X69214910Y6985000D02*
X83116510Y6985000D01*
X335527510Y6985000D02*
X335527510Y-6917000D01*
X321628510Y6985000D02*
X335527510Y6985000D01*
X297427510Y-6917000D02*
X283528510Y-6917000D01*
X221616510Y6985000D02*
X235516510Y6985000D01*
X154941510Y-6917000D02*
X154941510Y6985000D01*
X149790510Y6985000D02*
X149790510Y-6917000D01*
X64066510Y-6917000D02*
X50164910Y-6917000D01*
X149790510Y-6917000D02*
X135891510Y-6917000D01*
X116841510Y6985000D02*
X130740510Y6985000D01*
X102165510Y6985000D02*
X102165510Y-6917000D01*
X302578510Y-6917000D02*
X302578510Y6985000D01*
X283528510Y6985000D02*
X297427510Y6985000D01*
X240666510Y-6917000D02*
X240666510Y6985000D01*
X69214910Y-6917000D02*
X69214910Y6985000D01*
X235516510Y-6917000D02*
X221616510Y-6917000D01*
X154941510Y6985000D02*
X168841510Y6985000D01*
X316477510Y-6917000D02*
X302578510Y-6917000D01*
X202566510Y-6917000D02*
X202566510Y6985000D01*
X135891510Y6985000D02*
X149790510Y6985000D01*
X240666510Y6985000D02*
X254566510Y6985000D01*
X216466510Y-6917000D02*
X202566510Y-6917000D01*
X135891510Y-6917000D02*
X135891510Y6985000D01*
X83116510Y6985000D02*
X83116510Y-6917000D01*
X102165510Y-6917000D02*
X88264910Y-6917000D01*
X187891510Y-6917000D02*
X173991510Y-6917000D01*
X216466510Y6985000D02*
X216466510Y-6917000D01*
X316477510Y6985000D02*
X316477510Y-6917000D01*
X130740510Y6985000D02*
X130740510Y-6917000D01*
X50164910Y-6917000D02*
X50164910Y6985000D01*
X254566510Y-6917000D02*
X240666510Y-6917000D01*
X302578510Y6985000D02*
X316477510Y6985000D01*
X321628510Y-6917000D02*
X321628510Y6985000D01*
X221616510Y-6917000D02*
X221616510Y6985000D01*
X335527510Y-6917000D02*
X321628510Y-6917000D01*
X273616510Y6985000D02*
X273616510Y-6917000D01*
X254566510Y6985000D02*
X254566510Y-6917000D01*
X173991510Y6985000D02*
X187891510Y6985000D01*
X88264910Y-6917000D02*
X88264910Y6985000D01*
X187891510Y6985000D02*
X187891510Y-6917000D01*
X168841510Y6985000D02*
X168841510Y-6917000D01*
X259716510Y-6917000D02*
X259716510Y6985000D01*
X168841510Y-6917000D02*
X154941510Y-6917000D01*
X297427510Y6985000D02*
X297427510Y-6917000D01*
X273616510Y-6917000D02*
X259716510Y-6917000D01*
X116841510Y-6917000D02*
X116841510Y6985000D01*
X283528510Y-6917000D02*
X283528510Y6985000D01*
X235516510Y6985000D02*
X235516510Y-6917000D01*
X130740510Y-6917000D02*
X116841510Y-6917000D01*
X88264910Y6985000D02*
X102165510Y6985000D01*
X420370000Y6985000D02*
X420370000Y-113030000D01*
X420370000Y-113030000D02*
G75*
G02X417830000Y-115570000I-2540000J0D01*
G01*
X-6985000Y-115570000D02*
X417830000Y-115570000D01*
X417830000Y9525000D02*
X-6985000Y9525000D01*
X417830000Y9525000D02*
G75*
G02X420370000Y6985000I0J-2540000D01*
G01*
X-9525000Y-113030000D02*
X-9525000Y6985000D01*
X-6985000Y-115570000D02*
G75*
G02X-9525000Y-113030000I0J2540000D01*
G01*
X-9525000Y6985000D02*
G75*
G02X-6985000Y9525000I2540000J0D01*
G01*
D11*
G36*
X14559734Y-98143732D02*
G01*
X14769203Y-98230497D01*
X14957720Y-98356460D01*
X15118040Y-98516780D01*
X15244003Y-98705297D01*
X15330768Y-98914766D01*
X15375000Y-99137136D01*
X15375000Y-99363864D01*
X15330768Y-99586234D01*
X15244003Y-99795703D01*
X15118040Y-99984220D01*
X14957720Y-100144540D01*
X14769203Y-100270503D01*
X14559734Y-100357268D01*
X14337364Y-100401500D01*
X14110636Y-100401500D01*
X13888266Y-100357268D01*
X13678797Y-100270503D01*
X13490280Y-100144540D01*
X13329960Y-99984220D01*
X13203997Y-99795703D01*
X13117232Y-99586234D01*
X13073000Y-99363864D01*
X13073000Y-99137136D01*
X13117232Y-98914766D01*
X13203997Y-98705297D01*
X13329960Y-98516780D01*
X13490280Y-98356460D01*
X13678797Y-98230497D01*
X13888266Y-98143732D01*
X14110636Y-98099500D01*
X14337364Y-98099500D01*
X14559734Y-98143732D01*
G37*
G36*
X133685734Y-95413232D02*
G01*
X133895203Y-95499997D01*
X134083720Y-95625960D01*
X134244040Y-95786280D01*
X134370003Y-95974797D01*
X134456768Y-96184266D01*
X134501000Y-96406636D01*
X134501000Y-96633364D01*
X134456768Y-96855734D01*
X134370003Y-97065203D01*
X134244040Y-97253720D01*
X134083720Y-97414040D01*
X133895203Y-97540003D01*
X133685734Y-97626768D01*
X133463364Y-97671000D01*
X133236636Y-97671000D01*
X133014266Y-97626768D01*
X132804797Y-97540003D01*
X132616280Y-97414040D01*
X132455960Y-97253720D01*
X132329997Y-97065203D01*
X132243232Y-96855734D01*
X132199000Y-96633364D01*
X132199000Y-96406636D01*
X132243232Y-96184266D01*
X132329997Y-95974797D01*
X132455960Y-95786280D01*
X132616280Y-95625960D01*
X132804797Y-95499997D01*
X133014266Y-95413232D01*
X133236636Y-95369000D01*
X133463364Y-95369000D01*
X133685734Y-95413232D01*
G37*
G36*
X228935734Y-94143232D02*
G01*
X229145203Y-94229997D01*
X229333720Y-94355960D01*
X229494040Y-94516280D01*
X229620003Y-94704797D01*
X229706768Y-94914266D01*
X229751000Y-95136636D01*
X229751000Y-95363364D01*
X229706768Y-95585734D01*
X229620003Y-95795203D01*
X229494040Y-95983720D01*
X229333720Y-96144040D01*
X229333717Y-96144042D01*
X229333716Y-96144043D01*
X229273519Y-96184265D01*
X229145203Y-96270003D01*
X228935734Y-96356768D01*
X228713364Y-96401000D01*
X228486636Y-96401000D01*
X228264266Y-96356768D01*
X228054797Y-96270003D01*
X227926481Y-96184265D01*
X227866284Y-96144043D01*
X227866283Y-96144042D01*
X227866280Y-96144040D01*
X227705960Y-95983720D01*
X227579997Y-95795203D01*
X227493232Y-95585734D01*
X227449000Y-95363364D01*
X227449000Y-95136636D01*
X227493232Y-94914266D01*
X227579997Y-94704797D01*
X227705960Y-94516280D01*
X227866280Y-94355960D01*
X228054797Y-94229997D01*
X228264266Y-94143232D01*
X228486636Y-94099000D01*
X228713364Y-94099000D01*
X228935734Y-94143232D01*
G37*
G36*
X381335734Y-94143232D02*
G01*
X381545203Y-94229997D01*
X381733720Y-94355960D01*
X381894040Y-94516280D01*
X382020003Y-94704797D01*
X382106768Y-94914266D01*
X382151000Y-95136636D01*
X382151000Y-95363364D01*
X382106768Y-95585734D01*
X382020003Y-95795203D01*
X381894040Y-95983720D01*
X381733720Y-96144040D01*
X381733717Y-96144042D01*
X381733716Y-96144043D01*
X381673519Y-96184265D01*
X381545203Y-96270003D01*
X381335734Y-96356768D01*
X381113364Y-96401000D01*
X380886636Y-96401000D01*
X380664266Y-96356768D01*
X380454797Y-96270003D01*
X380326481Y-96184265D01*
X380266284Y-96144043D01*
X380266283Y-96144042D01*
X380266280Y-96144040D01*
X380105960Y-95983720D01*
X379979997Y-95795203D01*
X379893232Y-95585734D01*
X379849000Y-95363364D01*
X379849000Y-95136636D01*
X379893232Y-94914266D01*
X379979997Y-94704797D01*
X380105960Y-94516280D01*
X380266280Y-94355960D01*
X380454797Y-94229997D01*
X380664266Y-94143232D01*
X380886636Y-94099000D01*
X381113364Y-94099000D01*
X381335734Y-94143232D01*
G37*
G36*
X300309734Y-93889232D02*
G01*
X300519203Y-93975997D01*
X300519204Y-93975998D01*
X300703291Y-94099000D01*
X300707720Y-94101960D01*
X300868040Y-94262280D01*
X300994003Y-94450797D01*
X301080768Y-94660266D01*
X301125000Y-94882636D01*
X301125000Y-95109364D01*
X301080768Y-95331734D01*
X300994003Y-95541203D01*
X300868040Y-95729720D01*
X300707720Y-95890040D01*
X300519203Y-96016003D01*
X300309734Y-96102768D01*
X300087364Y-96147000D01*
X299860636Y-96147000D01*
X299638266Y-96102768D01*
X299428797Y-96016003D01*
X299240280Y-95890040D01*
X299079960Y-95729720D01*
X298953997Y-95541203D01*
X298867232Y-95331734D01*
X298823000Y-95109364D01*
X298823000Y-94882636D01*
X298867232Y-94660266D01*
X298953997Y-94450797D01*
X299079960Y-94262280D01*
X299240280Y-94101960D01*
X299244710Y-94099000D01*
X299428796Y-93975998D01*
X299428797Y-93975997D01*
X299638266Y-93889232D01*
X299860636Y-93845000D01*
X300087364Y-93845000D01*
X300309734Y-93889232D01*
G37*
G36*
X17480734Y-38263232D02*
G01*
X17690203Y-38349997D01*
X17878720Y-38475960D01*
X18039040Y-38636280D01*
X18165003Y-38824797D01*
X18251768Y-39034266D01*
X18296000Y-39256636D01*
X18296000Y-39483364D01*
X18251768Y-39705734D01*
X18165003Y-39915203D01*
X18039040Y-40103720D01*
X17878720Y-40264040D01*
X17690203Y-40390003D01*
X17480734Y-40476768D01*
X17258364Y-40521000D01*
X17031636Y-40521000D01*
X16809266Y-40476768D01*
X16599797Y-40390003D01*
X16411280Y-40264040D01*
X16250960Y-40103720D01*
X16124997Y-39915203D01*
X16038232Y-39705734D01*
X15994000Y-39483364D01*
X15994000Y-39256636D01*
X16038232Y-39034266D01*
X16124997Y-38824797D01*
X16250960Y-38636280D01*
X16411280Y-38475960D01*
X16599797Y-38349997D01*
X16809266Y-38263232D01*
X17031636Y-38219000D01*
X17258364Y-38219000D01*
X17480734Y-38263232D01*
G37*
G36*
X228935734Y-37628232D02*
G01*
X229145203Y-37714997D01*
X229333720Y-37840960D01*
X229494040Y-38001280D01*
X229620003Y-38189797D01*
X229706768Y-38399266D01*
X229751000Y-38621636D01*
X229751000Y-38848364D01*
X229706768Y-39070734D01*
X229620003Y-39280203D01*
X229494040Y-39468720D01*
X229333720Y-39629040D01*
X229145203Y-39755003D01*
X228935734Y-39841768D01*
X228713364Y-39886000D01*
X228486636Y-39886000D01*
X228264266Y-39841768D01*
X228054797Y-39755003D01*
X227866280Y-39629040D01*
X227705960Y-39468720D01*
X227579997Y-39280203D01*
X227493232Y-39070734D01*
X227449000Y-38848364D01*
X227449000Y-38621636D01*
X227493232Y-38399266D01*
X227579997Y-38189797D01*
X227705960Y-38001280D01*
X227866280Y-37840960D01*
X228054797Y-37714997D01*
X228264266Y-37628232D01*
X228486636Y-37584000D01*
X228713364Y-37584000D01*
X228935734Y-37628232D01*
G37*
G36*
X319740734Y-36993232D02*
G01*
X319950203Y-37079997D01*
X320138720Y-37205960D01*
X320299040Y-37366280D01*
X320425003Y-37554797D01*
X320511768Y-37764266D01*
X320556000Y-37986636D01*
X320556000Y-38213364D01*
X320511768Y-38435734D01*
X320425003Y-38645203D01*
X320299040Y-38833720D01*
X320138720Y-38994040D01*
X319950203Y-39120003D01*
X319740734Y-39206768D01*
X319518364Y-39251000D01*
X319291636Y-39251000D01*
X319069266Y-39206768D01*
X318859797Y-39120003D01*
X318671280Y-38994040D01*
X318510960Y-38833720D01*
X318384997Y-38645203D01*
X318298232Y-38435734D01*
X318254000Y-38213364D01*
X318254000Y-37986636D01*
X318298232Y-37764266D01*
X318384997Y-37554797D01*
X318510960Y-37366280D01*
X318671280Y-37205960D01*
X318859797Y-37079997D01*
X319069266Y-36993232D01*
X319291636Y-36949000D01*
X319518364Y-36949000D01*
X319740734Y-36993232D01*
G37*
G36*
X124160734Y-36358232D02*
G01*
X124370203Y-36444997D01*
X124558720Y-36570960D01*
X124719040Y-36731280D01*
X124845003Y-36919797D01*
X124931768Y-37129266D01*
X124976000Y-37351636D01*
X124976000Y-37578364D01*
X124931768Y-37800734D01*
X124845003Y-38010203D01*
X124719040Y-38198720D01*
X124558720Y-38359040D01*
X124370203Y-38485003D01*
X124160734Y-38571768D01*
X123938364Y-38616000D01*
X123711636Y-38616000D01*
X123489266Y-38571768D01*
X123279797Y-38485003D01*
X123091280Y-38359040D01*
X122930960Y-38198720D01*
X122804997Y-38010203D01*
X122718232Y-37800734D01*
X122674000Y-37578364D01*
X122674000Y-37351636D01*
X122718232Y-37129266D01*
X122804997Y-36919797D01*
X122930960Y-36731280D01*
X123091280Y-36570960D01*
X123279797Y-36444997D01*
X123489266Y-36358232D01*
X123711636Y-36314000D01*
X123938364Y-36314000D01*
X124160734Y-36358232D01*
G37*
G36*
X343870734Y-11593232D02*
G01*
X344080203Y-11679997D01*
X344268720Y-11805960D01*
X344429040Y-11966280D01*
X344555003Y-12154797D01*
X344641768Y-12364266D01*
X344686000Y-12586636D01*
X344686000Y-12813364D01*
X344641768Y-13035734D01*
X344555003Y-13245203D01*
X344429040Y-13433720D01*
X344268720Y-13594040D01*
X344080203Y-13720003D01*
X343870734Y-13806768D01*
X343648364Y-13851000D01*
X343421636Y-13851000D01*
X343199266Y-13806768D01*
X342989797Y-13720003D01*
X342801280Y-13594040D01*
X342640960Y-13433720D01*
X342514997Y-13245203D01*
X342428232Y-13035734D01*
X342384000Y-12813364D01*
X342384000Y-12586636D01*
X342428232Y-12364266D01*
X342514997Y-12154797D01*
X342640960Y-11966280D01*
X342801280Y-11805960D01*
X342989797Y-11679997D01*
X343199266Y-11593232D01*
X343421636Y-11549000D01*
X343648364Y-11549000D01*
X343870734Y-11593232D01*
G37*
G36*
X109809734Y7012268D02*
G01*
X110019203Y6925503D01*
X110207720Y6799540D01*
X110368040Y6639220D01*
X110494003Y6450703D01*
X110580768Y6241234D01*
X110625000Y6018864D01*
X110625000Y5792136D01*
X110580768Y5569766D01*
X110494003Y5360297D01*
X110368040Y5171780D01*
X110207720Y5011460D01*
X110019203Y4885497D01*
X109809734Y4798732D01*
X109587364Y4754500D01*
X109360636Y4754500D01*
X109138266Y4798732D01*
X108928797Y4885497D01*
X108740280Y5011460D01*
X108579960Y5171780D01*
X108453997Y5360297D01*
X108367232Y5569766D01*
X108323000Y5792136D01*
X108323000Y6018864D01*
X108367232Y6241234D01*
X108453997Y6450703D01*
X108579960Y6639220D01*
X108740280Y6799540D01*
X108928797Y6925503D01*
X109138266Y7012268D01*
X109360636Y7056500D01*
X109587364Y7056500D01*
X109809734Y7012268D01*
G37*
G36*
X195915734Y7012268D02*
G01*
X196125203Y6925503D01*
X196313720Y6799540D01*
X196474040Y6639220D01*
X196600003Y6450703D01*
X196686768Y6241234D01*
X196731000Y6018864D01*
X196731000Y5792136D01*
X196686768Y5569766D01*
X196600003Y5360297D01*
X196474040Y5171780D01*
X196313720Y5011460D01*
X196125203Y4885497D01*
X195915734Y4798732D01*
X195693364Y4754500D01*
X195466636Y4754500D01*
X195244266Y4798732D01*
X195034797Y4885497D01*
X194846280Y5011460D01*
X194685960Y5171780D01*
X194559997Y5360297D01*
X194473232Y5569766D01*
X194429000Y5792136D01*
X194429000Y6018864D01*
X194473232Y6241234D01*
X194559997Y6450703D01*
X194685960Y6639220D01*
X194846280Y6799540D01*
X195034797Y6925503D01*
X195244266Y7012268D01*
X195466636Y7056500D01*
X195693364Y7056500D01*
X195915734Y7012268D01*
G37*
G36*
X279735734Y7012268D02*
G01*
X279945203Y6925503D01*
X280133720Y6799540D01*
X280294040Y6639220D01*
X280420003Y6450703D01*
X280506768Y6241234D01*
X280551000Y6018864D01*
X280551000Y5792136D01*
X280506768Y5569766D01*
X280420003Y5360297D01*
X280294040Y5171780D01*
X280133720Y5011460D01*
X279945203Y4885497D01*
X279735734Y4798732D01*
X279513364Y4754500D01*
X279286636Y4754500D01*
X279064266Y4798732D01*
X278854797Y4885497D01*
X278666280Y5011460D01*
X278505960Y5171780D01*
X278379997Y5360297D01*
X278293232Y5569766D01*
X278249000Y5792136D01*
X278249000Y6018864D01*
X278293232Y6241234D01*
X278379997Y6450703D01*
X278505960Y6639220D01*
X278666280Y6799540D01*
X278854797Y6925503D01*
X279064266Y7012268D01*
X279286636Y7056500D01*
X279513364Y7056500D01*
X279735734Y7012268D01*
G37*
G36*
X343870734Y7012268D02*
G01*
X344080203Y6925503D01*
X344268720Y6799540D01*
X344429040Y6639220D01*
X344555003Y6450703D01*
X344641768Y6241234D01*
X344686000Y6018864D01*
X344686000Y5792136D01*
X344641768Y5569766D01*
X344555003Y5360297D01*
X344429040Y5171780D01*
X344268720Y5011460D01*
X344080203Y4885497D01*
X343870734Y4798732D01*
X343648364Y4754500D01*
X343421636Y4754500D01*
X343199266Y4798732D01*
X342989797Y4885497D01*
X342801280Y5011460D01*
X342640960Y5171780D01*
X342514997Y5360297D01*
X342428232Y5569766D01*
X342384000Y5792136D01*
X342384000Y6018864D01*
X342428232Y6241234D01*
X342514997Y6450703D01*
X342640960Y6639220D01*
X342801280Y6799540D01*
X342989797Y6925503D01*
X343199266Y7012268D01*
X343421636Y7056500D01*
X343648364Y7056500D01*
X343870734Y7012268D01*
G37*
G36*
X17480734Y7012268D02*
G01*
X17690203Y6925503D01*
X17878720Y6799540D01*
X18039040Y6639220D01*
X18165003Y6450703D01*
X18251768Y6241234D01*
X18296000Y6018864D01*
X18296000Y5792136D01*
X18251768Y5569766D01*
X18165003Y5360297D01*
X18039040Y5171780D01*
X17878720Y5011460D01*
X17690203Y4885497D01*
X17480734Y4798732D01*
X17258364Y4754500D01*
X17031636Y4754500D01*
X16809266Y4798732D01*
X16599797Y4885497D01*
X16411280Y5011460D01*
X16250960Y5171780D01*
X16124997Y5360297D01*
X16038232Y5569766D01*
X15994000Y5792136D01*
X15994000Y6018864D01*
X16038232Y6241234D01*
X16124997Y6450703D01*
X16250960Y6639220D01*
X16411280Y6799540D01*
X16599797Y6925503D01*
X16809266Y7012268D01*
X17031636Y7056500D01*
X17258364Y7056500D01*
X17480734Y7012268D01*
G37*
G36*
X417149734Y7075768D02*
G01*
X417359203Y6989003D01*
X417547720Y6863040D01*
X417708040Y6702720D01*
X417834003Y6514203D01*
X417920768Y6304734D01*
X417965000Y6082364D01*
X417965000Y5855636D01*
X417920768Y5633266D01*
X417834003Y5423797D01*
X417708040Y5235280D01*
X417547720Y5074960D01*
X417359203Y4948997D01*
X417149734Y4862232D01*
X416927364Y4818000D01*
X416700636Y4818000D01*
X416478266Y4862232D01*
X416268797Y4948997D01*
X416080280Y5074960D01*
X415919960Y5235280D01*
X415793997Y5423797D01*
X415707232Y5633266D01*
X415663000Y5855636D01*
X415663000Y6082364D01*
X415707232Y6304734D01*
X415793997Y6514203D01*
X415919960Y6702720D01*
X416080280Y6863040D01*
X416268797Y6989003D01*
X416478266Y7075768D01*
X416700636Y7120000D01*
X416927364Y7120000D01*
X417149734Y7075768D01*
G37*
M02*
