G04 #@! TF.GenerationSoftware,KiCad,Pcbnew,(5.1.5)-3*
G04 #@! TF.CreationDate,2021-02-16T22:22:21+09:00*
G04 #@! TF.ProjectId,topplate,746f7070-6c61-4746-952e-6b696361645f,rev?*
G04 #@! TF.SameCoordinates,Original*
G04 #@! TF.FileFunction,Legend,Bot*
G04 #@! TF.FilePolarity,Positive*
%FSLAX46Y46*%
G04 Gerber Fmt 4.6, Leading zero omitted, Abs format (unit mm)*
G04 Created by KiCad (PCBNEW (5.1.5)-3) date 2021-02-16 22:22:21*
%MOMM*%
%LPD*%
G04 APERTURE LIST*
%ADD10C,0.150000*%
%ADD11C,0.010000*%
%ADD12C,2.302000*%
G04 APERTURE END LIST*
D10*
X412303261Y6389619D02*
X411731833Y6389619D01*
X412017547Y5389619D02*
X412017547Y6389619D01*
X411398500Y5389619D02*
X411398500Y6389619D01*
X410969928Y5389619D02*
X410969928Y5913428D01*
X411017547Y6008666D01*
X411112785Y6056285D01*
X411255642Y6056285D01*
X411350880Y6008666D01*
X411398500Y5961047D01*
X410112785Y5437238D02*
X410208023Y5389619D01*
X410398500Y5389619D01*
X410493738Y5437238D01*
X410541357Y5532476D01*
X410541357Y5913428D01*
X410493738Y6008666D01*
X410398500Y6056285D01*
X410208023Y6056285D01*
X410112785Y6008666D01*
X410065166Y5913428D01*
X410065166Y5818190D01*
X410541357Y5722952D01*
X408874690Y5389619D02*
X408874690Y6389619D01*
X408636595Y6389619D01*
X408493738Y6342000D01*
X408398500Y6246761D01*
X408350880Y6151523D01*
X408303261Y5961047D01*
X408303261Y5818190D01*
X408350880Y5627714D01*
X408398500Y5532476D01*
X408493738Y5437238D01*
X408636595Y5389619D01*
X408874690Y5389619D01*
X407731833Y5389619D02*
X407827071Y5437238D01*
X407874690Y5484857D01*
X407922309Y5580095D01*
X407922309Y5865809D01*
X407874690Y5961047D01*
X407827071Y6008666D01*
X407731833Y6056285D01*
X407588976Y6056285D01*
X407493738Y6008666D01*
X407446119Y5961047D01*
X407398500Y5865809D01*
X407398500Y5580095D01*
X407446119Y5484857D01*
X407493738Y5437238D01*
X407588976Y5389619D01*
X407731833Y5389619D01*
X406541357Y6056285D02*
X406541357Y5246761D01*
X406588976Y5151523D01*
X406636595Y5103904D01*
X406731833Y5056285D01*
X406874690Y5056285D01*
X406969928Y5103904D01*
X406541357Y5437238D02*
X406636595Y5389619D01*
X406827071Y5389619D01*
X406922309Y5437238D01*
X406969928Y5484857D01*
X407017547Y5580095D01*
X407017547Y5865809D01*
X406969928Y5961047D01*
X406922309Y6008666D01*
X406827071Y6056285D01*
X406636595Y6056285D01*
X406541357Y6008666D01*
X405303261Y5389619D02*
X405303261Y6389619D01*
X404731833Y5389619D02*
X405160404Y5961047D01*
X404731833Y6389619D02*
X405303261Y5818190D01*
X403922309Y5437238D02*
X404017547Y5389619D01*
X404208023Y5389619D01*
X404303261Y5437238D01*
X404350880Y5532476D01*
X404350880Y5913428D01*
X404303261Y6008666D01*
X404208023Y6056285D01*
X404017547Y6056285D01*
X403922309Y6008666D01*
X403874690Y5913428D01*
X403874690Y5818190D01*
X404350880Y5722952D01*
X403541357Y6056285D02*
X403303261Y5389619D01*
X403065166Y6056285D02*
X403303261Y5389619D01*
X403398500Y5151523D01*
X403446119Y5103904D01*
X403541357Y5056285D01*
X401588976Y5913428D02*
X401446119Y5865809D01*
X401398500Y5818190D01*
X401350880Y5722952D01*
X401350880Y5580095D01*
X401398500Y5484857D01*
X401446119Y5437238D01*
X401541357Y5389619D01*
X401922309Y5389619D01*
X401922309Y6389619D01*
X401588976Y6389619D01*
X401493738Y6342000D01*
X401446119Y6294380D01*
X401398500Y6199142D01*
X401398500Y6103904D01*
X401446119Y6008666D01*
X401493738Y5961047D01*
X401588976Y5913428D01*
X401922309Y5913428D01*
X400779452Y5389619D02*
X400874690Y5437238D01*
X400922309Y5484857D01*
X400969928Y5580095D01*
X400969928Y5865809D01*
X400922309Y5961047D01*
X400874690Y6008666D01*
X400779452Y6056285D01*
X400636595Y6056285D01*
X400541357Y6008666D01*
X400493738Y5961047D01*
X400446119Y5865809D01*
X400446119Y5580095D01*
X400493738Y5484857D01*
X400541357Y5437238D01*
X400636595Y5389619D01*
X400779452Y5389619D01*
X399588976Y5389619D02*
X399588976Y5913428D01*
X399636595Y6008666D01*
X399731833Y6056285D01*
X399922309Y6056285D01*
X400017547Y6008666D01*
X399588976Y5437238D02*
X399684214Y5389619D01*
X399922309Y5389619D01*
X400017547Y5437238D01*
X400065166Y5532476D01*
X400065166Y5627714D01*
X400017547Y5722952D01*
X399922309Y5770571D01*
X399684214Y5770571D01*
X399588976Y5818190D01*
X399112785Y5389619D02*
X399112785Y6056285D01*
X399112785Y5865809D02*
X399065166Y5961047D01*
X399017547Y6008666D01*
X398922309Y6056285D01*
X398827071Y6056285D01*
X398065166Y5389619D02*
X398065166Y6389619D01*
X398065166Y5437238D02*
X398160404Y5389619D01*
X398350880Y5389619D01*
X398446119Y5437238D01*
X398493738Y5484857D01*
X398541357Y5580095D01*
X398541357Y5865809D01*
X398493738Y5961047D01*
X398446119Y6008666D01*
X398350880Y6056285D01*
X398160404Y6056285D01*
X398065166Y6008666D01*
X396255642Y5389619D02*
X396588976Y5865809D01*
X396827071Y5389619D02*
X396827071Y6389619D01*
X396446119Y6389619D01*
X396350880Y6342000D01*
X396303261Y6294380D01*
X396255642Y6199142D01*
X396255642Y6056285D01*
X396303261Y5961047D01*
X396350880Y5913428D01*
X396446119Y5865809D01*
X396827071Y5865809D01*
X395446119Y5437238D02*
X395541357Y5389619D01*
X395731833Y5389619D01*
X395827071Y5437238D01*
X395874690Y5532476D01*
X395874690Y5913428D01*
X395827071Y6008666D01*
X395731833Y6056285D01*
X395541357Y6056285D01*
X395446119Y6008666D01*
X395398500Y5913428D01*
X395398500Y5818190D01*
X395874690Y5722952D01*
X395065166Y6056285D02*
X394827071Y5389619D01*
X394588976Y6056285D01*
X394255642Y6294380D02*
X394208023Y6342000D01*
X394112785Y6389619D01*
X393874690Y6389619D01*
X393779452Y6342000D01*
X393731833Y6294380D01*
X393684214Y6199142D01*
X393684214Y6103904D01*
X393731833Y5961047D01*
X394303261Y5389619D01*
X393684214Y5389619D01*
X393255642Y5484857D02*
X393208023Y5437238D01*
X393255642Y5389619D01*
X393303261Y5437238D01*
X393255642Y5484857D01*
X393255642Y5389619D01*
X392588976Y6389619D02*
X392493738Y6389619D01*
X392398500Y6342000D01*
X392350880Y6294380D01*
X392303261Y6199142D01*
X392255642Y6008666D01*
X392255642Y5770571D01*
X392303261Y5580095D01*
X392350880Y5484857D01*
X392398500Y5437238D01*
X392493738Y5389619D01*
X392588976Y5389619D01*
X392684214Y5437238D01*
X392731833Y5484857D01*
X392779452Y5580095D01*
X392827071Y5770571D01*
X392827071Y6008666D01*
X392779452Y6199142D01*
X392731833Y6294380D01*
X392684214Y6342000D01*
X392588976Y6389619D01*
X391827071Y5484857D02*
X391779452Y5437238D01*
X391827071Y5389619D01*
X391874690Y5437238D01*
X391827071Y5484857D01*
X391827071Y5389619D01*
X391160404Y6389619D02*
X391065166Y6389619D01*
X390969928Y6342000D01*
X390922309Y6294380D01*
X390874690Y6199142D01*
X390827071Y6008666D01*
X390827071Y5770571D01*
X390874690Y5580095D01*
X390922309Y5484857D01*
X390969928Y5437238D01*
X391065166Y5389619D01*
X391160404Y5389619D01*
X391255642Y5437238D01*
X391303261Y5484857D01*
X391350880Y5580095D01*
X391398500Y5770571D01*
X391398500Y6008666D01*
X391350880Y6199142D01*
X391303261Y6294380D01*
X391255642Y6342000D01*
X391160404Y6389619D01*
X389208023Y5389619D02*
X389208023Y6389619D01*
X389208023Y5437238D02*
X389303261Y5389619D01*
X389493738Y5389619D01*
X389588976Y5437238D01*
X389636595Y5484857D01*
X389684214Y5580095D01*
X389684214Y5865809D01*
X389636595Y5961047D01*
X389588976Y6008666D01*
X389493738Y6056285D01*
X389303261Y6056285D01*
X389208023Y6008666D01*
X388350880Y5437238D02*
X388446119Y5389619D01*
X388636595Y5389619D01*
X388731833Y5437238D01*
X388779452Y5532476D01*
X388779452Y5913428D01*
X388731833Y6008666D01*
X388636595Y6056285D01*
X388446119Y6056285D01*
X388350880Y6008666D01*
X388303261Y5913428D01*
X388303261Y5818190D01*
X388779452Y5722952D01*
X387922309Y5437238D02*
X387827071Y5389619D01*
X387636595Y5389619D01*
X387541357Y5437238D01*
X387493738Y5532476D01*
X387493738Y5580095D01*
X387541357Y5675333D01*
X387636595Y5722952D01*
X387779452Y5722952D01*
X387874690Y5770571D01*
X387922309Y5865809D01*
X387922309Y5913428D01*
X387874690Y6008666D01*
X387779452Y6056285D01*
X387636595Y6056285D01*
X387541357Y6008666D01*
X387065166Y5389619D02*
X387065166Y6056285D01*
X387065166Y6389619D02*
X387112785Y6342000D01*
X387065166Y6294380D01*
X387017547Y6342000D01*
X387065166Y6389619D01*
X387065166Y6294380D01*
X386160404Y6056285D02*
X386160404Y5246761D01*
X386208023Y5151523D01*
X386255642Y5103904D01*
X386350880Y5056285D01*
X386493738Y5056285D01*
X386588976Y5103904D01*
X386160404Y5437238D02*
X386255642Y5389619D01*
X386446119Y5389619D01*
X386541357Y5437238D01*
X386588976Y5484857D01*
X386636595Y5580095D01*
X386636595Y5865809D01*
X386588976Y5961047D01*
X386541357Y6008666D01*
X386446119Y6056285D01*
X386255642Y6056285D01*
X386160404Y6008666D01*
X385684214Y6056285D02*
X385684214Y5389619D01*
X385684214Y5961047D02*
X385636595Y6008666D01*
X385541357Y6056285D01*
X385398500Y6056285D01*
X385303261Y6008666D01*
X385255642Y5913428D01*
X385255642Y5389619D01*
X384398500Y5437238D02*
X384493738Y5389619D01*
X384684214Y5389619D01*
X384779452Y5437238D01*
X384827071Y5532476D01*
X384827071Y5913428D01*
X384779452Y6008666D01*
X384684214Y6056285D01*
X384493738Y6056285D01*
X384398500Y6008666D01*
X384350880Y5913428D01*
X384350880Y5818190D01*
X384827071Y5722952D01*
X383493738Y5389619D02*
X383493738Y6389619D01*
X383493738Y5437238D02*
X383588976Y5389619D01*
X383779452Y5389619D01*
X383874690Y5437238D01*
X383922309Y5484857D01*
X383969928Y5580095D01*
X383969928Y5865809D01*
X383922309Y5961047D01*
X383874690Y6008666D01*
X383779452Y6056285D01*
X383588976Y6056285D01*
X383493738Y6008666D01*
X382255642Y5389619D02*
X382255642Y6389619D01*
X382255642Y6008666D02*
X382160404Y6056285D01*
X381969928Y6056285D01*
X381874690Y6008666D01*
X381827071Y5961047D01*
X381779452Y5865809D01*
X381779452Y5580095D01*
X381827071Y5484857D01*
X381874690Y5437238D01*
X381969928Y5389619D01*
X382160404Y5389619D01*
X382255642Y5437238D01*
X381446119Y6056285D02*
X381208023Y5389619D01*
X380969928Y6056285D02*
X381208023Y5389619D01*
X381303261Y5151523D01*
X381350880Y5103904D01*
X381446119Y5056285D01*
X379208023Y5865809D02*
X379255642Y5913428D01*
X379350880Y5961047D01*
X379446119Y5961047D01*
X379541357Y5913428D01*
X379588976Y5865809D01*
X379636595Y5770571D01*
X379636595Y5675333D01*
X379588976Y5580095D01*
X379541357Y5532476D01*
X379446119Y5484857D01*
X379350880Y5484857D01*
X379255642Y5532476D01*
X379208023Y5580095D01*
X379208023Y5961047D02*
X379208023Y5580095D01*
X379160404Y5532476D01*
X379112785Y5532476D01*
X379017547Y5580095D01*
X378969928Y5675333D01*
X378969928Y5913428D01*
X379065166Y6056285D01*
X379208023Y6151523D01*
X379398500Y6199142D01*
X379588976Y6151523D01*
X379731833Y6056285D01*
X379827071Y5913428D01*
X379874690Y5722952D01*
X379827071Y5532476D01*
X379731833Y5389619D01*
X379588976Y5294380D01*
X379398500Y5246761D01*
X379208023Y5294380D01*
X379065166Y5389619D01*
X378541357Y5389619D02*
X378541357Y6389619D01*
X378446119Y5770571D02*
X378160404Y5389619D01*
X378160404Y6056285D02*
X378541357Y5675333D01*
X377303261Y5389619D02*
X377303261Y5913428D01*
X377350880Y6008666D01*
X377446119Y6056285D01*
X377636595Y6056285D01*
X377731833Y6008666D01*
X377303261Y5437238D02*
X377398500Y5389619D01*
X377636595Y5389619D01*
X377731833Y5437238D01*
X377779452Y5532476D01*
X377779452Y5627714D01*
X377731833Y5722952D01*
X377636595Y5770571D01*
X377398500Y5770571D01*
X377303261Y5818190D01*
X376827071Y5389619D02*
X376827071Y6389619D01*
X376731833Y5770571D02*
X376446119Y5389619D01*
X376446119Y6056285D02*
X376827071Y5675333D01*
X375588976Y6056285D02*
X375588976Y5389619D01*
X376017547Y6056285D02*
X376017547Y5532476D01*
X375969928Y5437238D01*
X375874690Y5389619D01*
X375731833Y5389619D01*
X375636595Y5437238D01*
X375588976Y5484857D01*
X375112785Y6056285D02*
X375112785Y5389619D01*
X375112785Y5961047D02*
X375065166Y6008666D01*
X374969928Y6056285D01*
X374827071Y6056285D01*
X374731833Y6008666D01*
X374684214Y5913428D01*
X374684214Y5389619D01*
X374208023Y5389619D02*
X374208023Y6389619D01*
X374112785Y5770571D02*
X373827071Y5389619D01*
X373827071Y6056285D02*
X374208023Y5675333D01*
X373398500Y5389619D02*
X373398500Y6389619D01*
X373398500Y6008666D02*
X373303261Y6056285D01*
X373112785Y6056285D01*
X373017547Y6008666D01*
X372969928Y5961047D01*
X372922309Y5865809D01*
X372922309Y5580095D01*
X372969928Y5484857D01*
X373017547Y5437238D01*
X373112785Y5389619D01*
X373303261Y5389619D01*
X373398500Y5437238D01*
X372493738Y5484857D02*
X372446119Y5437238D01*
X372493738Y5389619D01*
X372541357Y5437238D01*
X372493738Y5484857D01*
X372493738Y5389619D01*
D11*
X273715510Y-78741000D02*
X226378510Y-78741000D01*
X263596510Y-93491400D02*
X263596510Y-92740400D01*
X273715510Y-92740400D02*
X273715510Y-78741000D01*
X260296510Y-92740400D02*
X260296510Y-93491400D01*
X263596510Y-92740400D02*
X273715510Y-92740400D01*
X260296510Y-93491400D02*
X263596510Y-93491400D01*
X239796510Y-92740400D02*
X260296510Y-92740400D01*
X239796510Y-93491400D02*
X239796510Y-92740400D01*
X236497510Y-93491400D02*
X239796510Y-93491400D01*
X236497510Y-92740400D02*
X236497510Y-93491400D01*
X226378510Y-92740400D02*
X236497510Y-92740400D01*
X226378510Y-78741000D02*
X226378510Y-92740400D01*
X271334510Y-73690300D02*
X271334510Y-40641000D01*
X265058510Y-73690300D02*
X265058510Y-74441400D01*
X268359510Y-73690300D02*
X271334510Y-73690300D01*
X271334510Y-40641000D02*
X254953510Y-40641000D01*
X244557510Y-73690300D02*
X265058510Y-73690300D01*
X268359510Y-74441400D02*
X268359510Y-73690300D01*
X265058510Y-74441400D02*
X268359510Y-74441400D01*
X257333510Y-54640300D02*
X257333510Y-59691000D01*
X235903510Y-73690300D02*
X241258510Y-73690300D01*
X257333510Y-59691000D02*
X235903510Y-59691000D01*
X244557510Y-74441400D02*
X244557510Y-73690300D01*
X241258510Y-74441400D02*
X244557510Y-74441400D01*
X235903510Y-59691000D02*
X235903510Y-73690300D01*
X254953510Y-54640300D02*
X257333510Y-54640300D01*
X254953510Y-40641000D02*
X254953510Y-54640300D01*
X241258510Y-73690300D02*
X241258510Y-74441400D01*
X402592510Y-81716300D02*
X402592510Y-78741000D01*
X401622510Y-46816100D02*
X402592510Y-46816100D01*
X401622510Y-43616400D02*
X401622510Y-46816100D01*
X402592510Y-43616400D02*
X401622510Y-43616400D01*
X402592510Y-40641000D02*
X402592510Y-43616400D01*
X345442510Y-97789800D02*
X345442510Y-111691420D01*
X114458510Y-97789800D02*
X114458510Y-102491600D01*
X348416510Y-111691420D02*
X348416510Y-112661560D01*
X345442510Y-111691420D02*
X348416510Y-111691420D01*
X80733910Y-97789800D02*
X66833710Y-97789800D01*
X90647510Y-102491600D02*
X80733910Y-102491600D01*
X138272510Y-102491600D02*
X128358510Y-102491600D01*
X104547510Y-102491600D02*
X104547510Y-97789800D01*
X114458510Y-102491600D02*
X104547510Y-102491600D01*
X90647510Y-97789800D02*
X90647510Y-102491600D01*
X128358510Y-102491600D02*
X128358510Y-97789800D01*
X104547510Y-97789800D02*
X90647510Y-97789800D01*
X128358510Y-97789800D02*
X114458510Y-97789800D01*
X80733910Y-102491600D02*
X80733910Y-97789800D01*
X348416510Y-112661560D02*
X351616510Y-112661560D01*
X173008510Y-111691420D02*
X175983510Y-111691420D01*
X169809510Y-111691420D02*
X169809510Y-112661560D01*
X138272510Y-111691420D02*
X152172510Y-111691420D01*
X128358510Y-106990920D02*
X138272510Y-106990920D01*
X173008510Y-112661560D02*
X173008510Y-111691420D01*
X175983510Y-97789800D02*
X162083510Y-97789800D01*
X152172510Y-111691420D02*
X152172510Y-106990920D01*
X175983510Y-111691420D02*
X175983510Y-97789800D01*
X162083510Y-106990920D02*
X162083510Y-111691420D01*
X114458510Y-106990920D02*
X114458510Y-111691420D01*
X138272510Y-97789800D02*
X138272510Y-102491600D01*
X169809510Y-112661560D02*
X173008510Y-112661560D01*
X114458510Y-111691420D02*
X128358510Y-111691420D01*
X152172510Y-97789800D02*
X138272510Y-97789800D01*
X152172510Y-102491600D02*
X152172510Y-97789800D01*
X162083510Y-102491600D02*
X152172510Y-102491600D01*
X162083510Y-97789800D02*
X162083510Y-102491600D01*
X162083510Y-111691420D02*
X169809510Y-111691420D01*
X152172510Y-106990920D02*
X162083510Y-106990920D01*
X104547510Y-111691420D02*
X104547510Y-106990920D01*
X104547510Y-106990920D02*
X114458510Y-106990920D01*
X128358510Y-111691420D02*
X128358510Y-106990920D01*
X138272510Y-106990920D02*
X138272510Y-111691420D01*
X66833710Y-111691420D02*
X69809010Y-111691420D01*
X80733910Y-106990920D02*
X90647510Y-106990920D01*
X80733910Y-111691420D02*
X80733910Y-106990920D01*
X66833710Y-97789800D02*
X66833710Y-111691420D01*
X69809010Y-111691420D02*
X69809010Y-112661560D01*
X90647510Y-111691420D02*
X104547510Y-111691420D01*
X73008710Y-111691420D02*
X80733910Y-111691420D01*
X69809010Y-112661560D02*
X73008710Y-112661560D01*
X73008710Y-112661560D02*
X73008710Y-111691420D01*
X90647510Y-106990920D02*
X90647510Y-111691420D01*
X364492510Y-54541500D02*
X364492510Y-40641000D01*
X359341510Y-54541500D02*
X345442510Y-54541500D01*
X345442510Y-40641000D02*
X359341510Y-40641000D01*
X321628510Y-40641000D02*
X335527510Y-40641000D01*
X378391510Y-40641000D02*
X378391510Y-54541500D01*
X335527510Y-54541500D02*
X321628510Y-54541500D01*
X397441510Y-54541500D02*
X383542510Y-54541500D01*
X383542510Y-40641000D02*
X397441510Y-40641000D01*
X345442510Y-54541500D02*
X345442510Y-40641000D01*
X302578510Y-54541500D02*
X302578510Y-40641000D01*
X297427510Y-54541500D02*
X283528510Y-54541500D01*
X316477510Y-54541500D02*
X302578510Y-54541500D01*
X302578510Y-40641000D02*
X316477510Y-40641000D01*
X359341510Y-40641000D02*
X359341510Y-54541500D01*
X316477510Y-40641000D02*
X316477510Y-54541500D01*
X283528510Y-54541500D02*
X283528510Y-40641000D01*
X335527510Y-40641000D02*
X335527510Y-54541500D01*
X321628510Y-54541500D02*
X321628510Y-40641000D01*
X397441510Y-40641000D02*
X397441510Y-54541500D01*
X383542510Y-54541500D02*
X383542510Y-40641000D01*
X378391510Y-54541500D02*
X364492510Y-54541500D01*
X364492510Y-40641000D02*
X378391510Y-40641000D01*
X116841510Y-40641000D02*
X130741510Y-40641000D01*
X59691410Y-40641000D02*
X73591510Y-40641000D01*
X-2221130Y-54541500D02*
X-2221130Y-40641000D01*
X193041510Y-40641000D02*
X206941510Y-40641000D01*
X111691510Y-54541500D02*
X97789510Y-54541500D01*
X-2221130Y-40641000D02*
X11677810Y-40641000D01*
X92641510Y-54541500D02*
X78741410Y-54541500D01*
X40641410Y-54541500D02*
X40641410Y-40641000D01*
X231141510Y-54541500D02*
X231141510Y-40641000D01*
X245040510Y-54541500D02*
X231141510Y-54541500D01*
X245040510Y-40641000D02*
X245040510Y-54541500D01*
X231141510Y-40641000D02*
X245040510Y-40641000D01*
X212091510Y-54541500D02*
X212091510Y-40641000D01*
X225991510Y-40641000D02*
X225991510Y-54541500D01*
X97789510Y-40641000D02*
X111691510Y-40641000D01*
X206941510Y-54541500D02*
X193041510Y-54541500D01*
X11677810Y-54541500D02*
X-2221130Y-54541500D01*
X187891510Y-40641000D02*
X187891510Y-54541500D01*
X173991510Y-40641000D02*
X187891510Y-40641000D01*
X154941510Y-40641000D02*
X168841510Y-40641000D01*
X130741510Y-40641000D02*
X130741510Y-54541500D01*
X135891510Y-40641000D02*
X149791510Y-40641000D01*
X59691410Y-54541500D02*
X59691410Y-40641000D01*
X116841510Y-54541500D02*
X116841510Y-40641000D01*
X111691510Y-40641000D02*
X111691510Y-54541500D01*
X21591410Y-40641000D02*
X35491510Y-40641000D01*
X11677810Y-40641000D02*
X11677810Y-54541500D01*
X149791510Y-54541500D02*
X135891510Y-54541500D01*
X78741410Y-40641000D02*
X92641510Y-40641000D01*
X54541510Y-54541500D02*
X40641410Y-54541500D01*
X40641410Y-40641000D02*
X54541510Y-40641000D01*
X154941510Y-54541500D02*
X154941510Y-40641000D01*
X135891510Y-54541500D02*
X135891510Y-40641000D01*
X97789510Y-54541500D02*
X97789510Y-40641000D01*
X149791510Y-40641000D02*
X149791510Y-54541500D01*
X206941510Y-40641000D02*
X206941510Y-54541500D01*
X21591410Y-54541500D02*
X21591410Y-40641000D01*
X416491510Y-40641000D02*
X402592510Y-40641000D01*
X212091510Y-40641000D02*
X225991510Y-40641000D01*
X168841510Y-54541500D02*
X154941510Y-54541500D01*
X168841510Y-40641000D02*
X168841510Y-54541500D01*
X187891510Y-54541500D02*
X173991510Y-54541500D01*
X225991510Y-54541500D02*
X212091510Y-54541500D01*
X130741510Y-54541500D02*
X116841510Y-54541500D01*
X35491510Y-40641000D02*
X35491510Y-54541500D01*
X193041510Y-54541500D02*
X193041510Y-40641000D01*
X173991510Y-54541500D02*
X173991510Y-40641000D01*
X73591510Y-40641000D02*
X73591510Y-54541500D01*
X54541510Y-40641000D02*
X54541510Y-54541500D01*
X73591510Y-54541500D02*
X59691410Y-54541500D01*
X35491510Y-54541500D02*
X21591410Y-54541500D01*
X297427510Y-40641000D02*
X297427510Y-54541500D01*
X283528510Y-40641000D02*
X297427510Y-40641000D01*
X92641510Y-40641000D02*
X92641510Y-54541500D01*
X78741410Y-54541500D02*
X78741410Y-40641000D01*
X364492510Y-73591500D02*
X364492510Y-59691000D01*
X416491510Y-73591500D02*
X416491510Y-40641000D01*
X378391510Y-59691000D02*
X378391510Y-73591500D01*
X211702510Y-59691000D02*
X211702510Y-73591500D01*
X230752510Y-59691000D02*
X230752510Y-73591500D01*
X159703510Y-59691000D02*
X173602510Y-59691000D01*
X364492510Y-59691000D02*
X378391510Y-59691000D01*
X359341510Y-73591500D02*
X345442510Y-73591500D01*
X173602510Y-59691000D02*
X173602510Y-73591500D01*
X159703510Y-73591500D02*
X159703510Y-59691000D01*
X402592510Y-73591500D02*
X416491510Y-73591500D01*
X402592510Y-70616200D02*
X402592510Y-73591500D01*
X197803510Y-59691000D02*
X211702510Y-59691000D01*
X397441510Y-73591500D02*
X383542510Y-73591500D01*
X378391510Y-73591500D02*
X364492510Y-73591500D01*
X192652510Y-73591500D02*
X178753510Y-73591500D01*
X216853510Y-73591500D02*
X216853510Y-59691000D01*
X345442510Y-59691000D02*
X359341510Y-59691000D01*
X401622510Y-70616200D02*
X402592510Y-70616200D01*
X401622510Y-67416500D02*
X401622510Y-70616200D01*
X402592510Y-46816100D02*
X402592510Y-67416500D01*
X397441510Y-59691000D02*
X397441510Y-73591500D01*
X383542510Y-59691000D02*
X397441510Y-59691000D01*
X178753510Y-73591500D02*
X178753510Y-59691000D01*
X230752510Y-73591500D02*
X216853510Y-73591500D01*
X197803510Y-73591500D02*
X197803510Y-59691000D01*
X173602510Y-73591500D02*
X159703510Y-73591500D01*
X383542510Y-73591500D02*
X383542510Y-59691000D01*
X345442510Y-73591500D02*
X345442510Y-59691000D01*
X359341510Y-59691000D02*
X359341510Y-73591500D01*
X216853510Y-59691000D02*
X230752510Y-59691000D01*
X211702510Y-73591500D02*
X197803510Y-73591500D01*
X178753510Y-59691000D02*
X192652510Y-59691000D01*
X402592510Y-67416500D02*
X401622510Y-67416500D01*
X192652510Y-59691000D02*
X192652510Y-73591500D01*
X154552510Y-59691000D02*
X154552510Y-73591500D01*
X135502510Y-59691000D02*
X135502510Y-73591500D01*
X83503910Y-73591500D02*
X83503910Y-59691000D01*
X78352610Y-73591500D02*
X64453910Y-73591500D01*
X154552510Y-73591500D02*
X140653510Y-73591500D01*
X40252610Y-73591500D02*
X26353910Y-73591500D01*
X140653510Y-59691000D02*
X154552510Y-59691000D01*
X83503910Y-59691000D02*
X97402510Y-59691000D01*
X121603510Y-59691000D02*
X135502510Y-59691000D01*
X102553510Y-73591500D02*
X102553510Y-59691000D01*
X116452510Y-73591500D02*
X102553510Y-73591500D01*
X45403910Y-73591500D02*
X45403910Y-59691000D01*
X102553510Y-59691000D02*
X116452510Y-59691000D01*
X14059010Y-73591500D02*
X158740Y-73591500D01*
X158740Y-73591500D02*
X158740Y-59691000D01*
X64453910Y-59691000D02*
X78352610Y-59691000D01*
X59302610Y-73591500D02*
X45403910Y-73591500D01*
X59302610Y-59691000D02*
X59302610Y-73591500D01*
X45403910Y-59691000D02*
X59302610Y-59691000D01*
X26353910Y-73591500D02*
X26353910Y-59691000D01*
X14059010Y-59691000D02*
X14059010Y-73591500D01*
X158740Y-59691000D02*
X14059010Y-59691000D01*
X64453910Y-73591500D02*
X64453910Y-59691000D01*
X116452510Y-59691000D02*
X116452510Y-73591500D01*
X121603510Y-73591500D02*
X121603510Y-59691000D01*
X135502510Y-73591500D02*
X121603510Y-73591500D01*
X97402510Y-73591500D02*
X83503910Y-73591500D01*
X26353910Y-59691000D02*
X40252610Y-59691000D01*
X97402510Y-59691000D02*
X97402510Y-73591500D01*
X78352610Y-59691000D02*
X78352610Y-73591500D01*
X40252610Y-59691000D02*
X40252610Y-73591500D01*
X140653510Y-73591500D02*
X140653510Y-59691000D01*
X383542510Y-92641400D02*
X383542510Y-78741000D01*
X383542510Y-78741000D02*
X397441510Y-78741000D01*
X345442510Y-78741000D02*
X359341510Y-78741000D01*
X359341510Y-92641400D02*
X345442510Y-92641400D01*
X364492510Y-92641400D02*
X364492510Y-78741000D01*
X202177510Y-78741000D02*
X202177510Y-92641400D01*
X378391510Y-78741000D02*
X378391510Y-92641400D01*
X207328510Y-92641400D02*
X207328510Y-78741000D01*
X221227510Y-92641400D02*
X207328510Y-92641400D01*
X302578510Y-78741000D02*
X316477510Y-78741000D01*
X397441510Y-92641400D02*
X383542510Y-92641400D01*
X221227510Y-78741000D02*
X221227510Y-92641400D01*
X397441510Y-78741000D02*
X397441510Y-92641400D01*
X359341510Y-78741000D02*
X359341510Y-92641400D01*
X207328510Y-78741000D02*
X221227510Y-78741000D01*
X378391510Y-92641400D02*
X364492510Y-92641400D01*
X188278510Y-92641400D02*
X188278510Y-78741000D01*
X364492510Y-78741000D02*
X378391510Y-78741000D01*
X345442510Y-92641400D02*
X345442510Y-78741000D01*
X316477510Y-92641400D02*
X302578510Y-92641400D01*
X302578510Y-92641400D02*
X302578510Y-78741000D01*
X316477510Y-78741000D02*
X316477510Y-92641400D01*
X188278510Y-78741000D02*
X202177510Y-78741000D01*
X202177510Y-92641400D02*
X188278510Y-92641400D01*
X150178510Y-78741000D02*
X164077510Y-78741000D01*
X131128510Y-92641400D02*
X131128510Y-78741000D01*
X112078510Y-92641400D02*
X112078510Y-78741000D01*
X125977510Y-92641400D02*
X112078510Y-92641400D01*
X68827610Y-78741000D02*
X68827610Y-92641400D01*
X125977510Y-78741000D02*
X125977510Y-92641400D01*
X73978910Y-92641400D02*
X73978910Y-78741000D01*
X68827610Y-92641400D02*
X54928910Y-92641400D01*
X35878910Y-78741000D02*
X49777610Y-78741000D01*
X169228510Y-92641400D02*
X169228510Y-78741000D01*
X164077510Y-78741000D02*
X164077510Y-92641400D01*
X73978910Y-78741000D02*
X87877610Y-78741000D01*
X183127510Y-78741000D02*
X183127510Y-92641400D01*
X150178510Y-92641400D02*
X150178510Y-78741000D01*
X54928910Y-78741000D02*
X68827610Y-78741000D01*
X183127510Y-92641400D02*
X169228510Y-92641400D01*
X54928910Y-92641400D02*
X54928910Y-78741000D01*
X106927510Y-92641400D02*
X93028510Y-92641400D01*
X169228510Y-78741000D02*
X183127510Y-78741000D01*
X164077510Y-92641400D02*
X150178510Y-92641400D01*
X145027510Y-92641400D02*
X131128510Y-92641400D01*
X49777610Y-78741000D02*
X49777610Y-92641400D01*
X145027510Y-78741000D02*
X145027510Y-92641400D01*
X131128510Y-78741000D02*
X145027510Y-78741000D01*
X106927510Y-78741000D02*
X106927510Y-92641400D01*
X93028510Y-78741000D02*
X106927510Y-78741000D01*
X87877610Y-78741000D02*
X87877610Y-92641400D01*
X87877610Y-92641400D02*
X73978910Y-92641400D01*
X112078510Y-78741000D02*
X125977510Y-78741000D01*
X35878910Y-92641400D02*
X35878910Y-78741000D01*
X93028510Y-92641400D02*
X93028510Y-78741000D01*
X49777610Y-92641400D02*
X35878910Y-92641400D01*
X27922010Y-78741000D02*
X-4177920Y-78741000D01*
X1572610Y-92641400D02*
X22172910Y-92641400D01*
X22172910Y-92641400D02*
X22172910Y-93611600D01*
X1572610Y-93611600D02*
X1572610Y-92641400D01*
X27922010Y-78741000D02*
X27922010Y-92641400D01*
X25372710Y-92641400D02*
X27922010Y-92641400D01*
X22172910Y-93611600D02*
X25372710Y-93611600D01*
X25372710Y-93611600D02*
X25372710Y-92641400D01*
X401622510Y-108716250D02*
X402592510Y-108716250D01*
X-4177920Y-78741000D02*
X-4177920Y-92641400D01*
X416491510Y-78741000D02*
X402592510Y-78741000D01*
X402592510Y-108716250D02*
X402592510Y-111691420D01*
X416491510Y-111691420D02*
X416491510Y-78741000D01*
X-1627190Y-93611600D02*
X1572610Y-93611600D01*
X-1627190Y-92641400D02*
X-1627190Y-93611600D01*
X402592510Y-111691420D02*
X416491510Y-111691420D01*
X-4177920Y-92641400D02*
X-1627190Y-92641400D01*
X401622510Y-81716300D02*
X401622510Y-84916100D01*
X316477510Y-111691420D02*
X302578510Y-111691420D01*
X397441510Y-97789800D02*
X397441510Y-111691420D01*
X383542510Y-97789800D02*
X397441510Y-97789800D01*
X302578510Y-111691420D02*
X302578510Y-97789800D01*
X397441510Y-111691420D02*
X383542510Y-111691420D01*
X401622510Y-105516420D02*
X401622510Y-108716250D01*
X321628510Y-111691420D02*
X321628510Y-97789800D01*
X402592510Y-105516420D02*
X401622510Y-105516420D01*
X402592510Y-81716300D02*
X401622510Y-81716300D01*
X401622510Y-84916100D02*
X402592510Y-84916100D01*
X335527510Y-111691420D02*
X321628510Y-111691420D01*
X335527510Y-97789800D02*
X335527510Y-111691420D01*
X383542510Y-111691420D02*
X383542510Y-97789800D01*
X402592510Y-84916100D02*
X402592510Y-105516420D01*
X321628510Y-97789800D02*
X335527510Y-97789800D01*
X178366510Y-21591000D02*
X178366510Y-35491500D01*
X202566510Y-35491500D02*
X202566510Y-21591000D01*
X235516510Y-35491500D02*
X221616510Y-35491500D01*
X183516510Y-35491500D02*
X183516510Y-21591000D01*
X164466510Y-21591000D02*
X178366510Y-21591000D01*
X216466510Y-21591000D02*
X216466510Y-35491500D01*
X297427510Y-21591000D02*
X297427510Y-35491500D01*
X283528510Y-21591000D02*
X297427510Y-21591000D01*
X302578510Y-21591000D02*
X316477510Y-21591000D01*
X283528510Y-35491500D02*
X283528510Y-21591000D01*
X216466510Y-35491500D02*
X202566510Y-35491500D01*
X183516510Y-21591000D02*
X197416510Y-21591000D01*
X297427510Y-35491500D02*
X283528510Y-35491500D01*
X221616510Y-21591000D02*
X235516510Y-21591000D01*
X197416510Y-21591000D02*
X197416510Y-35491500D01*
X145416510Y-35491500D02*
X145416510Y-21591000D01*
X221616510Y-35491500D02*
X221616510Y-21591000D01*
X335527510Y-21591000D02*
X335527510Y-35491500D01*
X321628510Y-21591000D02*
X335527510Y-21591000D01*
X302578510Y-35491500D02*
X302578510Y-21591000D01*
X316477510Y-35491500D02*
X302578510Y-35491500D01*
X316477510Y-21591000D02*
X316477510Y-35491500D01*
X164466510Y-35491500D02*
X164466510Y-21591000D01*
X178366510Y-35491500D02*
X164466510Y-35491500D01*
X159316510Y-35491500D02*
X145416510Y-35491500D01*
X235516510Y-21591000D02*
X235516510Y-35491500D01*
X197416510Y-35491500D02*
X183516510Y-35491500D01*
X202566510Y-21591000D02*
X216466510Y-21591000D01*
X31114910Y-35491500D02*
X31114910Y-21591000D01*
X126366510Y-21591000D02*
X140266510Y-21591000D01*
X121216510Y-21591000D02*
X121216510Y-35491500D01*
X107316510Y-21591000D02*
X121216510Y-21591000D01*
X25966510Y-21591000D02*
X25966510Y-35491500D01*
X83116510Y-21591000D02*
X83116510Y-35491500D01*
X246841510Y-35491500D02*
X267441511Y-35491500D01*
X140266510Y-21591000D02*
X140266510Y-35491500D01*
X88264910Y-35491500D02*
X88264910Y-21591000D01*
X107316510Y-35491500D02*
X107316510Y-21591000D01*
X273190510Y-35491500D02*
X273190510Y-21591000D01*
X243641510Y-36461700D02*
X246841510Y-36461700D01*
X12066410Y-35491500D02*
X12066410Y-21591000D01*
X241090510Y-35491500D02*
X243641510Y-35491500D01*
X241090510Y-21591000D02*
X241090510Y-28991300D01*
X6916710Y-21591000D02*
X6916710Y-35491500D01*
X121216510Y-35491500D02*
X107316510Y-35491500D01*
X69214910Y-35491500D02*
X69214910Y-21591000D01*
X64066510Y-35491500D02*
X50164910Y-35491500D01*
X267441510Y-36461700D02*
X270641510Y-36461700D01*
X102165510Y-21591000D02*
X102165510Y-35491500D01*
X-6985000Y-35491500D02*
X-6985000Y-21591000D01*
X270641510Y-36461700D02*
X270641510Y-35491500D01*
X243641510Y-35491500D02*
X243641510Y-36461700D01*
X126366510Y-35491500D02*
X126366510Y-21591000D01*
X140266510Y-35491500D02*
X126366510Y-35491500D01*
X25966510Y-35491500D02*
X12066410Y-35491500D01*
X102165510Y-35491500D02*
X88264910Y-35491500D01*
X88264910Y-21591000D02*
X102165510Y-21591000D01*
X-6985000Y-21591000D02*
X6916710Y-21591000D01*
X83116510Y-35491500D02*
X69214910Y-35491500D01*
X69214910Y-21591000D02*
X83116510Y-21591000D01*
X45016510Y-35491500D02*
X31114910Y-35491500D01*
X50164910Y-35491500D02*
X50164910Y-21591000D01*
X12066410Y-21591000D02*
X25966510Y-21591000D01*
X267441511Y-35491500D02*
X267441510Y-36461700D01*
X6916710Y-35491500D02*
X-6985000Y-35491500D01*
X273190510Y-21591000D02*
X241090510Y-21591000D01*
X241090510Y-28991300D02*
X241090510Y-35491500D01*
X64066510Y-21591000D02*
X64066510Y-35491500D01*
X50164910Y-21591000D02*
X64066510Y-21591000D01*
X31114910Y-21591000D02*
X45016510Y-21591000D01*
X246841510Y-36461700D02*
X246841510Y-35491500D01*
X45016510Y-21591000D02*
X45016510Y-35491500D01*
X270641510Y-35491500D02*
X273190510Y-35491500D01*
X159316510Y-21591000D02*
X159316510Y-35491500D01*
X145416510Y-21591000D02*
X159316510Y-21591000D01*
X223608510Y-97789800D02*
X223608510Y-111691420D01*
X302578510Y-97789800D02*
X316477510Y-97789800D01*
X283528510Y-111691420D02*
X283528510Y-97789800D01*
X247422510Y-111691420D02*
X233522510Y-111691420D01*
X257333510Y-97789800D02*
X271233510Y-97789800D01*
X199797510Y-97789800D02*
X199797510Y-111691420D01*
X297427510Y-97789800D02*
X297427510Y-111691420D01*
X271233510Y-111691420D02*
X257333510Y-111691420D01*
X247422510Y-97789800D02*
X247422510Y-111691420D01*
X233522510Y-97789800D02*
X247422510Y-97789800D01*
X283528510Y-97789800D02*
X297427510Y-97789800D01*
X209708510Y-111691420D02*
X209708510Y-97789800D01*
X209708510Y-97789800D02*
X223608510Y-97789800D01*
X271233510Y-97789800D02*
X271233510Y-111691420D01*
X316477510Y-97789800D02*
X316477510Y-111691420D01*
X257333510Y-111691420D02*
X257333510Y-97789800D01*
X185897510Y-111691420D02*
X185897510Y-97789800D01*
X199797510Y-111691420D02*
X185897510Y-111691420D01*
X43022610Y-111691420D02*
X43022610Y-97789800D01*
X185897510Y-97789800D02*
X199797510Y-97789800D01*
X297427510Y-111691420D02*
X283528510Y-111691420D01*
X233522510Y-111691420D02*
X233522510Y-97789800D01*
X223608510Y-111691420D02*
X209708510Y-111691420D01*
X375417510Y-111691420D02*
X378391510Y-111691420D01*
X372218510Y-112661560D02*
X375417510Y-112661560D01*
X-4602380Y-97789800D02*
X9297910Y-97789800D01*
X351616510Y-111691420D02*
X372218510Y-111691420D01*
X33108810Y-111691420D02*
X19208710Y-111691420D01*
X19208710Y-97789800D02*
X33108810Y-97789800D01*
X378391510Y-111691420D02*
X378391510Y-97789800D01*
X9297910Y-97789800D02*
X9297910Y-111691420D01*
X375417510Y-112661560D02*
X375417510Y-111691420D01*
X351616510Y-112661560D02*
X351616510Y-111691420D01*
X372218510Y-111691420D02*
X372218510Y-112661560D01*
X56922810Y-111691420D02*
X43022610Y-111691420D01*
X9297910Y-111691420D02*
X-4602380Y-111691420D01*
X56922810Y-97789800D02*
X56922810Y-111691420D01*
X43022610Y-97789800D02*
X56922810Y-97789800D01*
X19208710Y-111691420D02*
X19208710Y-97789800D01*
X33108810Y-97789800D02*
X33108810Y-111691420D01*
X-4602380Y-111691420D02*
X-4602380Y-97789800D01*
X378391510Y-97789800D02*
X345442510Y-97789800D01*
X31114910Y-6917000D02*
X31114910Y6985000D01*
X345442510Y-21591000D02*
X359341510Y-21591000D01*
X45016510Y-6917000D02*
X31114910Y-6917000D01*
X45016510Y6985000D02*
X45016510Y-6917000D01*
X31114910Y6985000D02*
X45016510Y6985000D01*
X6916710Y-6917000D02*
X-6985000Y-6917000D01*
X397441510Y-21591000D02*
X397441510Y-35491500D01*
X364492510Y-35491500D02*
X364492510Y-21591000D01*
X397441510Y-35491500D02*
X383542510Y-35491500D01*
X378391510Y-21591000D02*
X378391510Y-35491500D01*
X383542510Y-21591000D02*
X397441510Y-21591000D01*
X-6985000Y6985000D02*
X6916710Y6985000D01*
X-6985000Y-6917000D02*
X-6985000Y6985000D01*
X6916710Y6985000D02*
X6916710Y-6917000D01*
X64066510Y6985000D02*
X64066510Y-6917000D01*
X383542510Y-35491500D02*
X383542510Y-21591000D01*
X359341510Y-35491500D02*
X345442510Y-35491500D01*
X416491510Y-35491500D02*
X402592510Y-35491500D01*
X416491510Y-21591000D02*
X416491510Y-35491500D01*
X359341510Y-21591000D02*
X359341510Y-35491500D01*
X364492510Y-21591000D02*
X378391510Y-21591000D01*
X335527510Y-35491500D02*
X321628510Y-35491500D01*
X345442510Y-35491500D02*
X345442510Y-21591000D01*
X321628510Y-35491500D02*
X321628510Y-21591000D01*
X378391510Y-35491500D02*
X364492510Y-35491500D01*
X50164910Y6985000D02*
X64066510Y6985000D01*
X402592510Y-35491500D02*
X402592510Y-21591000D01*
X402592510Y-21591000D02*
X416491510Y-21591000D01*
X202566510Y6985000D02*
X216466510Y6985000D01*
X173991510Y-6917000D02*
X173991510Y6985000D01*
X259716510Y6985000D02*
X273616510Y6985000D01*
X83116510Y-6917000D02*
X69214910Y-6917000D01*
X69214910Y6985000D02*
X83116510Y6985000D01*
X335527510Y6985000D02*
X335527510Y-6917000D01*
X321628510Y6985000D02*
X335527510Y6985000D01*
X297427510Y-6917000D02*
X283528510Y-6917000D01*
X221616510Y6985000D02*
X235516510Y6985000D01*
X154941510Y-6917000D02*
X154941510Y6985000D01*
X149790510Y6985000D02*
X149790510Y-6917000D01*
X64066510Y-6917000D02*
X50164910Y-6917000D01*
X149790510Y-6917000D02*
X135891510Y-6917000D01*
X116841510Y6985000D02*
X130740510Y6985000D01*
X102165510Y6985000D02*
X102165510Y-6917000D01*
X302578510Y-6917000D02*
X302578510Y6985000D01*
X283528510Y6985000D02*
X297427510Y6985000D01*
X240666510Y-6917000D02*
X240666510Y6985000D01*
X69214910Y-6917000D02*
X69214910Y6985000D01*
X235516510Y-6917000D02*
X221616510Y-6917000D01*
X154941510Y6985000D02*
X168841510Y6985000D01*
X316477510Y-6917000D02*
X302578510Y-6917000D01*
X202566510Y-6917000D02*
X202566510Y6985000D01*
X135891510Y6985000D02*
X149790510Y6985000D01*
X240666510Y6985000D02*
X254566510Y6985000D01*
X216466510Y-6917000D02*
X202566510Y-6917000D01*
X135891510Y-6917000D02*
X135891510Y6985000D01*
X83116510Y6985000D02*
X83116510Y-6917000D01*
X102165510Y-6917000D02*
X88264910Y-6917000D01*
X187891510Y-6917000D02*
X173991510Y-6917000D01*
X216466510Y6985000D02*
X216466510Y-6917000D01*
X316477510Y6985000D02*
X316477510Y-6917000D01*
X130740510Y6985000D02*
X130740510Y-6917000D01*
X50164910Y-6917000D02*
X50164910Y6985000D01*
X254566510Y-6917000D02*
X240666510Y-6917000D01*
X302578510Y6985000D02*
X316477510Y6985000D01*
X321628510Y-6917000D02*
X321628510Y6985000D01*
X221616510Y-6917000D02*
X221616510Y6985000D01*
X335527510Y-6917000D02*
X321628510Y-6917000D01*
X273616510Y6985000D02*
X273616510Y-6917000D01*
X254566510Y6985000D02*
X254566510Y-6917000D01*
X173991510Y6985000D02*
X187891510Y6985000D01*
X88264910Y-6917000D02*
X88264910Y6985000D01*
X187891510Y6985000D02*
X187891510Y-6917000D01*
X168841510Y6985000D02*
X168841510Y-6917000D01*
X259716510Y-6917000D02*
X259716510Y6985000D01*
X168841510Y-6917000D02*
X154941510Y-6917000D01*
X297427510Y6985000D02*
X297427510Y-6917000D01*
X273616510Y-6917000D02*
X259716510Y-6917000D01*
X116841510Y-6917000D02*
X116841510Y6985000D01*
X283528510Y-6917000D02*
X283528510Y6985000D01*
X235516510Y6985000D02*
X235516510Y-6917000D01*
X130740510Y-6917000D02*
X116841510Y-6917000D01*
X88264910Y6985000D02*
X102165510Y6985000D01*
X420370000Y6985000D02*
X420370000Y-113030000D01*
X420370000Y-113030000D02*
G75*
G02X417830000Y-115570000I-2540000J0D01*
G01*
X-6985000Y-115570000D02*
X417830000Y-115570000D01*
X417830000Y9525000D02*
X-6985000Y9525000D01*
X417830000Y9525000D02*
G75*
G02X420370000Y6985000I0J-2540000D01*
G01*
X-9525000Y-113030000D02*
X-9525000Y6985000D01*
X-6985000Y-115570000D02*
G75*
G02X-9525000Y-113030000I0J2540000D01*
G01*
X-9525000Y6985000D02*
G75*
G02X-6985000Y9525000I2540000J0D01*
G01*
%LPC*%
D12*
X17145000Y5905500D03*
X343535000Y-12700000D03*
X343535000Y5905500D03*
X319405000Y-38100000D03*
X279400000Y5905500D03*
X123825000Y-37465000D03*
X228600000Y-38735000D03*
X228600000Y-95250000D03*
X133350000Y-96520000D03*
X381000000Y-95250000D03*
X17145000Y-39370000D03*
X14224000Y-99250500D03*
X416814000Y5969000D03*
X299974000Y-94996000D03*
X109474000Y5905500D03*
X195580000Y5905500D03*
M02*
