M48
; DRILL file {KiCad (5.1.5)-3} date 2021/02/16 22:27:21
; FORMAT={-:-/ absolute / metric / decimal}
; #@! TF.CreationDate,2021-02-16T22:27:21+09:00
; #@! TF.GenerationSoftware,Kicad,Pcbnew,(5.1.5)-3
; #@! TF.FileFunction,Plated,1,2,PTH
FMAT,2
METRIC
T1C0.800
T2C1.000
%
G90
G05
T1
X17.455Y-102.251
X18.796Y-25.316
X23.208Y-23.041
X23.23Y0.677
X25.339Y-101.651
X29.301Y-41.173
X41.268Y-19.304
X42.517Y6.781
X49.188Y-101.422
X49.468Y-98.552
X52.737Y3.028
X59.75Y8.31
X60.676Y-77.893
X61.104Y-60.122
X64.966Y-63.019
X65.045Y0.677
X65.045Y-23.041
X66.285Y-75.816
X76.8Y6.68
X81.352Y-82.738
X82.547Y-21.883
X82.966Y0.677
X93.307Y-102.143
X95.823Y6.68
X97.85Y-20.259
X100.076Y-83.163
X100.887Y-96.8
X113.164Y3.563
X119.379Y-21.883
X120.909Y-101.559
X125.515Y7.985
X130.755Y0.677
X137.315Y-82.372
X137.911Y-22.022
X142.869Y-102.829
X143.602Y6.502
X145.114Y-98.222
X149.082Y0.677
X153.804Y-77.73
X155.745Y-61.91
X156.345Y-82.372
X156.768Y-21.872
X162.921Y6.8
X167.567Y3.32
X171.853Y-82.372
X183.066Y5.321
X184.265Y-23.041
X192.928Y-101.642
X196.464Y-3.811
X202.991Y-20.976
X210.333Y6.68
X216.729Y-100.489
X220.359Y-23.041
X224.228Y3.48
X224.537Y-62.897
X226.643Y5.08
X236.165Y-100.946
X237.947Y-44.622
X239.642Y-101.422
X242.708Y3.32
X252.06Y6.68
X256.927Y-20.922
X260.964Y-20.656
X262.4Y2.568
X263.58Y-101.422
X270.308Y5.316
X282.975Y3.48
X290.666Y-44.422
X291.35Y-98.222
X292.287Y8.047
X294.552Y-20.864
X298.015Y0.677
X306.788Y-91.996
X308.883Y-44.422
X309.626Y-82.854
X310.226Y6.68
X310.526Y-78.33
X311.932Y-80.536
X328.676Y3.32
X328.676Y-101.23
X334.092Y-21.883
X335.849Y6.68
X351.772Y-25.325
X353.435Y-22.022
X353.452Y-40.167
X357.361Y-99.45
X360.978Y-39.389
X361.617Y-101.422
X363.725Y-24.79
X367.302Y-100.511
X368.331Y-95.431
X370.119Y-42.922
X370.736Y-82.372
X370.776Y-21.784
X371.737Y-24.949
X372.394Y-21.91
X382.19Y-20.902
X390.51Y-101.772
X401.835Y-57.676
X404.195Y-93.793
X404.915Y-60.346
X405.402Y-45.162
X409.276Y-79.958
X409.393Y-95.776
X410.525Y-66.384
X412.186Y-23.489
T2
X369.824Y-3.175
X369.824Y-5.715
X369.824Y-8.255
T0
M30
