G04 #@! TF.GenerationSoftware,KiCad,Pcbnew,(5.1.5)-3*
G04 #@! TF.CreationDate,2021-02-16T22:27:21+09:00*
G04 #@! TF.ProjectId,bottomplate,626f7474-6f6d-4706-9c61-74652e6b6963,rev?*
G04 #@! TF.SameCoordinates,Original*
G04 #@! TF.FileFunction,Soldermask,Top*
G04 #@! TF.FilePolarity,Negative*
%FSLAX46Y46*%
G04 Gerber Fmt 4.6, Leading zero omitted, Abs format (unit mm)*
G04 Created by KiCad (PCBNEW (5.1.5)-3) date 2021-02-16 22:27:21*
%MOMM*%
%LPD*%
G04 APERTURE LIST*
%ADD10C,0.050000*%
%ADD11C,0.100000*%
G04 APERTURE END LIST*
D10*
X417830000Y9525000D02*
G75*
G02X420370000Y6985000I0J-2540000D01*
G01*
X-9525000Y6985000D02*
G75*
G02X-6985000Y9525000I2540000J0D01*
G01*
X420370000Y-113030000D02*
G75*
G02X417830000Y-115570000I-2540000J0D01*
G01*
X-6985000Y-115570000D02*
G75*
G02X-9525000Y-113030000I0J2540000D01*
G01*
X420370000Y6985000D02*
X420370000Y-113030000D01*
X-6985000Y-115570000D02*
X417830000Y-115570000D01*
X-9525000Y-113030000D02*
X-9525000Y6985000D01*
X417830000Y9525000D02*
X-6985000Y9525000D01*
D11*
G36*
X411853000Y-103627000D02*
G01*
X410751000Y-103627000D01*
X410751000Y-101725000D01*
X411853000Y-101725000D01*
X411853000Y-103627000D01*
G37*
G36*
X408653000Y-103627000D02*
G01*
X407551000Y-103627000D01*
X407551000Y-101725000D01*
X408653000Y-101725000D01*
X408653000Y-103627000D01*
G37*
G36*
X169207000Y-103433000D02*
G01*
X168105000Y-103433000D01*
X168105000Y-101531000D01*
X169207000Y-101531000D01*
X169207000Y-103433000D01*
G37*
G36*
X166007000Y-103433000D02*
G01*
X164905000Y-103433000D01*
X164905000Y-101531000D01*
X166007000Y-101531000D01*
X166007000Y-103433000D01*
G37*
G36*
X368521000Y-103373000D02*
G01*
X367419000Y-103373000D01*
X367419000Y-101471000D01*
X368521000Y-101471000D01*
X368521000Y-103373000D01*
G37*
G36*
X371721000Y-103373000D02*
G01*
X370619000Y-103373000D01*
X370619000Y-101471000D01*
X371721000Y-101471000D01*
X371721000Y-103373000D01*
G37*
G36*
X74897000Y-103373000D02*
G01*
X73795000Y-103373000D01*
X73795000Y-101471000D01*
X74897000Y-101471000D01*
X74897000Y-103373000D01*
G37*
G36*
X78097000Y-103373000D02*
G01*
X76995000Y-103373000D01*
X76995000Y-101471000D01*
X78097000Y-101471000D01*
X78097000Y-103373000D01*
G37*
G36*
X356481000Y-103373000D02*
G01*
X355379000Y-103373000D01*
X355379000Y-101471000D01*
X356481000Y-101471000D01*
X356481000Y-103373000D01*
G37*
G36*
X353281000Y-103373000D02*
G01*
X352179000Y-103373000D01*
X352179000Y-101471000D01*
X353281000Y-101471000D01*
X353281000Y-103373000D01*
G37*
G36*
X394203000Y-101973000D02*
G01*
X392301000Y-101973000D01*
X392301000Y-100871000D01*
X394203000Y-100871000D01*
X394203000Y-101973000D01*
G37*
G36*
X196591000Y-101973000D02*
G01*
X194689000Y-101973000D01*
X194689000Y-100871000D01*
X196591000Y-100871000D01*
X196591000Y-101973000D01*
G37*
G36*
X389003000Y-101973000D02*
G01*
X387101000Y-101973000D01*
X387101000Y-100871000D01*
X389003000Y-100871000D01*
X389003000Y-101973000D01*
G37*
G36*
X307977000Y-101973000D02*
G01*
X306075000Y-101973000D01*
X306075000Y-100871000D01*
X307977000Y-100871000D01*
X307977000Y-101973000D01*
G37*
G36*
X101341000Y-101973000D02*
G01*
X99439000Y-101973000D01*
X99439000Y-100871000D01*
X101341000Y-100871000D01*
X101341000Y-101973000D01*
G37*
G36*
X96141000Y-101973000D02*
G01*
X94239000Y-101973000D01*
X94239000Y-100871000D01*
X96141000Y-100871000D01*
X96141000Y-101973000D01*
G37*
G36*
X148839000Y-101973000D02*
G01*
X146937000Y-101973000D01*
X146937000Y-100871000D01*
X148839000Y-100871000D01*
X148839000Y-101973000D01*
G37*
G36*
X143639000Y-101973000D02*
G01*
X141737000Y-101973000D01*
X141737000Y-100871000D01*
X143639000Y-100871000D01*
X143639000Y-101973000D01*
G37*
G36*
X294127000Y-101973000D02*
G01*
X292225000Y-101973000D01*
X292225000Y-100871000D01*
X294127000Y-100871000D01*
X294127000Y-101973000D01*
G37*
G36*
X244089000Y-101973000D02*
G01*
X242187000Y-101973000D01*
X242187000Y-100871000D01*
X244089000Y-100871000D01*
X244089000Y-101973000D01*
G37*
G36*
X238889000Y-101973000D02*
G01*
X236987000Y-101973000D01*
X236987000Y-100871000D01*
X238889000Y-100871000D01*
X238889000Y-101973000D01*
G37*
G36*
X267965000Y-101973000D02*
G01*
X266063000Y-101973000D01*
X266063000Y-100871000D01*
X267965000Y-100871000D01*
X267965000Y-101973000D01*
G37*
G36*
X262765000Y-101973000D02*
G01*
X260863000Y-101973000D01*
X260863000Y-100871000D01*
X262765000Y-100871000D01*
X262765000Y-101973000D01*
G37*
G36*
X191391000Y-101973000D02*
G01*
X189489000Y-101973000D01*
X189489000Y-100871000D01*
X191391000Y-100871000D01*
X191391000Y-101973000D01*
G37*
G36*
X313177000Y-101973000D02*
G01*
X311275000Y-101973000D01*
X311275000Y-100871000D01*
X313177000Y-100871000D01*
X313177000Y-101973000D01*
G37*
G36*
X120017000Y-101973000D02*
G01*
X118115000Y-101973000D01*
X118115000Y-100871000D01*
X120017000Y-100871000D01*
X120017000Y-101973000D01*
G37*
G36*
X125217000Y-101973000D02*
G01*
X123315000Y-101973000D01*
X123315000Y-100871000D01*
X125217000Y-100871000D01*
X125217000Y-101973000D01*
G37*
G36*
X24513000Y-101973000D02*
G01*
X22611000Y-101973000D01*
X22611000Y-100871000D01*
X24513000Y-100871000D01*
X24513000Y-101973000D01*
G37*
G36*
X29713000Y-101973000D02*
G01*
X27811000Y-101973000D01*
X27811000Y-100871000D01*
X29713000Y-100871000D01*
X29713000Y-101973000D01*
G37*
G36*
X5837000Y-101973000D02*
G01*
X3935000Y-101973000D01*
X3935000Y-100871000D01*
X5837000Y-100871000D01*
X5837000Y-101973000D01*
G37*
G36*
X220213000Y-101973000D02*
G01*
X218311000Y-101973000D01*
X218311000Y-100871000D01*
X220213000Y-100871000D01*
X220213000Y-101973000D01*
G37*
G36*
X215013000Y-101973000D02*
G01*
X213111000Y-101973000D01*
X213111000Y-100871000D01*
X215013000Y-100871000D01*
X215013000Y-101973000D01*
G37*
G36*
X327027000Y-101973000D02*
G01*
X325125000Y-101973000D01*
X325125000Y-100871000D01*
X327027000Y-100871000D01*
X327027000Y-101973000D01*
G37*
G36*
X332227000Y-101973000D02*
G01*
X330325000Y-101973000D01*
X330325000Y-100871000D01*
X332227000Y-100871000D01*
X332227000Y-101973000D01*
G37*
G36*
X48389000Y-101973000D02*
G01*
X46487000Y-101973000D01*
X46487000Y-100871000D01*
X48389000Y-100871000D01*
X48389000Y-101973000D01*
G37*
G36*
X53589000Y-101973000D02*
G01*
X51687000Y-101973000D01*
X51687000Y-100871000D01*
X53589000Y-100871000D01*
X53589000Y-101973000D01*
G37*
G36*
X365501000Y-101973000D02*
G01*
X363599000Y-101973000D01*
X363599000Y-100871000D01*
X365501000Y-100871000D01*
X365501000Y-101973000D01*
G37*
G36*
X360301000Y-101973000D02*
G01*
X358399000Y-101973000D01*
X358399000Y-100871000D01*
X360301000Y-100871000D01*
X360301000Y-101973000D01*
G37*
G36*
X637000Y-101973000D02*
G01*
X-1265000Y-101973000D01*
X-1265000Y-100871000D01*
X637000Y-100871000D01*
X637000Y-101973000D01*
G37*
G36*
X288927000Y-101973000D02*
G01*
X287025000Y-101973000D01*
X287025000Y-100871000D01*
X288927000Y-100871000D01*
X288927000Y-101973000D01*
G37*
G36*
X14448549Y-98121616D02*
G01*
X14559734Y-98143732D01*
X14769203Y-98230497D01*
X14957720Y-98356460D01*
X15118040Y-98516780D01*
X15244003Y-98705297D01*
X15330768Y-98914766D01*
X15375000Y-99137136D01*
X15375000Y-99363864D01*
X15330768Y-99586234D01*
X15244003Y-99795703D01*
X15118040Y-99984220D01*
X14957720Y-100144540D01*
X14769203Y-100270503D01*
X14559734Y-100357268D01*
X14448549Y-100379384D01*
X14337365Y-100401500D01*
X14110635Y-100401500D01*
X13999451Y-100379384D01*
X13888266Y-100357268D01*
X13678797Y-100270503D01*
X13490280Y-100144540D01*
X13329960Y-99984220D01*
X13203997Y-99795703D01*
X13117232Y-99586234D01*
X13073000Y-99363864D01*
X13073000Y-99137136D01*
X13117232Y-98914766D01*
X13203997Y-98705297D01*
X13329960Y-98516780D01*
X13490280Y-98356460D01*
X13678797Y-98230497D01*
X13888266Y-98143732D01*
X13999451Y-98121616D01*
X14110635Y-98099500D01*
X14337365Y-98099500D01*
X14448549Y-98121616D01*
G37*
G36*
X101341000Y-98773000D02*
G01*
X99439000Y-98773000D01*
X99439000Y-97671000D01*
X101341000Y-97671000D01*
X101341000Y-98773000D01*
G37*
G36*
X389003000Y-98773000D02*
G01*
X387101000Y-98773000D01*
X387101000Y-97671000D01*
X389003000Y-97671000D01*
X389003000Y-98773000D01*
G37*
G36*
X313177000Y-98773000D02*
G01*
X311275000Y-98773000D01*
X311275000Y-97671000D01*
X313177000Y-97671000D01*
X313177000Y-98773000D01*
G37*
G36*
X215013000Y-98773000D02*
G01*
X213111000Y-98773000D01*
X213111000Y-97671000D01*
X215013000Y-97671000D01*
X215013000Y-98773000D01*
G37*
G36*
X360301000Y-98773000D02*
G01*
X358399000Y-98773000D01*
X358399000Y-97671000D01*
X360301000Y-97671000D01*
X360301000Y-98773000D01*
G37*
G36*
X365501000Y-98773000D02*
G01*
X363599000Y-98773000D01*
X363599000Y-97671000D01*
X365501000Y-97671000D01*
X365501000Y-98773000D01*
G37*
G36*
X53589000Y-98773000D02*
G01*
X51687000Y-98773000D01*
X51687000Y-97671000D01*
X53589000Y-97671000D01*
X53589000Y-98773000D01*
G37*
G36*
X48389000Y-98773000D02*
G01*
X46487000Y-98773000D01*
X46487000Y-97671000D01*
X48389000Y-97671000D01*
X48389000Y-98773000D01*
G37*
G36*
X196591000Y-98773000D02*
G01*
X194689000Y-98773000D01*
X194689000Y-97671000D01*
X196591000Y-97671000D01*
X196591000Y-98773000D01*
G37*
G36*
X5837000Y-98773000D02*
G01*
X3935000Y-98773000D01*
X3935000Y-97671000D01*
X5837000Y-97671000D01*
X5837000Y-98773000D01*
G37*
G36*
X96141000Y-98773000D02*
G01*
X94239000Y-98773000D01*
X94239000Y-97671000D01*
X96141000Y-97671000D01*
X96141000Y-98773000D01*
G37*
G36*
X332227000Y-98773000D02*
G01*
X330325000Y-98773000D01*
X330325000Y-97671000D01*
X332227000Y-97671000D01*
X332227000Y-98773000D01*
G37*
G36*
X637000Y-98773000D02*
G01*
X-1265000Y-98773000D01*
X-1265000Y-97671000D01*
X637000Y-97671000D01*
X637000Y-98773000D01*
G37*
G36*
X220213000Y-98773000D02*
G01*
X218311000Y-98773000D01*
X218311000Y-97671000D01*
X220213000Y-97671000D01*
X220213000Y-98773000D01*
G37*
G36*
X29713000Y-98773000D02*
G01*
X27811000Y-98773000D01*
X27811000Y-97671000D01*
X29713000Y-97671000D01*
X29713000Y-98773000D01*
G37*
G36*
X24513000Y-98773000D02*
G01*
X22611000Y-98773000D01*
X22611000Y-97671000D01*
X24513000Y-97671000D01*
X24513000Y-98773000D01*
G37*
G36*
X394203000Y-98773000D02*
G01*
X392301000Y-98773000D01*
X392301000Y-97671000D01*
X394203000Y-97671000D01*
X394203000Y-98773000D01*
G37*
G36*
X148839000Y-98773000D02*
G01*
X146937000Y-98773000D01*
X146937000Y-97671000D01*
X148839000Y-97671000D01*
X148839000Y-98773000D01*
G37*
G36*
X143639000Y-98773000D02*
G01*
X141737000Y-98773000D01*
X141737000Y-97671000D01*
X143639000Y-97671000D01*
X143639000Y-98773000D01*
G37*
G36*
X294127000Y-98773000D02*
G01*
X292225000Y-98773000D01*
X292225000Y-97671000D01*
X294127000Y-97671000D01*
X294127000Y-98773000D01*
G37*
G36*
X244089000Y-98773000D02*
G01*
X242187000Y-98773000D01*
X242187000Y-97671000D01*
X244089000Y-97671000D01*
X244089000Y-98773000D01*
G37*
G36*
X238889000Y-98773000D02*
G01*
X236987000Y-98773000D01*
X236987000Y-97671000D01*
X238889000Y-97671000D01*
X238889000Y-98773000D01*
G37*
G36*
X267965000Y-98773000D02*
G01*
X266063000Y-98773000D01*
X266063000Y-97671000D01*
X267965000Y-97671000D01*
X267965000Y-98773000D01*
G37*
G36*
X262765000Y-98773000D02*
G01*
X260863000Y-98773000D01*
X260863000Y-97671000D01*
X262765000Y-97671000D01*
X262765000Y-98773000D01*
G37*
G36*
X307977000Y-98773000D02*
G01*
X306075000Y-98773000D01*
X306075000Y-97671000D01*
X307977000Y-97671000D01*
X307977000Y-98773000D01*
G37*
G36*
X288927000Y-98773000D02*
G01*
X287025000Y-98773000D01*
X287025000Y-97671000D01*
X288927000Y-97671000D01*
X288927000Y-98773000D01*
G37*
G36*
X327027000Y-98773000D02*
G01*
X325125000Y-98773000D01*
X325125000Y-97671000D01*
X327027000Y-97671000D01*
X327027000Y-98773000D01*
G37*
G36*
X120017000Y-98773000D02*
G01*
X118115000Y-98773000D01*
X118115000Y-97671000D01*
X120017000Y-97671000D01*
X120017000Y-98773000D01*
G37*
G36*
X125217000Y-98773000D02*
G01*
X123315000Y-98773000D01*
X123315000Y-97671000D01*
X125217000Y-97671000D01*
X125217000Y-98773000D01*
G37*
G36*
X191391000Y-98773000D02*
G01*
X189489000Y-98773000D01*
X189489000Y-97671000D01*
X191391000Y-97671000D01*
X191391000Y-98773000D01*
G37*
G36*
X403573000Y-98547000D02*
G01*
X402471000Y-98547000D01*
X402471000Y-96645000D01*
X403573000Y-96645000D01*
X403573000Y-98547000D01*
G37*
G36*
X406773000Y-98547000D02*
G01*
X405671000Y-98547000D01*
X405671000Y-96645000D01*
X406773000Y-96645000D01*
X406773000Y-98547000D01*
G37*
G36*
X411853000Y-98427000D02*
G01*
X410751000Y-98427000D01*
X410751000Y-96525000D01*
X411853000Y-96525000D01*
X411853000Y-98427000D01*
G37*
G36*
X408653000Y-98427000D02*
G01*
X407551000Y-98427000D01*
X407551000Y-96525000D01*
X408653000Y-96525000D01*
X408653000Y-98427000D01*
G37*
G36*
X169207000Y-98233000D02*
G01*
X168105000Y-98233000D01*
X168105000Y-96331000D01*
X169207000Y-96331000D01*
X169207000Y-98233000D01*
G37*
G36*
X166007000Y-98233000D02*
G01*
X164905000Y-98233000D01*
X164905000Y-96331000D01*
X166007000Y-96331000D01*
X166007000Y-98233000D01*
G37*
G36*
X74897000Y-98173000D02*
G01*
X73795000Y-98173000D01*
X73795000Y-96271000D01*
X74897000Y-96271000D01*
X74897000Y-98173000D01*
G37*
G36*
X78097000Y-98173000D02*
G01*
X76995000Y-98173000D01*
X76995000Y-96271000D01*
X78097000Y-96271000D01*
X78097000Y-98173000D01*
G37*
G36*
X353281000Y-98173000D02*
G01*
X352179000Y-98173000D01*
X352179000Y-96271000D01*
X353281000Y-96271000D01*
X353281000Y-98173000D01*
G37*
G36*
X356481000Y-98173000D02*
G01*
X355379000Y-98173000D01*
X355379000Y-96271000D01*
X356481000Y-96271000D01*
X356481000Y-98173000D01*
G37*
G36*
X368521000Y-98173000D02*
G01*
X367419000Y-98173000D01*
X367419000Y-96271000D01*
X368521000Y-96271000D01*
X368521000Y-98173000D01*
G37*
G36*
X371721000Y-98173000D02*
G01*
X370619000Y-98173000D01*
X370619000Y-96271000D01*
X371721000Y-96271000D01*
X371721000Y-98173000D01*
G37*
G36*
X133574549Y-95391116D02*
G01*
X133685734Y-95413232D01*
X133895203Y-95499997D01*
X134083720Y-95625960D01*
X134244040Y-95786280D01*
X134250002Y-95795203D01*
X134370004Y-95974799D01*
X134456768Y-96184267D01*
X134501000Y-96406635D01*
X134501000Y-96633365D01*
X134478884Y-96744549D01*
X134456768Y-96855734D01*
X134370003Y-97065203D01*
X134244040Y-97253720D01*
X134083720Y-97414040D01*
X133895203Y-97540003D01*
X133685734Y-97626768D01*
X133574549Y-97648884D01*
X133463365Y-97671000D01*
X133236635Y-97671000D01*
X133125451Y-97648884D01*
X133014266Y-97626768D01*
X132804797Y-97540003D01*
X132616280Y-97414040D01*
X132455960Y-97253720D01*
X132329997Y-97065203D01*
X132243232Y-96855734D01*
X132221116Y-96744549D01*
X132199000Y-96633365D01*
X132199000Y-96406635D01*
X132243232Y-96184267D01*
X132329996Y-95974799D01*
X132449998Y-95795203D01*
X132455960Y-95786280D01*
X132616280Y-95625960D01*
X132804797Y-95499997D01*
X133014266Y-95413232D01*
X133125451Y-95391116D01*
X133236635Y-95369000D01*
X133463365Y-95369000D01*
X133574549Y-95391116D01*
G37*
G36*
X228824549Y-94121116D02*
G01*
X228935734Y-94143232D01*
X229145203Y-94229997D01*
X229333720Y-94355960D01*
X229494040Y-94516280D01*
X229590248Y-94660266D01*
X229620004Y-94704799D01*
X229706768Y-94914267D01*
X229745576Y-95109365D01*
X229751000Y-95136636D01*
X229751000Y-95363364D01*
X229706768Y-95585734D01*
X229620003Y-95795203D01*
X229494040Y-95983720D01*
X229333720Y-96144040D01*
X229145203Y-96270003D01*
X228935734Y-96356768D01*
X228824549Y-96378884D01*
X228713365Y-96401000D01*
X228486635Y-96401000D01*
X228375451Y-96378884D01*
X228264266Y-96356768D01*
X228054797Y-96270003D01*
X227866280Y-96144040D01*
X227705960Y-95983720D01*
X227579997Y-95795203D01*
X227493232Y-95585734D01*
X227449000Y-95363364D01*
X227449000Y-95136636D01*
X227454425Y-95109365D01*
X227493232Y-94914267D01*
X227579996Y-94704799D01*
X227609752Y-94660266D01*
X227705960Y-94516280D01*
X227866280Y-94355960D01*
X228054797Y-94229997D01*
X228264266Y-94143232D01*
X228375451Y-94121116D01*
X228486635Y-94099000D01*
X228713365Y-94099000D01*
X228824549Y-94121116D01*
G37*
G36*
X381224549Y-94121116D02*
G01*
X381335734Y-94143232D01*
X381545203Y-94229997D01*
X381733720Y-94355960D01*
X381894040Y-94516280D01*
X381990248Y-94660266D01*
X382020004Y-94704799D01*
X382106768Y-94914267D01*
X382145576Y-95109365D01*
X382151000Y-95136636D01*
X382151000Y-95363364D01*
X382106768Y-95585734D01*
X382020003Y-95795203D01*
X381894040Y-95983720D01*
X381733720Y-96144040D01*
X381545203Y-96270003D01*
X381335734Y-96356768D01*
X381224549Y-96378884D01*
X381113365Y-96401000D01*
X380886635Y-96401000D01*
X380775451Y-96378884D01*
X380664266Y-96356768D01*
X380454797Y-96270003D01*
X380266280Y-96144040D01*
X380105960Y-95983720D01*
X379979997Y-95795203D01*
X379893232Y-95585734D01*
X379849000Y-95363364D01*
X379849000Y-95136636D01*
X379854425Y-95109365D01*
X379893232Y-94914267D01*
X379979996Y-94704799D01*
X380009752Y-94660266D01*
X380105960Y-94516280D01*
X380266280Y-94355960D01*
X380454797Y-94229997D01*
X380664266Y-94143232D01*
X380775451Y-94121116D01*
X380886635Y-94099000D01*
X381113365Y-94099000D01*
X381224549Y-94121116D01*
G37*
G36*
X300198549Y-93867116D02*
G01*
X300309734Y-93889232D01*
X300519203Y-93975997D01*
X300707720Y-94101960D01*
X300868040Y-94262280D01*
X300994003Y-94450797D01*
X300994004Y-94450799D01*
X301080768Y-94660267D01*
X301125000Y-94882635D01*
X301125000Y-95109365D01*
X301119575Y-95136636D01*
X301080768Y-95331734D01*
X300994003Y-95541203D01*
X300868040Y-95729720D01*
X300707720Y-95890040D01*
X300519203Y-96016003D01*
X300309734Y-96102768D01*
X300198549Y-96124884D01*
X300087365Y-96147000D01*
X299860635Y-96147000D01*
X299749451Y-96124884D01*
X299638266Y-96102768D01*
X299428797Y-96016003D01*
X299240280Y-95890040D01*
X299079960Y-95729720D01*
X298953997Y-95541203D01*
X298867232Y-95331734D01*
X298828425Y-95136636D01*
X298823000Y-95109365D01*
X298823000Y-94882635D01*
X298867232Y-94660267D01*
X298953996Y-94450799D01*
X298953997Y-94450797D01*
X299079960Y-94262280D01*
X299240280Y-94101960D01*
X299428797Y-93975997D01*
X299638266Y-93889232D01*
X299749451Y-93867116D01*
X299860635Y-93845000D01*
X300087365Y-93845000D01*
X300198549Y-93867116D01*
G37*
G36*
X403573000Y-93347000D02*
G01*
X402471000Y-93347000D01*
X402471000Y-91445000D01*
X403573000Y-91445000D01*
X403573000Y-93347000D01*
G37*
G36*
X406773000Y-93347000D02*
G01*
X405671000Y-93347000D01*
X405671000Y-91445000D01*
X406773000Y-91445000D01*
X406773000Y-93347000D01*
G37*
G36*
X394203000Y-82923000D02*
G01*
X392301000Y-82923000D01*
X392301000Y-81821000D01*
X394203000Y-81821000D01*
X394203000Y-82923000D01*
G37*
G36*
X212727000Y-82923000D02*
G01*
X210825000Y-82923000D01*
X210825000Y-81821000D01*
X212727000Y-81821000D01*
X212727000Y-82923000D01*
G37*
G36*
X217927000Y-82923000D02*
G01*
X216025000Y-82923000D01*
X216025000Y-81821000D01*
X217927000Y-81821000D01*
X217927000Y-82923000D01*
G37*
G36*
X408053000Y-82923000D02*
G01*
X406151000Y-82923000D01*
X406151000Y-81821000D01*
X408053000Y-81821000D01*
X408053000Y-82923000D01*
G37*
G36*
X117477000Y-82923000D02*
G01*
X115575000Y-82923000D01*
X115575000Y-81821000D01*
X117477000Y-81821000D01*
X117477000Y-82923000D01*
G37*
G36*
X60327000Y-82923000D02*
G01*
X58425000Y-82923000D01*
X58425000Y-81821000D01*
X60327000Y-81821000D01*
X60327000Y-82923000D01*
G37*
G36*
X84577000Y-82923000D02*
G01*
X82675000Y-82923000D01*
X82675000Y-81821000D01*
X84577000Y-81821000D01*
X84577000Y-82923000D01*
G37*
G36*
X79377000Y-82923000D02*
G01*
X77475000Y-82923000D01*
X77475000Y-81821000D01*
X79377000Y-81821000D01*
X79377000Y-82923000D01*
G37*
G36*
X103627000Y-82923000D02*
G01*
X101725000Y-82923000D01*
X101725000Y-81821000D01*
X103627000Y-81821000D01*
X103627000Y-82923000D01*
G37*
G36*
X98427000Y-82923000D02*
G01*
X96525000Y-82923000D01*
X96525000Y-81821000D01*
X98427000Y-81821000D01*
X98427000Y-82923000D01*
G37*
G36*
X122677000Y-82923000D02*
G01*
X120775000Y-82923000D01*
X120775000Y-81821000D01*
X122677000Y-81821000D01*
X122677000Y-82923000D01*
G37*
G36*
X65527000Y-82923000D02*
G01*
X63625000Y-82923000D01*
X63625000Y-81821000D01*
X65527000Y-81821000D01*
X65527000Y-82923000D01*
G37*
G36*
X141727000Y-82923000D02*
G01*
X139825000Y-82923000D01*
X139825000Y-81821000D01*
X141727000Y-81821000D01*
X141727000Y-82923000D01*
G37*
G36*
X136527000Y-82923000D02*
G01*
X134625000Y-82923000D01*
X134625000Y-81821000D01*
X136527000Y-81821000D01*
X136527000Y-82923000D01*
G37*
G36*
X155577000Y-82923000D02*
G01*
X153675000Y-82923000D01*
X153675000Y-81821000D01*
X155577000Y-81821000D01*
X155577000Y-82923000D01*
G37*
G36*
X15489000Y-82923000D02*
G01*
X13587000Y-82923000D01*
X13587000Y-81821000D01*
X15489000Y-81821000D01*
X15489000Y-82923000D01*
G37*
G36*
X10289000Y-82923000D02*
G01*
X8387000Y-82923000D01*
X8387000Y-81821000D01*
X10289000Y-81821000D01*
X10289000Y-82923000D01*
G37*
G36*
X46477000Y-82923000D02*
G01*
X44575000Y-82923000D01*
X44575000Y-81821000D01*
X46477000Y-81821000D01*
X46477000Y-82923000D01*
G37*
G36*
X41277000Y-82923000D02*
G01*
X39375000Y-82923000D01*
X39375000Y-81821000D01*
X41277000Y-81821000D01*
X41277000Y-82923000D01*
G37*
G36*
X236913000Y-82923000D02*
G01*
X235011000Y-82923000D01*
X235011000Y-81821000D01*
X236913000Y-81821000D01*
X236913000Y-82923000D01*
G37*
G36*
X231713000Y-82923000D02*
G01*
X229811000Y-82923000D01*
X229811000Y-81821000D01*
X231713000Y-81821000D01*
X231713000Y-82923000D01*
G37*
G36*
X193677000Y-82923000D02*
G01*
X191775000Y-82923000D01*
X191775000Y-81821000D01*
X193677000Y-81821000D01*
X193677000Y-82923000D01*
G37*
G36*
X248541000Y-82923000D02*
G01*
X246639000Y-82923000D01*
X246639000Y-81821000D01*
X248541000Y-81821000D01*
X248541000Y-82923000D01*
G37*
G36*
X198877000Y-82923000D02*
G01*
X196975000Y-82923000D01*
X196975000Y-81821000D01*
X198877000Y-81821000D01*
X198877000Y-82923000D01*
G37*
G36*
X413253000Y-82923000D02*
G01*
X411351000Y-82923000D01*
X411351000Y-81821000D01*
X413253000Y-81821000D01*
X413253000Y-82923000D01*
G37*
G36*
X179827000Y-82923000D02*
G01*
X177925000Y-82923000D01*
X177925000Y-81821000D01*
X179827000Y-81821000D01*
X179827000Y-82923000D01*
G37*
G36*
X174627000Y-82923000D02*
G01*
X172725000Y-82923000D01*
X172725000Y-81821000D01*
X174627000Y-81821000D01*
X174627000Y-82923000D01*
G37*
G36*
X160777000Y-82923000D02*
G01*
X158875000Y-82923000D01*
X158875000Y-81821000D01*
X160777000Y-81821000D01*
X160777000Y-82923000D01*
G37*
G36*
X350903000Y-82923000D02*
G01*
X349001000Y-82923000D01*
X349001000Y-81821000D01*
X350903000Y-81821000D01*
X350903000Y-82923000D01*
G37*
G36*
X307977000Y-82923000D02*
G01*
X306075000Y-82923000D01*
X306075000Y-81821000D01*
X307977000Y-81821000D01*
X307977000Y-82923000D01*
G37*
G36*
X356103000Y-82923000D02*
G01*
X354201000Y-82923000D01*
X354201000Y-81821000D01*
X356103000Y-81821000D01*
X356103000Y-82923000D01*
G37*
G36*
X369953000Y-82923000D02*
G01*
X368051000Y-82923000D01*
X368051000Y-81821000D01*
X369953000Y-81821000D01*
X369953000Y-82923000D01*
G37*
G36*
X375153000Y-82923000D02*
G01*
X373251000Y-82923000D01*
X373251000Y-81821000D01*
X375153000Y-81821000D01*
X375153000Y-82923000D01*
G37*
G36*
X270251000Y-82923000D02*
G01*
X268349000Y-82923000D01*
X268349000Y-81821000D01*
X270251000Y-81821000D01*
X270251000Y-82923000D01*
G37*
G36*
X265051000Y-82923000D02*
G01*
X263149000Y-82923000D01*
X263149000Y-81821000D01*
X265051000Y-81821000D01*
X265051000Y-82923000D01*
G37*
G36*
X253741000Y-82923000D02*
G01*
X251839000Y-82923000D01*
X251839000Y-81821000D01*
X253741000Y-81821000D01*
X253741000Y-82923000D01*
G37*
G36*
X389003000Y-82923000D02*
G01*
X387101000Y-82923000D01*
X387101000Y-81821000D01*
X389003000Y-81821000D01*
X389003000Y-82923000D01*
G37*
G36*
X313177000Y-82923000D02*
G01*
X311275000Y-82923000D01*
X311275000Y-81821000D01*
X313177000Y-81821000D01*
X313177000Y-82923000D01*
G37*
G36*
X15489000Y-79723000D02*
G01*
X13587000Y-79723000D01*
X13587000Y-78621000D01*
X15489000Y-78621000D01*
X15489000Y-79723000D01*
G37*
G36*
X179827000Y-79723000D02*
G01*
X177925000Y-79723000D01*
X177925000Y-78621000D01*
X179827000Y-78621000D01*
X179827000Y-79723000D01*
G37*
G36*
X136527000Y-79723000D02*
G01*
X134625000Y-79723000D01*
X134625000Y-78621000D01*
X136527000Y-78621000D01*
X136527000Y-79723000D01*
G37*
G36*
X46477000Y-79723000D02*
G01*
X44575000Y-79723000D01*
X44575000Y-78621000D01*
X46477000Y-78621000D01*
X46477000Y-79723000D01*
G37*
G36*
X236913000Y-79723000D02*
G01*
X235011000Y-79723000D01*
X235011000Y-78621000D01*
X236913000Y-78621000D01*
X236913000Y-79723000D01*
G37*
G36*
X231713000Y-79723000D02*
G01*
X229811000Y-79723000D01*
X229811000Y-78621000D01*
X231713000Y-78621000D01*
X231713000Y-79723000D01*
G37*
G36*
X103627000Y-79723000D02*
G01*
X101725000Y-79723000D01*
X101725000Y-78621000D01*
X103627000Y-78621000D01*
X103627000Y-79723000D01*
G37*
G36*
X369953000Y-79723000D02*
G01*
X368051000Y-79723000D01*
X368051000Y-78621000D01*
X369953000Y-78621000D01*
X369953000Y-79723000D01*
G37*
G36*
X375153000Y-79723000D02*
G01*
X373251000Y-79723000D01*
X373251000Y-78621000D01*
X375153000Y-78621000D01*
X375153000Y-79723000D01*
G37*
G36*
X10289000Y-79723000D02*
G01*
X8387000Y-79723000D01*
X8387000Y-78621000D01*
X10289000Y-78621000D01*
X10289000Y-79723000D01*
G37*
G36*
X65527000Y-79723000D02*
G01*
X63625000Y-79723000D01*
X63625000Y-78621000D01*
X65527000Y-78621000D01*
X65527000Y-79723000D01*
G37*
G36*
X174627000Y-79723000D02*
G01*
X172725000Y-79723000D01*
X172725000Y-78621000D01*
X174627000Y-78621000D01*
X174627000Y-79723000D01*
G37*
G36*
X413253000Y-79723000D02*
G01*
X411351000Y-79723000D01*
X411351000Y-78621000D01*
X413253000Y-78621000D01*
X413253000Y-79723000D01*
G37*
G36*
X141727000Y-79723000D02*
G01*
X139825000Y-79723000D01*
X139825000Y-78621000D01*
X141727000Y-78621000D01*
X141727000Y-79723000D01*
G37*
G36*
X155577000Y-79723000D02*
G01*
X153675000Y-79723000D01*
X153675000Y-78621000D01*
X155577000Y-78621000D01*
X155577000Y-79723000D01*
G37*
G36*
X193677000Y-79723000D02*
G01*
X191775000Y-79723000D01*
X191775000Y-78621000D01*
X193677000Y-78621000D01*
X193677000Y-79723000D01*
G37*
G36*
X160777000Y-79723000D02*
G01*
X158875000Y-79723000D01*
X158875000Y-78621000D01*
X160777000Y-78621000D01*
X160777000Y-79723000D01*
G37*
G36*
X60327000Y-79723000D02*
G01*
X58425000Y-79723000D01*
X58425000Y-78621000D01*
X60327000Y-78621000D01*
X60327000Y-79723000D01*
G37*
G36*
X217927000Y-79723000D02*
G01*
X216025000Y-79723000D01*
X216025000Y-78621000D01*
X217927000Y-78621000D01*
X217927000Y-79723000D01*
G37*
G36*
X265051000Y-79723000D02*
G01*
X263149000Y-79723000D01*
X263149000Y-78621000D01*
X265051000Y-78621000D01*
X265051000Y-79723000D01*
G37*
G36*
X389003000Y-79723000D02*
G01*
X387101000Y-79723000D01*
X387101000Y-78621000D01*
X389003000Y-78621000D01*
X389003000Y-79723000D01*
G37*
G36*
X212727000Y-79723000D02*
G01*
X210825000Y-79723000D01*
X210825000Y-78621000D01*
X212727000Y-78621000D01*
X212727000Y-79723000D01*
G37*
G36*
X356103000Y-79723000D02*
G01*
X354201000Y-79723000D01*
X354201000Y-78621000D01*
X356103000Y-78621000D01*
X356103000Y-79723000D01*
G37*
G36*
X253741000Y-79723000D02*
G01*
X251839000Y-79723000D01*
X251839000Y-78621000D01*
X253741000Y-78621000D01*
X253741000Y-79723000D01*
G37*
G36*
X408053000Y-79723000D02*
G01*
X406151000Y-79723000D01*
X406151000Y-78621000D01*
X408053000Y-78621000D01*
X408053000Y-79723000D01*
G37*
G36*
X41277000Y-79723000D02*
G01*
X39375000Y-79723000D01*
X39375000Y-78621000D01*
X41277000Y-78621000D01*
X41277000Y-79723000D01*
G37*
G36*
X117477000Y-79723000D02*
G01*
X115575000Y-79723000D01*
X115575000Y-78621000D01*
X117477000Y-78621000D01*
X117477000Y-79723000D01*
G37*
G36*
X248541000Y-79723000D02*
G01*
X246639000Y-79723000D01*
X246639000Y-78621000D01*
X248541000Y-78621000D01*
X248541000Y-79723000D01*
G37*
G36*
X122677000Y-79723000D02*
G01*
X120775000Y-79723000D01*
X120775000Y-78621000D01*
X122677000Y-78621000D01*
X122677000Y-79723000D01*
G37*
G36*
X270251000Y-79723000D02*
G01*
X268349000Y-79723000D01*
X268349000Y-78621000D01*
X270251000Y-78621000D01*
X270251000Y-79723000D01*
G37*
G36*
X307977000Y-79723000D02*
G01*
X306075000Y-79723000D01*
X306075000Y-78621000D01*
X307977000Y-78621000D01*
X307977000Y-79723000D01*
G37*
G36*
X313177000Y-79723000D02*
G01*
X311275000Y-79723000D01*
X311275000Y-78621000D01*
X313177000Y-78621000D01*
X313177000Y-79723000D01*
G37*
G36*
X350903000Y-79723000D02*
G01*
X349001000Y-79723000D01*
X349001000Y-78621000D01*
X350903000Y-78621000D01*
X350903000Y-79723000D01*
G37*
G36*
X98427000Y-79723000D02*
G01*
X96525000Y-79723000D01*
X96525000Y-78621000D01*
X98427000Y-78621000D01*
X98427000Y-79723000D01*
G37*
G36*
X84577000Y-79723000D02*
G01*
X82675000Y-79723000D01*
X82675000Y-78621000D01*
X84577000Y-78621000D01*
X84577000Y-79723000D01*
G37*
G36*
X79377000Y-79723000D02*
G01*
X77475000Y-79723000D01*
X77475000Y-78621000D01*
X79377000Y-78621000D01*
X79377000Y-79723000D01*
G37*
G36*
X394203000Y-79723000D02*
G01*
X392301000Y-79723000D01*
X392301000Y-78621000D01*
X394203000Y-78621000D01*
X394203000Y-79723000D01*
G37*
G36*
X198877000Y-79723000D02*
G01*
X196975000Y-79723000D01*
X196975000Y-78621000D01*
X198877000Y-78621000D01*
X198877000Y-79723000D01*
G37*
G36*
X411853000Y-65527000D02*
G01*
X410751000Y-65527000D01*
X410751000Y-63625000D01*
X411853000Y-63625000D01*
X411853000Y-65527000D01*
G37*
G36*
X408653000Y-65527000D02*
G01*
X407551000Y-65527000D01*
X407551000Y-63625000D01*
X408653000Y-63625000D01*
X408653000Y-65527000D01*
G37*
G36*
X5336000Y-64381000D02*
G01*
X3434000Y-64381000D01*
X3434000Y-63279000D01*
X5336000Y-63279000D01*
X5336000Y-64381000D01*
G37*
G36*
X10536000Y-64381000D02*
G01*
X8634000Y-64381000D01*
X8634000Y-63279000D01*
X10536000Y-63279000D01*
X10536000Y-64381000D01*
G37*
G36*
X132075000Y-63873000D02*
G01*
X130173000Y-63873000D01*
X130173000Y-62771000D01*
X132075000Y-62771000D01*
X132075000Y-63873000D01*
G37*
G36*
X113025000Y-63873000D02*
G01*
X111123000Y-63873000D01*
X111123000Y-62771000D01*
X113025000Y-62771000D01*
X113025000Y-63873000D01*
G37*
G36*
X107825000Y-63873000D02*
G01*
X105923000Y-63873000D01*
X105923000Y-62771000D01*
X107825000Y-62771000D01*
X107825000Y-63873000D01*
G37*
G36*
X146179000Y-63873000D02*
G01*
X144277000Y-63873000D01*
X144277000Y-62771000D01*
X146179000Y-62771000D01*
X146179000Y-63873000D01*
G37*
G36*
X151379000Y-63873000D02*
G01*
X149477000Y-63873000D01*
X149477000Y-62771000D01*
X151379000Y-62771000D01*
X151379000Y-63873000D01*
G37*
G36*
X246439000Y-63873000D02*
G01*
X244537000Y-63873000D01*
X244537000Y-62771000D01*
X246439000Y-62771000D01*
X246439000Y-63873000D01*
G37*
G36*
X126875000Y-63873000D02*
G01*
X124973000Y-63873000D01*
X124973000Y-62771000D01*
X126875000Y-62771000D01*
X126875000Y-63873000D01*
G37*
G36*
X208529000Y-63873000D02*
G01*
X206627000Y-63873000D01*
X206627000Y-62771000D01*
X208529000Y-62771000D01*
X208529000Y-63873000D01*
G37*
G36*
X170175000Y-63873000D02*
G01*
X168273000Y-63873000D01*
X168273000Y-62771000D01*
X170175000Y-62771000D01*
X170175000Y-63873000D01*
G37*
G36*
X184025000Y-63873000D02*
G01*
X182123000Y-63873000D01*
X182123000Y-62771000D01*
X184025000Y-62771000D01*
X184025000Y-63873000D01*
G37*
G36*
X189225000Y-63873000D02*
G01*
X187323000Y-63873000D01*
X187323000Y-62771000D01*
X189225000Y-62771000D01*
X189225000Y-63873000D01*
G37*
G36*
X203329000Y-63873000D02*
G01*
X201427000Y-63873000D01*
X201427000Y-62771000D01*
X203329000Y-62771000D01*
X203329000Y-63873000D01*
G37*
G36*
X369953000Y-63873000D02*
G01*
X368051000Y-63873000D01*
X368051000Y-62771000D01*
X369953000Y-62771000D01*
X369953000Y-63873000D01*
G37*
G36*
X375153000Y-63873000D02*
G01*
X373251000Y-63873000D01*
X373251000Y-62771000D01*
X375153000Y-62771000D01*
X375153000Y-63873000D01*
G37*
G36*
X350903000Y-63873000D02*
G01*
X349001000Y-63873000D01*
X349001000Y-62771000D01*
X350903000Y-62771000D01*
X350903000Y-63873000D01*
G37*
G36*
X69725000Y-63873000D02*
G01*
X67823000Y-63873000D01*
X67823000Y-62771000D01*
X69725000Y-62771000D01*
X69725000Y-63873000D01*
G37*
G36*
X258567000Y-63873000D02*
G01*
X256665000Y-63873000D01*
X256665000Y-62771000D01*
X258567000Y-62771000D01*
X258567000Y-63873000D01*
G37*
G36*
X164975000Y-63873000D02*
G01*
X163073000Y-63873000D01*
X163073000Y-62771000D01*
X164975000Y-62771000D01*
X164975000Y-63873000D01*
G37*
G36*
X389003000Y-63873000D02*
G01*
X387101000Y-63873000D01*
X387101000Y-62771000D01*
X389003000Y-62771000D01*
X389003000Y-63873000D01*
G37*
G36*
X241239000Y-63873000D02*
G01*
X239337000Y-63873000D01*
X239337000Y-62771000D01*
X241239000Y-62771000D01*
X241239000Y-63873000D01*
G37*
G36*
X356103000Y-63873000D02*
G01*
X354201000Y-63873000D01*
X354201000Y-62771000D01*
X356103000Y-62771000D01*
X356103000Y-63873000D01*
G37*
G36*
X227579000Y-63873000D02*
G01*
X225677000Y-63873000D01*
X225677000Y-62771000D01*
X227579000Y-62771000D01*
X227579000Y-63873000D01*
G37*
G36*
X222379000Y-63873000D02*
G01*
X220477000Y-63873000D01*
X220477000Y-62771000D01*
X222379000Y-62771000D01*
X222379000Y-63873000D01*
G37*
G36*
X93975000Y-63873000D02*
G01*
X92073000Y-63873000D01*
X92073000Y-62771000D01*
X93975000Y-62771000D01*
X93975000Y-63873000D01*
G37*
G36*
X36825000Y-63873000D02*
G01*
X34923000Y-63873000D01*
X34923000Y-62771000D01*
X36825000Y-62771000D01*
X36825000Y-63873000D01*
G37*
G36*
X253367000Y-63873000D02*
G01*
X251465000Y-63873000D01*
X251465000Y-62771000D01*
X253367000Y-62771000D01*
X253367000Y-63873000D01*
G37*
G36*
X394203000Y-63873000D02*
G01*
X392301000Y-63873000D01*
X392301000Y-62771000D01*
X394203000Y-62771000D01*
X394203000Y-63873000D01*
G37*
G36*
X50675000Y-63873000D02*
G01*
X48773000Y-63873000D01*
X48773000Y-62771000D01*
X50675000Y-62771000D01*
X50675000Y-63873000D01*
G37*
G36*
X55875000Y-63873000D02*
G01*
X53973000Y-63873000D01*
X53973000Y-62771000D01*
X55875000Y-62771000D01*
X55875000Y-63873000D01*
G37*
G36*
X31625000Y-63873000D02*
G01*
X29723000Y-63873000D01*
X29723000Y-62771000D01*
X31625000Y-62771000D01*
X31625000Y-63873000D01*
G37*
G36*
X74925000Y-63873000D02*
G01*
X73023000Y-63873000D01*
X73023000Y-62771000D01*
X74925000Y-62771000D01*
X74925000Y-63873000D01*
G37*
G36*
X88775000Y-63873000D02*
G01*
X86873000Y-63873000D01*
X86873000Y-62771000D01*
X88775000Y-62771000D01*
X88775000Y-63873000D01*
G37*
G36*
X10536000Y-61181000D02*
G01*
X8634000Y-61181000D01*
X8634000Y-60079000D01*
X10536000Y-60079000D01*
X10536000Y-61181000D01*
G37*
G36*
X5336000Y-61181000D02*
G01*
X3434000Y-61181000D01*
X3434000Y-60079000D01*
X5336000Y-60079000D01*
X5336000Y-61181000D01*
G37*
G36*
X88775000Y-60673000D02*
G01*
X86873000Y-60673000D01*
X86873000Y-59571000D01*
X88775000Y-59571000D01*
X88775000Y-60673000D01*
G37*
G36*
X36825000Y-60673000D02*
G01*
X34923000Y-60673000D01*
X34923000Y-59571000D01*
X36825000Y-59571000D01*
X36825000Y-60673000D01*
G37*
G36*
X31625000Y-60673000D02*
G01*
X29723000Y-60673000D01*
X29723000Y-59571000D01*
X31625000Y-59571000D01*
X31625000Y-60673000D01*
G37*
G36*
X55875000Y-60673000D02*
G01*
X53973000Y-60673000D01*
X53973000Y-59571000D01*
X55875000Y-59571000D01*
X55875000Y-60673000D01*
G37*
G36*
X50675000Y-60673000D02*
G01*
X48773000Y-60673000D01*
X48773000Y-59571000D01*
X50675000Y-59571000D01*
X50675000Y-60673000D01*
G37*
G36*
X74925000Y-60673000D02*
G01*
X73023000Y-60673000D01*
X73023000Y-59571000D01*
X74925000Y-59571000D01*
X74925000Y-60673000D01*
G37*
G36*
X69725000Y-60673000D02*
G01*
X67823000Y-60673000D01*
X67823000Y-59571000D01*
X69725000Y-59571000D01*
X69725000Y-60673000D01*
G37*
G36*
X151379000Y-60673000D02*
G01*
X149477000Y-60673000D01*
X149477000Y-59571000D01*
X151379000Y-59571000D01*
X151379000Y-60673000D01*
G37*
G36*
X93975000Y-60673000D02*
G01*
X92073000Y-60673000D01*
X92073000Y-59571000D01*
X93975000Y-59571000D01*
X93975000Y-60673000D01*
G37*
G36*
X113025000Y-60673000D02*
G01*
X111123000Y-60673000D01*
X111123000Y-59571000D01*
X113025000Y-59571000D01*
X113025000Y-60673000D01*
G37*
G36*
X107825000Y-60673000D02*
G01*
X105923000Y-60673000D01*
X105923000Y-59571000D01*
X107825000Y-59571000D01*
X107825000Y-60673000D01*
G37*
G36*
X132075000Y-60673000D02*
G01*
X130173000Y-60673000D01*
X130173000Y-59571000D01*
X132075000Y-59571000D01*
X132075000Y-60673000D01*
G37*
G36*
X126875000Y-60673000D02*
G01*
X124973000Y-60673000D01*
X124973000Y-59571000D01*
X126875000Y-59571000D01*
X126875000Y-60673000D01*
G37*
G36*
X146179000Y-60673000D02*
G01*
X144277000Y-60673000D01*
X144277000Y-59571000D01*
X146179000Y-59571000D01*
X146179000Y-60673000D01*
G37*
G36*
X222379000Y-60673000D02*
G01*
X220477000Y-60673000D01*
X220477000Y-59571000D01*
X222379000Y-59571000D01*
X222379000Y-60673000D01*
G37*
G36*
X164975000Y-60673000D02*
G01*
X163073000Y-60673000D01*
X163073000Y-59571000D01*
X164975000Y-59571000D01*
X164975000Y-60673000D01*
G37*
G36*
X227579000Y-60673000D02*
G01*
X225677000Y-60673000D01*
X225677000Y-59571000D01*
X227579000Y-59571000D01*
X227579000Y-60673000D01*
G37*
G36*
X394203000Y-60673000D02*
G01*
X392301000Y-60673000D01*
X392301000Y-59571000D01*
X394203000Y-59571000D01*
X394203000Y-60673000D01*
G37*
G36*
X189225000Y-60673000D02*
G01*
X187323000Y-60673000D01*
X187323000Y-59571000D01*
X189225000Y-59571000D01*
X189225000Y-60673000D01*
G37*
G36*
X241239000Y-60673000D02*
G01*
X239337000Y-60673000D01*
X239337000Y-59571000D01*
X241239000Y-59571000D01*
X241239000Y-60673000D01*
G37*
G36*
X184025000Y-60673000D02*
G01*
X182123000Y-60673000D01*
X182123000Y-59571000D01*
X184025000Y-59571000D01*
X184025000Y-60673000D01*
G37*
G36*
X203329000Y-60673000D02*
G01*
X201427000Y-60673000D01*
X201427000Y-59571000D01*
X203329000Y-59571000D01*
X203329000Y-60673000D01*
G37*
G36*
X246439000Y-60673000D02*
G01*
X244537000Y-60673000D01*
X244537000Y-59571000D01*
X246439000Y-59571000D01*
X246439000Y-60673000D01*
G37*
G36*
X208529000Y-60673000D02*
G01*
X206627000Y-60673000D01*
X206627000Y-59571000D01*
X208529000Y-59571000D01*
X208529000Y-60673000D01*
G37*
G36*
X170175000Y-60673000D02*
G01*
X168273000Y-60673000D01*
X168273000Y-59571000D01*
X170175000Y-59571000D01*
X170175000Y-60673000D01*
G37*
G36*
X253367000Y-60673000D02*
G01*
X251465000Y-60673000D01*
X251465000Y-59571000D01*
X253367000Y-59571000D01*
X253367000Y-60673000D01*
G37*
G36*
X258567000Y-60673000D02*
G01*
X256665000Y-60673000D01*
X256665000Y-59571000D01*
X258567000Y-59571000D01*
X258567000Y-60673000D01*
G37*
G36*
X350903000Y-60673000D02*
G01*
X349001000Y-60673000D01*
X349001000Y-59571000D01*
X350903000Y-59571000D01*
X350903000Y-60673000D01*
G37*
G36*
X356103000Y-60673000D02*
G01*
X354201000Y-60673000D01*
X354201000Y-59571000D01*
X356103000Y-59571000D01*
X356103000Y-60673000D01*
G37*
G36*
X369953000Y-60673000D02*
G01*
X368051000Y-60673000D01*
X368051000Y-59571000D01*
X369953000Y-59571000D01*
X369953000Y-60673000D01*
G37*
G36*
X375153000Y-60673000D02*
G01*
X373251000Y-60673000D01*
X373251000Y-59571000D01*
X375153000Y-59571000D01*
X375153000Y-60673000D01*
G37*
G36*
X389003000Y-60673000D02*
G01*
X387101000Y-60673000D01*
X387101000Y-59571000D01*
X389003000Y-59571000D01*
X389003000Y-60673000D01*
G37*
G36*
X406773000Y-60447000D02*
G01*
X405671000Y-60447000D01*
X405671000Y-58545000D01*
X406773000Y-58545000D01*
X406773000Y-60447000D01*
G37*
G36*
X403573000Y-60447000D02*
G01*
X402471000Y-60447000D01*
X402471000Y-58545000D01*
X403573000Y-58545000D01*
X403573000Y-60447000D01*
G37*
G36*
X408653000Y-60327000D02*
G01*
X407551000Y-60327000D01*
X407551000Y-58425000D01*
X408653000Y-58425000D01*
X408653000Y-60327000D01*
G37*
G36*
X411853000Y-60327000D02*
G01*
X410751000Y-60327000D01*
X410751000Y-58425000D01*
X411853000Y-58425000D01*
X411853000Y-60327000D01*
G37*
G36*
X403573000Y-55247000D02*
G01*
X402471000Y-55247000D01*
X402471000Y-53345000D01*
X403573000Y-53345000D01*
X403573000Y-55247000D01*
G37*
G36*
X406773000Y-55247000D02*
G01*
X405671000Y-55247000D01*
X405671000Y-53345000D01*
X406773000Y-53345000D01*
X406773000Y-55247000D01*
G37*
G36*
X160343000Y-44899000D02*
G01*
X158441000Y-44899000D01*
X158441000Y-43797000D01*
X160343000Y-43797000D01*
X160343000Y-44899000D01*
G37*
G36*
X165543000Y-44899000D02*
G01*
X163641000Y-44899000D01*
X163641000Y-43797000D01*
X165543000Y-43797000D01*
X165543000Y-44899000D01*
G37*
G36*
X260479000Y-44823000D02*
G01*
X258577000Y-44823000D01*
X258577000Y-43721000D01*
X260479000Y-43721000D01*
X260479000Y-44823000D01*
G37*
G36*
X84203000Y-44823000D02*
G01*
X82301000Y-44823000D01*
X82301000Y-43721000D01*
X84203000Y-43721000D01*
X84203000Y-44823000D01*
G37*
G36*
X327027000Y-44823000D02*
G01*
X325125000Y-44823000D01*
X325125000Y-43721000D01*
X327027000Y-43721000D01*
X327027000Y-44823000D01*
G37*
G36*
X198503000Y-44823000D02*
G01*
X196601000Y-44823000D01*
X196601000Y-43721000D01*
X198503000Y-43721000D01*
X198503000Y-44823000D01*
G37*
G36*
X203703000Y-44823000D02*
G01*
X201801000Y-44823000D01*
X201801000Y-43721000D01*
X203703000Y-43721000D01*
X203703000Y-44823000D01*
G37*
G36*
X108453000Y-44823000D02*
G01*
X106551000Y-44823000D01*
X106551000Y-43721000D01*
X108453000Y-43721000D01*
X108453000Y-44823000D01*
G37*
G36*
X103253000Y-44823000D02*
G01*
X101351000Y-44823000D01*
X101351000Y-43721000D01*
X103253000Y-43721000D01*
X103253000Y-44823000D01*
G37*
G36*
X332227000Y-44823000D02*
G01*
X330325000Y-44823000D01*
X330325000Y-43721000D01*
X332227000Y-43721000D01*
X332227000Y-44823000D01*
G37*
G36*
X127249000Y-44823000D02*
G01*
X125347000Y-44823000D01*
X125347000Y-43721000D01*
X127249000Y-43721000D01*
X127249000Y-44823000D01*
G37*
G36*
X241803000Y-44823000D02*
G01*
X239901000Y-44823000D01*
X239901000Y-43721000D01*
X241803000Y-43721000D01*
X241803000Y-44823000D01*
G37*
G36*
X217553000Y-44823000D02*
G01*
X215651000Y-44823000D01*
X215651000Y-43721000D01*
X217553000Y-43721000D01*
X217553000Y-44823000D01*
G37*
G36*
X222753000Y-44823000D02*
G01*
X220851000Y-44823000D01*
X220851000Y-43721000D01*
X222753000Y-43721000D01*
X222753000Y-44823000D01*
G37*
G36*
X236603000Y-44823000D02*
G01*
X234701000Y-44823000D01*
X234701000Y-43721000D01*
X236603000Y-43721000D01*
X236603000Y-44823000D01*
G37*
G36*
X265679000Y-44823000D02*
G01*
X263777000Y-44823000D01*
X263777000Y-43721000D01*
X265679000Y-43721000D01*
X265679000Y-44823000D01*
G37*
G36*
X288927000Y-44823000D02*
G01*
X287025000Y-44823000D01*
X287025000Y-43721000D01*
X288927000Y-43721000D01*
X288927000Y-44823000D01*
G37*
G36*
X294127000Y-44823000D02*
G01*
X292225000Y-44823000D01*
X292225000Y-43721000D01*
X294127000Y-43721000D01*
X294127000Y-44823000D01*
G37*
G36*
X394203000Y-44823000D02*
G01*
X392301000Y-44823000D01*
X392301000Y-43721000D01*
X394203000Y-43721000D01*
X394203000Y-44823000D01*
G37*
G36*
X369953000Y-44823000D02*
G01*
X368051000Y-44823000D01*
X368051000Y-43721000D01*
X369953000Y-43721000D01*
X369953000Y-44823000D01*
G37*
G36*
X389003000Y-44823000D02*
G01*
X387101000Y-44823000D01*
X387101000Y-43721000D01*
X389003000Y-43721000D01*
X389003000Y-44823000D01*
G37*
G36*
X141353000Y-44823000D02*
G01*
X139451000Y-44823000D01*
X139451000Y-43721000D01*
X141353000Y-43721000D01*
X141353000Y-44823000D01*
G37*
G36*
X122049000Y-44823000D02*
G01*
X120147000Y-44823000D01*
X120147000Y-43721000D01*
X122049000Y-43721000D01*
X122049000Y-44823000D01*
G37*
G36*
X89403000Y-44823000D02*
G01*
X87501000Y-44823000D01*
X87501000Y-43721000D01*
X89403000Y-43721000D01*
X89403000Y-44823000D01*
G37*
G36*
X307977000Y-44823000D02*
G01*
X306075000Y-44823000D01*
X306075000Y-43721000D01*
X307977000Y-43721000D01*
X307977000Y-44823000D01*
G37*
G36*
X313177000Y-44823000D02*
G01*
X311275000Y-44823000D01*
X311275000Y-43721000D01*
X313177000Y-43721000D01*
X313177000Y-44823000D01*
G37*
G36*
X408053000Y-44823000D02*
G01*
X406151000Y-44823000D01*
X406151000Y-43721000D01*
X408053000Y-43721000D01*
X408053000Y-44823000D01*
G37*
G36*
X146553000Y-44823000D02*
G01*
X144651000Y-44823000D01*
X144651000Y-43721000D01*
X146553000Y-43721000D01*
X146553000Y-44823000D01*
G37*
G36*
X179453000Y-44823000D02*
G01*
X177551000Y-44823000D01*
X177551000Y-43721000D01*
X179453000Y-43721000D01*
X179453000Y-44823000D01*
G37*
G36*
X375153000Y-44823000D02*
G01*
X373251000Y-44823000D01*
X373251000Y-43721000D01*
X375153000Y-43721000D01*
X375153000Y-44823000D01*
G37*
G36*
X413253000Y-44823000D02*
G01*
X411351000Y-44823000D01*
X411351000Y-43721000D01*
X413253000Y-43721000D01*
X413253000Y-44823000D01*
G37*
G36*
X184653000Y-44823000D02*
G01*
X182751000Y-44823000D01*
X182751000Y-43721000D01*
X184653000Y-43721000D01*
X184653000Y-44823000D01*
G37*
G36*
X8377000Y-44823000D02*
G01*
X6475000Y-44823000D01*
X6475000Y-43721000D01*
X8377000Y-43721000D01*
X8377000Y-44823000D01*
G37*
G36*
X31999000Y-44823000D02*
G01*
X30097000Y-44823000D01*
X30097000Y-43721000D01*
X31999000Y-43721000D01*
X31999000Y-44823000D01*
G37*
G36*
X350903000Y-44823000D02*
G01*
X349001000Y-44823000D01*
X349001000Y-43721000D01*
X350903000Y-43721000D01*
X350903000Y-44823000D01*
G37*
G36*
X51303000Y-44823000D02*
G01*
X49401000Y-44823000D01*
X49401000Y-43721000D01*
X51303000Y-43721000D01*
X51303000Y-44823000D01*
G37*
G36*
X46103000Y-44823000D02*
G01*
X44201000Y-44823000D01*
X44201000Y-43721000D01*
X46103000Y-43721000D01*
X46103000Y-44823000D01*
G37*
G36*
X356103000Y-44823000D02*
G01*
X354201000Y-44823000D01*
X354201000Y-43721000D01*
X356103000Y-43721000D01*
X356103000Y-44823000D01*
G37*
G36*
X70099000Y-44823000D02*
G01*
X68197000Y-44823000D01*
X68197000Y-43721000D01*
X70099000Y-43721000D01*
X70099000Y-44823000D01*
G37*
G36*
X64899000Y-44823000D02*
G01*
X62997000Y-44823000D01*
X62997000Y-43721000D01*
X64899000Y-43721000D01*
X64899000Y-44823000D01*
G37*
G36*
X3177000Y-44823000D02*
G01*
X1275000Y-44823000D01*
X1275000Y-43721000D01*
X3177000Y-43721000D01*
X3177000Y-44823000D01*
G37*
G36*
X26799000Y-44823000D02*
G01*
X24897000Y-44823000D01*
X24897000Y-43721000D01*
X26799000Y-43721000D01*
X26799000Y-44823000D01*
G37*
G36*
X165543000Y-41699000D02*
G01*
X163641000Y-41699000D01*
X163641000Y-40597000D01*
X165543000Y-40597000D01*
X165543000Y-41699000D01*
G37*
G36*
X160343000Y-41699000D02*
G01*
X158441000Y-41699000D01*
X158441000Y-40597000D01*
X160343000Y-40597000D01*
X160343000Y-41699000D01*
G37*
G36*
X184653000Y-41623000D02*
G01*
X182751000Y-41623000D01*
X182751000Y-40521000D01*
X184653000Y-40521000D01*
X184653000Y-41623000D01*
G37*
G36*
X332227000Y-41623000D02*
G01*
X330325000Y-41623000D01*
X330325000Y-40521000D01*
X332227000Y-40521000D01*
X332227000Y-41623000D01*
G37*
G36*
X307977000Y-41623000D02*
G01*
X306075000Y-41623000D01*
X306075000Y-40521000D01*
X307977000Y-40521000D01*
X307977000Y-41623000D01*
G37*
G36*
X294127000Y-41623000D02*
G01*
X292225000Y-41623000D01*
X292225000Y-40521000D01*
X294127000Y-40521000D01*
X294127000Y-41623000D01*
G37*
G36*
X288927000Y-41623000D02*
G01*
X287025000Y-41623000D01*
X287025000Y-40521000D01*
X288927000Y-40521000D01*
X288927000Y-41623000D01*
G37*
G36*
X265679000Y-41623000D02*
G01*
X263777000Y-41623000D01*
X263777000Y-40521000D01*
X265679000Y-40521000D01*
X265679000Y-41623000D01*
G37*
G36*
X260479000Y-41623000D02*
G01*
X258577000Y-41623000D01*
X258577000Y-40521000D01*
X260479000Y-40521000D01*
X260479000Y-41623000D01*
G37*
G36*
X241803000Y-41623000D02*
G01*
X239901000Y-41623000D01*
X239901000Y-40521000D01*
X241803000Y-40521000D01*
X241803000Y-41623000D01*
G37*
G36*
X236603000Y-41623000D02*
G01*
X234701000Y-41623000D01*
X234701000Y-40521000D01*
X236603000Y-40521000D01*
X236603000Y-41623000D01*
G37*
G36*
X222753000Y-41623000D02*
G01*
X220851000Y-41623000D01*
X220851000Y-40521000D01*
X222753000Y-40521000D01*
X222753000Y-41623000D01*
G37*
G36*
X217553000Y-41623000D02*
G01*
X215651000Y-41623000D01*
X215651000Y-40521000D01*
X217553000Y-40521000D01*
X217553000Y-41623000D01*
G37*
G36*
X179453000Y-41623000D02*
G01*
X177551000Y-41623000D01*
X177551000Y-40521000D01*
X179453000Y-40521000D01*
X179453000Y-41623000D01*
G37*
G36*
X103253000Y-41623000D02*
G01*
X101351000Y-41623000D01*
X101351000Y-40521000D01*
X103253000Y-40521000D01*
X103253000Y-41623000D01*
G37*
G36*
X146553000Y-41623000D02*
G01*
X144651000Y-41623000D01*
X144651000Y-40521000D01*
X146553000Y-40521000D01*
X146553000Y-41623000D01*
G37*
G36*
X141353000Y-41623000D02*
G01*
X139451000Y-41623000D01*
X139451000Y-40521000D01*
X141353000Y-40521000D01*
X141353000Y-41623000D01*
G37*
G36*
X108453000Y-41623000D02*
G01*
X106551000Y-41623000D01*
X106551000Y-40521000D01*
X108453000Y-40521000D01*
X108453000Y-41623000D01*
G37*
G36*
X389003000Y-41623000D02*
G01*
X387101000Y-41623000D01*
X387101000Y-40521000D01*
X389003000Y-40521000D01*
X389003000Y-41623000D01*
G37*
G36*
X413253000Y-41623000D02*
G01*
X411351000Y-41623000D01*
X411351000Y-40521000D01*
X413253000Y-40521000D01*
X413253000Y-41623000D01*
G37*
G36*
X394203000Y-41623000D02*
G01*
X392301000Y-41623000D01*
X392301000Y-40521000D01*
X394203000Y-40521000D01*
X394203000Y-41623000D01*
G37*
G36*
X408053000Y-41623000D02*
G01*
X406151000Y-41623000D01*
X406151000Y-40521000D01*
X408053000Y-40521000D01*
X408053000Y-41623000D01*
G37*
G36*
X369953000Y-41623000D02*
G01*
X368051000Y-41623000D01*
X368051000Y-40521000D01*
X369953000Y-40521000D01*
X369953000Y-41623000D01*
G37*
G36*
X70099000Y-41623000D02*
G01*
X68197000Y-41623000D01*
X68197000Y-40521000D01*
X70099000Y-40521000D01*
X70099000Y-41623000D01*
G37*
G36*
X26799000Y-41623000D02*
G01*
X24897000Y-41623000D01*
X24897000Y-40521000D01*
X26799000Y-40521000D01*
X26799000Y-41623000D01*
G37*
G36*
X31999000Y-41623000D02*
G01*
X30097000Y-41623000D01*
X30097000Y-40521000D01*
X31999000Y-40521000D01*
X31999000Y-41623000D01*
G37*
G36*
X8377000Y-41623000D02*
G01*
X6475000Y-41623000D01*
X6475000Y-40521000D01*
X8377000Y-40521000D01*
X8377000Y-41623000D01*
G37*
G36*
X46103000Y-41623000D02*
G01*
X44201000Y-41623000D01*
X44201000Y-40521000D01*
X46103000Y-40521000D01*
X46103000Y-41623000D01*
G37*
G36*
X51303000Y-41623000D02*
G01*
X49401000Y-41623000D01*
X49401000Y-40521000D01*
X51303000Y-40521000D01*
X51303000Y-41623000D01*
G37*
G36*
X64899000Y-41623000D02*
G01*
X62997000Y-41623000D01*
X62997000Y-40521000D01*
X64899000Y-40521000D01*
X64899000Y-41623000D01*
G37*
G36*
X203703000Y-41623000D02*
G01*
X201801000Y-41623000D01*
X201801000Y-40521000D01*
X203703000Y-40521000D01*
X203703000Y-41623000D01*
G37*
G36*
X84203000Y-41623000D02*
G01*
X82301000Y-41623000D01*
X82301000Y-40521000D01*
X84203000Y-40521000D01*
X84203000Y-41623000D01*
G37*
G36*
X3177000Y-41623000D02*
G01*
X1275000Y-41623000D01*
X1275000Y-40521000D01*
X3177000Y-40521000D01*
X3177000Y-41623000D01*
G37*
G36*
X89403000Y-41623000D02*
G01*
X87501000Y-41623000D01*
X87501000Y-40521000D01*
X89403000Y-40521000D01*
X89403000Y-41623000D01*
G37*
G36*
X198503000Y-41623000D02*
G01*
X196601000Y-41623000D01*
X196601000Y-40521000D01*
X198503000Y-40521000D01*
X198503000Y-41623000D01*
G37*
G36*
X127249000Y-41623000D02*
G01*
X125347000Y-41623000D01*
X125347000Y-40521000D01*
X127249000Y-40521000D01*
X127249000Y-41623000D01*
G37*
G36*
X313177000Y-41623000D02*
G01*
X311275000Y-41623000D01*
X311275000Y-40521000D01*
X313177000Y-40521000D01*
X313177000Y-41623000D01*
G37*
G36*
X327027000Y-41623000D02*
G01*
X325125000Y-41623000D01*
X325125000Y-40521000D01*
X327027000Y-40521000D01*
X327027000Y-41623000D01*
G37*
G36*
X122049000Y-41623000D02*
G01*
X120147000Y-41623000D01*
X120147000Y-40521000D01*
X122049000Y-40521000D01*
X122049000Y-41623000D01*
G37*
G36*
X350903000Y-41623000D02*
G01*
X349001000Y-41623000D01*
X349001000Y-40521000D01*
X350903000Y-40521000D01*
X350903000Y-41623000D01*
G37*
G36*
X356103000Y-41623000D02*
G01*
X354201000Y-41623000D01*
X354201000Y-40521000D01*
X356103000Y-40521000D01*
X356103000Y-41623000D01*
G37*
G36*
X375153000Y-41623000D02*
G01*
X373251000Y-41623000D01*
X373251000Y-40521000D01*
X375153000Y-40521000D01*
X375153000Y-41623000D01*
G37*
G36*
X17369549Y-38241116D02*
G01*
X17480734Y-38263232D01*
X17690203Y-38349997D01*
X17878720Y-38475960D01*
X18039040Y-38636280D01*
X18165003Y-38824797D01*
X18251768Y-39034266D01*
X18296000Y-39256636D01*
X18296000Y-39483364D01*
X18251768Y-39705734D01*
X18165003Y-39915203D01*
X18039040Y-40103720D01*
X17878720Y-40264040D01*
X17690203Y-40390003D01*
X17480734Y-40476768D01*
X17369549Y-40498884D01*
X17258365Y-40521000D01*
X17031635Y-40521000D01*
X16920451Y-40498884D01*
X16809266Y-40476768D01*
X16599797Y-40390003D01*
X16411280Y-40264040D01*
X16250960Y-40103720D01*
X16124997Y-39915203D01*
X16038232Y-39705734D01*
X15994000Y-39483364D01*
X15994000Y-39256636D01*
X16038232Y-39034266D01*
X16124997Y-38824797D01*
X16250960Y-38636280D01*
X16411280Y-38475960D01*
X16599797Y-38349997D01*
X16809266Y-38263232D01*
X16920451Y-38241116D01*
X17031635Y-38219000D01*
X17258365Y-38219000D01*
X17369549Y-38241116D01*
G37*
G36*
X228824549Y-37606116D02*
G01*
X228935734Y-37628232D01*
X229145203Y-37714997D01*
X229333720Y-37840960D01*
X229494040Y-38001280D01*
X229620003Y-38189797D01*
X229706768Y-38399266D01*
X229751000Y-38621636D01*
X229751000Y-38848364D01*
X229706768Y-39070734D01*
X229620003Y-39280203D01*
X229494040Y-39468720D01*
X229333720Y-39629040D01*
X229145203Y-39755003D01*
X228935734Y-39841768D01*
X228824549Y-39863884D01*
X228713365Y-39886000D01*
X228486635Y-39886000D01*
X228375451Y-39863884D01*
X228264266Y-39841768D01*
X228054797Y-39755003D01*
X227866280Y-39629040D01*
X227705960Y-39468720D01*
X227579997Y-39280203D01*
X227493232Y-39070734D01*
X227449000Y-38848364D01*
X227449000Y-38621636D01*
X227493232Y-38399266D01*
X227579997Y-38189797D01*
X227705960Y-38001280D01*
X227866280Y-37840960D01*
X228054797Y-37714997D01*
X228264266Y-37628232D01*
X228375451Y-37606116D01*
X228486635Y-37584000D01*
X228713365Y-37584000D01*
X228824549Y-37606116D01*
G37*
G36*
X319629549Y-36971116D02*
G01*
X319740734Y-36993232D01*
X319950203Y-37079997D01*
X320138720Y-37205960D01*
X320299040Y-37366280D01*
X320425003Y-37554797D01*
X320511768Y-37764266D01*
X320556000Y-37986636D01*
X320556000Y-38213364D01*
X320511768Y-38435734D01*
X320425003Y-38645203D01*
X320299040Y-38833720D01*
X320138720Y-38994040D01*
X319950203Y-39120003D01*
X319740734Y-39206768D01*
X319629549Y-39228884D01*
X319518365Y-39251000D01*
X319291635Y-39251000D01*
X319180451Y-39228884D01*
X319069266Y-39206768D01*
X318859797Y-39120003D01*
X318671280Y-38994040D01*
X318510960Y-38833720D01*
X318384997Y-38645203D01*
X318298232Y-38435734D01*
X318254000Y-38213364D01*
X318254000Y-37986636D01*
X318298232Y-37764266D01*
X318384997Y-37554797D01*
X318510960Y-37366280D01*
X318671280Y-37205960D01*
X318859797Y-37079997D01*
X319069266Y-36993232D01*
X319180451Y-36971116D01*
X319291635Y-36949000D01*
X319518365Y-36949000D01*
X319629549Y-36971116D01*
G37*
G36*
X124049549Y-36336116D02*
G01*
X124160734Y-36358232D01*
X124370203Y-36444997D01*
X124558720Y-36570960D01*
X124719040Y-36731280D01*
X124845003Y-36919797D01*
X124931768Y-37129266D01*
X124976000Y-37351636D01*
X124976000Y-37578364D01*
X124931768Y-37800734D01*
X124845003Y-38010203D01*
X124719040Y-38198720D01*
X124558720Y-38359040D01*
X124370203Y-38485003D01*
X124160734Y-38571768D01*
X124049549Y-38593884D01*
X123938365Y-38616000D01*
X123711635Y-38616000D01*
X123600451Y-38593884D01*
X123489266Y-38571768D01*
X123279797Y-38485003D01*
X123091280Y-38359040D01*
X122930960Y-38198720D01*
X122804997Y-38010203D01*
X122718232Y-37800734D01*
X122674000Y-37578364D01*
X122674000Y-37351636D01*
X122718232Y-37129266D01*
X122804997Y-36919797D01*
X122930960Y-36731280D01*
X123091280Y-36570960D01*
X123279797Y-36444997D01*
X123489266Y-36358232D01*
X123600451Y-36336116D01*
X123711635Y-36314000D01*
X123938365Y-36314000D01*
X124049549Y-36336116D01*
G37*
G36*
X60701000Y-25773000D02*
G01*
X58799000Y-25773000D01*
X58799000Y-24671000D01*
X60701000Y-24671000D01*
X60701000Y-25773000D01*
G37*
G36*
X150751000Y-25773000D02*
G01*
X148849000Y-25773000D01*
X148849000Y-24671000D01*
X150751000Y-24671000D01*
X150751000Y-25773000D01*
G37*
G36*
X74551000Y-25773000D02*
G01*
X72649000Y-25773000D01*
X72649000Y-24671000D01*
X74551000Y-24671000D01*
X74551000Y-25773000D01*
G37*
G36*
X-1649000Y-25773000D02*
G01*
X-3551000Y-25773000D01*
X-3551000Y-24671000D01*
X-1649000Y-24671000D01*
X-1649000Y-25773000D01*
G37*
G36*
X93601000Y-25773000D02*
G01*
X91699000Y-25773000D01*
X91699000Y-24671000D01*
X93601000Y-24671000D01*
X93601000Y-25773000D01*
G37*
G36*
X98801000Y-25773000D02*
G01*
X96899000Y-25773000D01*
X96899000Y-24671000D01*
X98801000Y-24671000D01*
X98801000Y-25773000D01*
G37*
G36*
X375153000Y-25773000D02*
G01*
X373251000Y-25773000D01*
X373251000Y-24671000D01*
X375153000Y-24671000D01*
X375153000Y-25773000D01*
G37*
G36*
X213101000Y-25773000D02*
G01*
X211199000Y-25773000D01*
X211199000Y-24671000D01*
X213101000Y-24671000D01*
X213101000Y-25773000D01*
G37*
G36*
X207901000Y-25773000D02*
G01*
X205999000Y-25773000D01*
X205999000Y-24671000D01*
X207901000Y-24671000D01*
X207901000Y-25773000D01*
G37*
G36*
X393949000Y-25773000D02*
G01*
X392047000Y-25773000D01*
X392047000Y-24671000D01*
X393949000Y-24671000D01*
X393949000Y-25773000D01*
G37*
G36*
X388749000Y-25773000D02*
G01*
X386847000Y-25773000D01*
X386847000Y-24671000D01*
X388749000Y-24671000D01*
X388749000Y-25773000D01*
G37*
G36*
X413253000Y-25773000D02*
G01*
X411351000Y-25773000D01*
X411351000Y-24671000D01*
X413253000Y-24671000D01*
X413253000Y-25773000D01*
G37*
G36*
X408053000Y-25773000D02*
G01*
X406151000Y-25773000D01*
X406151000Y-24671000D01*
X408053000Y-24671000D01*
X408053000Y-25773000D01*
G37*
G36*
X232151000Y-25773000D02*
G01*
X230249000Y-25773000D01*
X230249000Y-24671000D01*
X232151000Y-24671000D01*
X232151000Y-25773000D01*
G37*
G36*
X226951000Y-25773000D02*
G01*
X225049000Y-25773000D01*
X225049000Y-24671000D01*
X226951000Y-24671000D01*
X226951000Y-25773000D01*
G37*
G36*
X288927000Y-25773000D02*
G01*
X287025000Y-25773000D01*
X287025000Y-24671000D01*
X288927000Y-24671000D01*
X288927000Y-25773000D01*
G37*
G36*
X260853000Y-25773000D02*
G01*
X258951000Y-25773000D01*
X258951000Y-24671000D01*
X260853000Y-24671000D01*
X260853000Y-25773000D01*
G37*
G36*
X255653000Y-25773000D02*
G01*
X253751000Y-25773000D01*
X253751000Y-24671000D01*
X255653000Y-24671000D01*
X255653000Y-25773000D01*
G37*
G36*
X294127000Y-25773000D02*
G01*
X292225000Y-25773000D01*
X292225000Y-24671000D01*
X294127000Y-24671000D01*
X294127000Y-25773000D01*
G37*
G36*
X350903000Y-25773000D02*
G01*
X349001000Y-25773000D01*
X349001000Y-24671000D01*
X350903000Y-24671000D01*
X350903000Y-25773000D01*
G37*
G36*
X356103000Y-25773000D02*
G01*
X354201000Y-25773000D01*
X354201000Y-24671000D01*
X356103000Y-24671000D01*
X356103000Y-25773000D01*
G37*
G36*
X41651000Y-25773000D02*
G01*
X39749000Y-25773000D01*
X39749000Y-24671000D01*
X41651000Y-24671000D01*
X41651000Y-25773000D01*
G37*
G36*
X55501000Y-25773000D02*
G01*
X53599000Y-25773000D01*
X53599000Y-24671000D01*
X55501000Y-24671000D01*
X55501000Y-25773000D01*
G37*
G36*
X307977000Y-25773000D02*
G01*
X306075000Y-25773000D01*
X306075000Y-24671000D01*
X307977000Y-24671000D01*
X307977000Y-25773000D01*
G37*
G36*
X155951000Y-25773000D02*
G01*
X154049000Y-25773000D01*
X154049000Y-24671000D01*
X155951000Y-24671000D01*
X155951000Y-25773000D01*
G37*
G36*
X332227000Y-25773000D02*
G01*
X330325000Y-25773000D01*
X330325000Y-24671000D01*
X332227000Y-24671000D01*
X332227000Y-25773000D01*
G37*
G36*
X369953000Y-25773000D02*
G01*
X368051000Y-25773000D01*
X368051000Y-24671000D01*
X369953000Y-24671000D01*
X369953000Y-25773000D01*
G37*
G36*
X131955000Y-25773000D02*
G01*
X130053000Y-25773000D01*
X130053000Y-24671000D01*
X131955000Y-24671000D01*
X131955000Y-25773000D01*
G37*
G36*
X117851000Y-25773000D02*
G01*
X115949000Y-25773000D01*
X115949000Y-24671000D01*
X117851000Y-24671000D01*
X117851000Y-25773000D01*
G37*
G36*
X112651000Y-25773000D02*
G01*
X110749000Y-25773000D01*
X110749000Y-24671000D01*
X112651000Y-24671000D01*
X112651000Y-25773000D01*
G37*
G36*
X188851000Y-25773000D02*
G01*
X186949000Y-25773000D01*
X186949000Y-24671000D01*
X188851000Y-24671000D01*
X188851000Y-25773000D01*
G37*
G36*
X137155000Y-25773000D02*
G01*
X135253000Y-25773000D01*
X135253000Y-24671000D01*
X137155000Y-24671000D01*
X137155000Y-25773000D01*
G37*
G36*
X194051000Y-25773000D02*
G01*
X192149000Y-25773000D01*
X192149000Y-24671000D01*
X194051000Y-24671000D01*
X194051000Y-25773000D01*
G37*
G36*
X313177000Y-25773000D02*
G01*
X311275000Y-25773000D01*
X311275000Y-24671000D01*
X313177000Y-24671000D01*
X313177000Y-25773000D01*
G37*
G36*
X175001000Y-25773000D02*
G01*
X173099000Y-25773000D01*
X173099000Y-24671000D01*
X175001000Y-24671000D01*
X175001000Y-25773000D01*
G37*
G36*
X169801000Y-25773000D02*
G01*
X167899000Y-25773000D01*
X167899000Y-24671000D01*
X169801000Y-24671000D01*
X169801000Y-25773000D01*
G37*
G36*
X79751000Y-25773000D02*
G01*
X77849000Y-25773000D01*
X77849000Y-24671000D01*
X79751000Y-24671000D01*
X79751000Y-25773000D01*
G37*
G36*
X3551000Y-25773000D02*
G01*
X1649000Y-25773000D01*
X1649000Y-24671000D01*
X3551000Y-24671000D01*
X3551000Y-25773000D01*
G37*
G36*
X17401000Y-25773000D02*
G01*
X15499000Y-25773000D01*
X15499000Y-24671000D01*
X17401000Y-24671000D01*
X17401000Y-25773000D01*
G37*
G36*
X22601000Y-25773000D02*
G01*
X20699000Y-25773000D01*
X20699000Y-24671000D01*
X22601000Y-24671000D01*
X22601000Y-25773000D01*
G37*
G36*
X36451000Y-25773000D02*
G01*
X34549000Y-25773000D01*
X34549000Y-24671000D01*
X36451000Y-24671000D01*
X36451000Y-25773000D01*
G37*
G36*
X327027000Y-25773000D02*
G01*
X325125000Y-25773000D01*
X325125000Y-24671000D01*
X327027000Y-24671000D01*
X327027000Y-25773000D01*
G37*
G36*
X393949000Y-22573000D02*
G01*
X392047000Y-22573000D01*
X392047000Y-21471000D01*
X393949000Y-21471000D01*
X393949000Y-22573000D01*
G37*
G36*
X408053000Y-22573000D02*
G01*
X406151000Y-22573000D01*
X406151000Y-21471000D01*
X408053000Y-21471000D01*
X408053000Y-22573000D01*
G37*
G36*
X413253000Y-22573000D02*
G01*
X411351000Y-22573000D01*
X411351000Y-21471000D01*
X413253000Y-21471000D01*
X413253000Y-22573000D01*
G37*
G36*
X327027000Y-22573000D02*
G01*
X325125000Y-22573000D01*
X325125000Y-21471000D01*
X327027000Y-21471000D01*
X327027000Y-22573000D01*
G37*
G36*
X17401000Y-22573000D02*
G01*
X15499000Y-22573000D01*
X15499000Y-21471000D01*
X17401000Y-21471000D01*
X17401000Y-22573000D01*
G37*
G36*
X22601000Y-22573000D02*
G01*
X20699000Y-22573000D01*
X20699000Y-21471000D01*
X22601000Y-21471000D01*
X22601000Y-22573000D01*
G37*
G36*
X36451000Y-22573000D02*
G01*
X34549000Y-22573000D01*
X34549000Y-21471000D01*
X36451000Y-21471000D01*
X36451000Y-22573000D01*
G37*
G36*
X41651000Y-22573000D02*
G01*
X39749000Y-22573000D01*
X39749000Y-21471000D01*
X41651000Y-21471000D01*
X41651000Y-22573000D01*
G37*
G36*
X55501000Y-22573000D02*
G01*
X53599000Y-22573000D01*
X53599000Y-21471000D01*
X55501000Y-21471000D01*
X55501000Y-22573000D01*
G37*
G36*
X60701000Y-22573000D02*
G01*
X58799000Y-22573000D01*
X58799000Y-21471000D01*
X60701000Y-21471000D01*
X60701000Y-22573000D01*
G37*
G36*
X388749000Y-22573000D02*
G01*
X386847000Y-22573000D01*
X386847000Y-21471000D01*
X388749000Y-21471000D01*
X388749000Y-22573000D01*
G37*
G36*
X375153000Y-22573000D02*
G01*
X373251000Y-22573000D01*
X373251000Y-21471000D01*
X375153000Y-21471000D01*
X375153000Y-22573000D01*
G37*
G36*
X369953000Y-22573000D02*
G01*
X368051000Y-22573000D01*
X368051000Y-21471000D01*
X369953000Y-21471000D01*
X369953000Y-22573000D01*
G37*
G36*
X356103000Y-22573000D02*
G01*
X354201000Y-22573000D01*
X354201000Y-21471000D01*
X356103000Y-21471000D01*
X356103000Y-22573000D01*
G37*
G36*
X350903000Y-22573000D02*
G01*
X349001000Y-22573000D01*
X349001000Y-21471000D01*
X350903000Y-21471000D01*
X350903000Y-22573000D01*
G37*
G36*
X332227000Y-22573000D02*
G01*
X330325000Y-22573000D01*
X330325000Y-21471000D01*
X332227000Y-21471000D01*
X332227000Y-22573000D01*
G37*
G36*
X232151000Y-22573000D02*
G01*
X230249000Y-22573000D01*
X230249000Y-21471000D01*
X232151000Y-21471000D01*
X232151000Y-22573000D01*
G37*
G36*
X3551000Y-22573000D02*
G01*
X1649000Y-22573000D01*
X1649000Y-21471000D01*
X3551000Y-21471000D01*
X3551000Y-22573000D01*
G37*
G36*
X313177000Y-22573000D02*
G01*
X311275000Y-22573000D01*
X311275000Y-21471000D01*
X313177000Y-21471000D01*
X313177000Y-22573000D01*
G37*
G36*
X307977000Y-22573000D02*
G01*
X306075000Y-22573000D01*
X306075000Y-21471000D01*
X307977000Y-21471000D01*
X307977000Y-22573000D01*
G37*
G36*
X-1649000Y-22573000D02*
G01*
X-3551000Y-22573000D01*
X-3551000Y-21471000D01*
X-1649000Y-21471000D01*
X-1649000Y-22573000D01*
G37*
G36*
X98801000Y-22573000D02*
G01*
X96899000Y-22573000D01*
X96899000Y-21471000D01*
X98801000Y-21471000D01*
X98801000Y-22573000D01*
G37*
G36*
X74551000Y-22573000D02*
G01*
X72649000Y-22573000D01*
X72649000Y-21471000D01*
X74551000Y-21471000D01*
X74551000Y-22573000D01*
G37*
G36*
X188851000Y-22573000D02*
G01*
X186949000Y-22573000D01*
X186949000Y-21471000D01*
X188851000Y-21471000D01*
X188851000Y-22573000D01*
G37*
G36*
X213101000Y-22573000D02*
G01*
X211199000Y-22573000D01*
X211199000Y-21471000D01*
X213101000Y-21471000D01*
X213101000Y-22573000D01*
G37*
G36*
X294127000Y-22573000D02*
G01*
X292225000Y-22573000D01*
X292225000Y-21471000D01*
X294127000Y-21471000D01*
X294127000Y-22573000D01*
G37*
G36*
X207901000Y-22573000D02*
G01*
X205999000Y-22573000D01*
X205999000Y-21471000D01*
X207901000Y-21471000D01*
X207901000Y-22573000D01*
G37*
G36*
X226951000Y-22573000D02*
G01*
X225049000Y-22573000D01*
X225049000Y-21471000D01*
X226951000Y-21471000D01*
X226951000Y-22573000D01*
G37*
G36*
X288927000Y-22573000D02*
G01*
X287025000Y-22573000D01*
X287025000Y-21471000D01*
X288927000Y-21471000D01*
X288927000Y-22573000D01*
G37*
G36*
X260853000Y-22573000D02*
G01*
X258951000Y-22573000D01*
X258951000Y-21471000D01*
X260853000Y-21471000D01*
X260853000Y-22573000D01*
G37*
G36*
X255653000Y-22573000D02*
G01*
X253751000Y-22573000D01*
X253751000Y-21471000D01*
X255653000Y-21471000D01*
X255653000Y-22573000D01*
G37*
G36*
X194051000Y-22573000D02*
G01*
X192149000Y-22573000D01*
X192149000Y-21471000D01*
X194051000Y-21471000D01*
X194051000Y-22573000D01*
G37*
G36*
X175001000Y-22573000D02*
G01*
X173099000Y-22573000D01*
X173099000Y-21471000D01*
X175001000Y-21471000D01*
X175001000Y-22573000D01*
G37*
G36*
X169801000Y-22573000D02*
G01*
X167899000Y-22573000D01*
X167899000Y-21471000D01*
X169801000Y-21471000D01*
X169801000Y-22573000D01*
G37*
G36*
X155951000Y-22573000D02*
G01*
X154049000Y-22573000D01*
X154049000Y-21471000D01*
X155951000Y-21471000D01*
X155951000Y-22573000D01*
G37*
G36*
X150751000Y-22573000D02*
G01*
X148849000Y-22573000D01*
X148849000Y-21471000D01*
X150751000Y-21471000D01*
X150751000Y-22573000D01*
G37*
G36*
X137155000Y-22573000D02*
G01*
X135253000Y-22573000D01*
X135253000Y-21471000D01*
X137155000Y-21471000D01*
X137155000Y-22573000D01*
G37*
G36*
X131955000Y-22573000D02*
G01*
X130053000Y-22573000D01*
X130053000Y-21471000D01*
X131955000Y-21471000D01*
X131955000Y-22573000D01*
G37*
G36*
X117851000Y-22573000D02*
G01*
X115949000Y-22573000D01*
X115949000Y-21471000D01*
X117851000Y-21471000D01*
X117851000Y-22573000D01*
G37*
G36*
X112651000Y-22573000D02*
G01*
X110749000Y-22573000D01*
X110749000Y-21471000D01*
X112651000Y-21471000D01*
X112651000Y-22573000D01*
G37*
G36*
X93601000Y-22573000D02*
G01*
X91699000Y-22573000D01*
X91699000Y-21471000D01*
X93601000Y-21471000D01*
X93601000Y-22573000D01*
G37*
G36*
X79751000Y-22573000D02*
G01*
X77849000Y-22573000D01*
X77849000Y-21471000D01*
X79751000Y-21471000D01*
X79751000Y-22573000D01*
G37*
G36*
X343759549Y-11571116D02*
G01*
X343870734Y-11593232D01*
X344080203Y-11679997D01*
X344268720Y-11805960D01*
X344429040Y-11966280D01*
X344555003Y-12154797D01*
X344641768Y-12364266D01*
X344686000Y-12586636D01*
X344686000Y-12813364D01*
X344641768Y-13035734D01*
X344555003Y-13245203D01*
X344429040Y-13433720D01*
X344268720Y-13594040D01*
X344080203Y-13720003D01*
X343870734Y-13806768D01*
X343759549Y-13828884D01*
X343648365Y-13851000D01*
X343421635Y-13851000D01*
X343310451Y-13828884D01*
X343199266Y-13806768D01*
X342989797Y-13720003D01*
X342801280Y-13594040D01*
X342640960Y-13433720D01*
X342514997Y-13245203D01*
X342428232Y-13035734D01*
X342384000Y-12813364D01*
X342384000Y-12586636D01*
X342428232Y-12364266D01*
X342514997Y-12154797D01*
X342640960Y-11966280D01*
X342801280Y-11805960D01*
X342989797Y-11679997D01*
X343199266Y-11593232D01*
X343310451Y-11571116D01*
X343421635Y-11549000D01*
X343648365Y-11549000D01*
X343759549Y-11571116D01*
G37*
G36*
X369937512Y-7358927D02*
G01*
X370086812Y-7388624D01*
X370250784Y-7456544D01*
X370398354Y-7555147D01*
X370523853Y-7680646D01*
X370622456Y-7828216D01*
X370690376Y-7992188D01*
X370725000Y-8166259D01*
X370725000Y-8343741D01*
X370690376Y-8517812D01*
X370622456Y-8681784D01*
X370523853Y-8829354D01*
X370398354Y-8954853D01*
X370250784Y-9053456D01*
X370086812Y-9121376D01*
X369937512Y-9151073D01*
X369912742Y-9156000D01*
X369735258Y-9156000D01*
X369710488Y-9151073D01*
X369561188Y-9121376D01*
X369397216Y-9053456D01*
X369249646Y-8954853D01*
X369124147Y-8829354D01*
X369025544Y-8681784D01*
X368957624Y-8517812D01*
X368923000Y-8343741D01*
X368923000Y-8166259D01*
X368957624Y-7992188D01*
X369025544Y-7828216D01*
X369124147Y-7680646D01*
X369249646Y-7555147D01*
X369397216Y-7456544D01*
X369561188Y-7388624D01*
X369710488Y-7358927D01*
X369735258Y-7354000D01*
X369912742Y-7354000D01*
X369937512Y-7358927D01*
G37*
G36*
X369937512Y-4818927D02*
G01*
X370086812Y-4848624D01*
X370250784Y-4916544D01*
X370398354Y-5015147D01*
X370523853Y-5140646D01*
X370622456Y-5288216D01*
X370690376Y-5452188D01*
X370725000Y-5626259D01*
X370725000Y-5803741D01*
X370690376Y-5977812D01*
X370622456Y-6141784D01*
X370523853Y-6289354D01*
X370398354Y-6414853D01*
X370250784Y-6513456D01*
X370086812Y-6581376D01*
X369937512Y-6611073D01*
X369912742Y-6616000D01*
X369735258Y-6616000D01*
X369710488Y-6611073D01*
X369561188Y-6581376D01*
X369397216Y-6513456D01*
X369249646Y-6414853D01*
X369124147Y-6289354D01*
X369025544Y-6141784D01*
X368957624Y-5977812D01*
X368923000Y-5803741D01*
X368923000Y-5626259D01*
X368957624Y-5452188D01*
X369025544Y-5288216D01*
X369124147Y-5140646D01*
X369249646Y-5015147D01*
X369397216Y-4916544D01*
X369561188Y-4848624D01*
X369710488Y-4818927D01*
X369735258Y-4814000D01*
X369912742Y-4814000D01*
X369937512Y-4818927D01*
G37*
G36*
X370725000Y-4076000D02*
G01*
X368923000Y-4076000D01*
X368923000Y-2274000D01*
X370725000Y-2274000D01*
X370725000Y-4076000D01*
G37*
G36*
X146553000Y2751000D02*
G01*
X144651000Y2751000D01*
X144651000Y3853000D01*
X146553000Y3853000D01*
X146553000Y2751000D01*
G37*
G36*
X141353000Y2751000D02*
G01*
X139451000Y2751000D01*
X139451000Y3853000D01*
X141353000Y3853000D01*
X141353000Y2751000D01*
G37*
G36*
X251201000Y2929000D02*
G01*
X249299000Y2929000D01*
X249299000Y4031000D01*
X251201000Y4031000D01*
X251201000Y2929000D01*
G37*
G36*
X-1649000Y2929000D02*
G01*
X-3551000Y2929000D01*
X-3551000Y4031000D01*
X-1649000Y4031000D01*
X-1649000Y2929000D01*
G37*
G36*
X3551000Y2929000D02*
G01*
X1649000Y2929000D01*
X1649000Y4031000D01*
X3551000Y4031000D01*
X3551000Y2929000D01*
G37*
G36*
X307977000Y2929000D02*
G01*
X306075000Y2929000D01*
X306075000Y4031000D01*
X307977000Y4031000D01*
X307977000Y2929000D01*
G37*
G36*
X207901000Y2929000D02*
G01*
X205999000Y2929000D01*
X205999000Y4031000D01*
X207901000Y4031000D01*
X207901000Y2929000D01*
G37*
G36*
X313177000Y2929000D02*
G01*
X311275000Y2929000D01*
X311275000Y4031000D01*
X313177000Y4031000D01*
X313177000Y2929000D01*
G37*
G36*
X288927000Y2929000D02*
G01*
X287025000Y2929000D01*
X287025000Y4031000D01*
X288927000Y4031000D01*
X288927000Y2929000D01*
G37*
G36*
X294127000Y2929000D02*
G01*
X292225000Y2929000D01*
X292225000Y4031000D01*
X294127000Y4031000D01*
X294127000Y2929000D01*
G37*
G36*
X332227000Y2929000D02*
G01*
X330325000Y2929000D01*
X330325000Y4031000D01*
X332227000Y4031000D01*
X332227000Y2929000D01*
G37*
G36*
X327027000Y2929000D02*
G01*
X325125000Y2929000D01*
X325125000Y4031000D01*
X327027000Y4031000D01*
X327027000Y2929000D01*
G37*
G36*
X265051000Y2929000D02*
G01*
X263149000Y2929000D01*
X263149000Y4031000D01*
X265051000Y4031000D01*
X265051000Y2929000D01*
G37*
G36*
X270251000Y2929000D02*
G01*
X268349000Y2929000D01*
X268349000Y4031000D01*
X270251000Y4031000D01*
X270251000Y2929000D01*
G37*
G36*
X226951000Y2929000D02*
G01*
X225049000Y2929000D01*
X225049000Y4031000D01*
X226951000Y4031000D01*
X226951000Y2929000D01*
G37*
G36*
X232151000Y2929000D02*
G01*
X230249000Y2929000D01*
X230249000Y4031000D01*
X232151000Y4031000D01*
X232151000Y2929000D01*
G37*
G36*
X213101000Y2929000D02*
G01*
X211199000Y2929000D01*
X211199000Y4031000D01*
X213101000Y4031000D01*
X213101000Y2929000D01*
G37*
G36*
X41651000Y2929000D02*
G01*
X39749000Y2929000D01*
X39749000Y4031000D01*
X41651000Y4031000D01*
X41651000Y2929000D01*
G37*
G36*
X246001000Y2929000D02*
G01*
X244099000Y2929000D01*
X244099000Y4031000D01*
X246001000Y4031000D01*
X246001000Y2929000D01*
G37*
G36*
X98801000Y2929000D02*
G01*
X96899000Y2929000D01*
X96899000Y4031000D01*
X98801000Y4031000D01*
X98801000Y2929000D01*
G37*
G36*
X122303000Y2929000D02*
G01*
X120401000Y2929000D01*
X120401000Y4031000D01*
X122303000Y4031000D01*
X122303000Y2929000D01*
G37*
G36*
X60701000Y2929000D02*
G01*
X58799000Y2929000D01*
X58799000Y4031000D01*
X60701000Y4031000D01*
X60701000Y2929000D01*
G37*
G36*
X55501000Y2929000D02*
G01*
X53599000Y2929000D01*
X53599000Y4031000D01*
X55501000Y4031000D01*
X55501000Y2929000D01*
G37*
G36*
X127503000Y2929000D02*
G01*
X125601000Y2929000D01*
X125601000Y4031000D01*
X127503000Y4031000D01*
X127503000Y2929000D01*
G37*
G36*
X79751000Y2929000D02*
G01*
X77849000Y2929000D01*
X77849000Y4031000D01*
X79751000Y4031000D01*
X79751000Y2929000D01*
G37*
G36*
X160403000Y2929000D02*
G01*
X158501000Y2929000D01*
X158501000Y4031000D01*
X160403000Y4031000D01*
X160403000Y2929000D01*
G37*
G36*
X165603000Y2929000D02*
G01*
X163701000Y2929000D01*
X163701000Y4031000D01*
X165603000Y4031000D01*
X165603000Y2929000D01*
G37*
G36*
X93601000Y2929000D02*
G01*
X91699000Y2929000D01*
X91699000Y4031000D01*
X93601000Y4031000D01*
X93601000Y2929000D01*
G37*
G36*
X179453000Y2929000D02*
G01*
X177551000Y2929000D01*
X177551000Y4031000D01*
X179453000Y4031000D01*
X179453000Y2929000D01*
G37*
G36*
X184653000Y2929000D02*
G01*
X182751000Y2929000D01*
X182751000Y4031000D01*
X184653000Y4031000D01*
X184653000Y2929000D01*
G37*
G36*
X74551000Y2929000D02*
G01*
X72649000Y2929000D01*
X72649000Y4031000D01*
X74551000Y4031000D01*
X74551000Y2929000D01*
G37*
G36*
X36451000Y2929000D02*
G01*
X34549000Y2929000D01*
X34549000Y4031000D01*
X36451000Y4031000D01*
X36451000Y2929000D01*
G37*
G36*
X279624549Y7034384D02*
G01*
X279735734Y7012268D01*
X279945203Y6925503D01*
X280133720Y6799540D01*
X280294040Y6639220D01*
X280420003Y6450703D01*
X280506768Y6241234D01*
X280551000Y6018864D01*
X280551000Y5792136D01*
X280506768Y5569766D01*
X280420003Y5360297D01*
X280294040Y5171780D01*
X280133720Y5011460D01*
X279945203Y4885497D01*
X279735734Y4798732D01*
X279624549Y4776616D01*
X279513365Y4754500D01*
X279286635Y4754500D01*
X279175451Y4776616D01*
X279064266Y4798732D01*
X278854797Y4885497D01*
X278666280Y5011460D01*
X278505960Y5171780D01*
X278379997Y5360297D01*
X278293232Y5569766D01*
X278249000Y5792136D01*
X278249000Y6018864D01*
X278293232Y6241234D01*
X278379997Y6450703D01*
X278505960Y6639220D01*
X278666280Y6799540D01*
X278854797Y6925503D01*
X279064266Y7012268D01*
X279175451Y7034384D01*
X279286635Y7056500D01*
X279513365Y7056500D01*
X279624549Y7034384D01*
G37*
G36*
X195804549Y7034384D02*
G01*
X195915734Y7012268D01*
X196125203Y6925503D01*
X196313720Y6799540D01*
X196474040Y6639220D01*
X196600003Y6450703D01*
X196686768Y6241234D01*
X196731000Y6018864D01*
X196731000Y5792136D01*
X196686768Y5569766D01*
X196600003Y5360297D01*
X196474040Y5171780D01*
X196313720Y5011460D01*
X196125203Y4885497D01*
X195915734Y4798732D01*
X195804549Y4776616D01*
X195693365Y4754500D01*
X195466635Y4754500D01*
X195355451Y4776616D01*
X195244266Y4798732D01*
X195034797Y4885497D01*
X194846280Y5011460D01*
X194685960Y5171780D01*
X194559997Y5360297D01*
X194473232Y5569766D01*
X194429000Y5792136D01*
X194429000Y6018864D01*
X194473232Y6241234D01*
X194559997Y6450703D01*
X194685960Y6639220D01*
X194846280Y6799540D01*
X195034797Y6925503D01*
X195244266Y7012268D01*
X195355451Y7034384D01*
X195466635Y7056500D01*
X195693365Y7056500D01*
X195804549Y7034384D01*
G37*
G36*
X343759549Y7034384D02*
G01*
X343870734Y7012268D01*
X344080203Y6925503D01*
X344268720Y6799540D01*
X344429040Y6639220D01*
X344555003Y6450703D01*
X344641768Y6241234D01*
X344686000Y6018864D01*
X344686000Y5792136D01*
X344641768Y5569766D01*
X344555003Y5360297D01*
X344429040Y5171780D01*
X344268720Y5011460D01*
X344080203Y4885497D01*
X343870734Y4798732D01*
X343759549Y4776616D01*
X343648365Y4754500D01*
X343421635Y4754500D01*
X343310451Y4776616D01*
X343199266Y4798732D01*
X342989797Y4885497D01*
X342801280Y5011460D01*
X342640960Y5171780D01*
X342514997Y5360297D01*
X342428232Y5569766D01*
X342384000Y5792136D01*
X342384000Y6018864D01*
X342428232Y6241234D01*
X342514997Y6450703D01*
X342640960Y6639220D01*
X342801280Y6799540D01*
X342989797Y6925503D01*
X343199266Y7012268D01*
X343310451Y7034384D01*
X343421635Y7056500D01*
X343648365Y7056500D01*
X343759549Y7034384D01*
G37*
G36*
X109698549Y7034384D02*
G01*
X109809734Y7012268D01*
X110019203Y6925503D01*
X110207720Y6799540D01*
X110368040Y6639220D01*
X110494003Y6450703D01*
X110580768Y6241234D01*
X110625000Y6018864D01*
X110625000Y5792136D01*
X110580768Y5569766D01*
X110494003Y5360297D01*
X110368040Y5171780D01*
X110207720Y5011460D01*
X110019203Y4885497D01*
X109809734Y4798732D01*
X109698549Y4776616D01*
X109587365Y4754500D01*
X109360635Y4754500D01*
X109249451Y4776616D01*
X109138266Y4798732D01*
X108928797Y4885497D01*
X108740280Y5011460D01*
X108579960Y5171780D01*
X108453997Y5360297D01*
X108367232Y5569766D01*
X108323000Y5792136D01*
X108323000Y6018864D01*
X108367232Y6241234D01*
X108453997Y6450703D01*
X108579960Y6639220D01*
X108740280Y6799540D01*
X108928797Y6925503D01*
X109138266Y7012268D01*
X109249451Y7034384D01*
X109360635Y7056500D01*
X109587365Y7056500D01*
X109698549Y7034384D01*
G37*
G36*
X17369549Y7034384D02*
G01*
X17480734Y7012268D01*
X17690203Y6925503D01*
X17878720Y6799540D01*
X18039040Y6639220D01*
X18165003Y6450703D01*
X18251768Y6241234D01*
X18296000Y6018864D01*
X18296000Y5792136D01*
X18251768Y5569766D01*
X18165003Y5360297D01*
X18039040Y5171780D01*
X17878720Y5011460D01*
X17690203Y4885497D01*
X17480734Y4798732D01*
X17369549Y4776616D01*
X17258365Y4754500D01*
X17031635Y4754500D01*
X16920451Y4776616D01*
X16809266Y4798732D01*
X16599797Y4885497D01*
X16411280Y5011460D01*
X16250960Y5171780D01*
X16124997Y5360297D01*
X16038232Y5569766D01*
X15994000Y5792136D01*
X15994000Y6018864D01*
X16038232Y6241234D01*
X16124997Y6450703D01*
X16250960Y6639220D01*
X16411280Y6799540D01*
X16599797Y6925503D01*
X16809266Y7012268D01*
X16920451Y7034384D01*
X17031635Y7056500D01*
X17258365Y7056500D01*
X17369549Y7034384D01*
G37*
G36*
X417038549Y7097884D02*
G01*
X417149734Y7075768D01*
X417359203Y6989003D01*
X417547720Y6863040D01*
X417708040Y6702720D01*
X417834003Y6514203D01*
X417920768Y6304734D01*
X417965000Y6082364D01*
X417965000Y5855636D01*
X417920768Y5633266D01*
X417834003Y5423797D01*
X417708040Y5235280D01*
X417547720Y5074960D01*
X417359203Y4948997D01*
X417149734Y4862232D01*
X417038549Y4840116D01*
X416927365Y4818000D01*
X416700635Y4818000D01*
X416589451Y4840116D01*
X416478266Y4862232D01*
X416268797Y4948997D01*
X416080280Y5074960D01*
X415919960Y5235280D01*
X415793997Y5423797D01*
X415707232Y5633266D01*
X415663000Y5855636D01*
X415663000Y6082364D01*
X415707232Y6304734D01*
X415793997Y6514203D01*
X415919960Y6702720D01*
X416080280Y6863040D01*
X416268797Y6989003D01*
X416478266Y7075768D01*
X416589451Y7097884D01*
X416700635Y7120000D01*
X416927365Y7120000D01*
X417038549Y7097884D01*
G37*
G36*
X141353000Y5951000D02*
G01*
X139451000Y5951000D01*
X139451000Y7053000D01*
X141353000Y7053000D01*
X141353000Y5951000D01*
G37*
G36*
X146553000Y5951000D02*
G01*
X144651000Y5951000D01*
X144651000Y7053000D01*
X146553000Y7053000D01*
X146553000Y5951000D01*
G37*
G36*
X93601000Y6129000D02*
G01*
X91699000Y6129000D01*
X91699000Y7231000D01*
X93601000Y7231000D01*
X93601000Y6129000D01*
G37*
G36*
X127503000Y6129000D02*
G01*
X125601000Y6129000D01*
X125601000Y7231000D01*
X127503000Y7231000D01*
X127503000Y6129000D01*
G37*
G36*
X122303000Y6129000D02*
G01*
X120401000Y6129000D01*
X120401000Y7231000D01*
X122303000Y7231000D01*
X122303000Y6129000D01*
G37*
G36*
X165603000Y6129000D02*
G01*
X163701000Y6129000D01*
X163701000Y7231000D01*
X165603000Y7231000D01*
X165603000Y6129000D01*
G37*
G36*
X160403000Y6129000D02*
G01*
X158501000Y6129000D01*
X158501000Y7231000D01*
X160403000Y7231000D01*
X160403000Y6129000D01*
G37*
G36*
X184653000Y6129000D02*
G01*
X182751000Y6129000D01*
X182751000Y7231000D01*
X184653000Y7231000D01*
X184653000Y6129000D01*
G37*
G36*
X36451000Y6129000D02*
G01*
X34549000Y6129000D01*
X34549000Y7231000D01*
X36451000Y7231000D01*
X36451000Y6129000D01*
G37*
G36*
X179453000Y6129000D02*
G01*
X177551000Y6129000D01*
X177551000Y7231000D01*
X179453000Y7231000D01*
X179453000Y6129000D01*
G37*
G36*
X213101000Y6129000D02*
G01*
X211199000Y6129000D01*
X211199000Y7231000D01*
X213101000Y7231000D01*
X213101000Y6129000D01*
G37*
G36*
X207901000Y6129000D02*
G01*
X205999000Y6129000D01*
X205999000Y7231000D01*
X207901000Y7231000D01*
X207901000Y6129000D01*
G37*
G36*
X232151000Y6129000D02*
G01*
X230249000Y6129000D01*
X230249000Y7231000D01*
X232151000Y7231000D01*
X232151000Y6129000D01*
G37*
G36*
X226951000Y6129000D02*
G01*
X225049000Y6129000D01*
X225049000Y7231000D01*
X226951000Y7231000D01*
X226951000Y6129000D01*
G37*
G36*
X246001000Y6129000D02*
G01*
X244099000Y6129000D01*
X244099000Y7231000D01*
X246001000Y7231000D01*
X246001000Y6129000D01*
G37*
G36*
X41651000Y6129000D02*
G01*
X39749000Y6129000D01*
X39749000Y7231000D01*
X41651000Y7231000D01*
X41651000Y6129000D01*
G37*
G36*
X3551000Y6129000D02*
G01*
X1649000Y6129000D01*
X1649000Y7231000D01*
X3551000Y7231000D01*
X3551000Y6129000D01*
G37*
G36*
X98801000Y6129000D02*
G01*
X96899000Y6129000D01*
X96899000Y7231000D01*
X98801000Y7231000D01*
X98801000Y6129000D01*
G37*
G36*
X74551000Y6129000D02*
G01*
X72649000Y6129000D01*
X72649000Y7231000D01*
X74551000Y7231000D01*
X74551000Y6129000D01*
G37*
G36*
X79751000Y6129000D02*
G01*
X77849000Y6129000D01*
X77849000Y7231000D01*
X79751000Y7231000D01*
X79751000Y6129000D01*
G37*
G36*
X55501000Y6129000D02*
G01*
X53599000Y6129000D01*
X53599000Y7231000D01*
X55501000Y7231000D01*
X55501000Y6129000D01*
G37*
G36*
X60701000Y6129000D02*
G01*
X58799000Y6129000D01*
X58799000Y7231000D01*
X60701000Y7231000D01*
X60701000Y6129000D01*
G37*
G36*
X251201000Y6129000D02*
G01*
X249299000Y6129000D01*
X249299000Y7231000D01*
X251201000Y7231000D01*
X251201000Y6129000D01*
G37*
G36*
X265051000Y6129000D02*
G01*
X263149000Y6129000D01*
X263149000Y7231000D01*
X265051000Y7231000D01*
X265051000Y6129000D01*
G37*
G36*
X270251000Y6129000D02*
G01*
X268349000Y6129000D01*
X268349000Y7231000D01*
X270251000Y7231000D01*
X270251000Y6129000D01*
G37*
G36*
X288927000Y6129000D02*
G01*
X287025000Y6129000D01*
X287025000Y7231000D01*
X288927000Y7231000D01*
X288927000Y6129000D01*
G37*
G36*
X294127000Y6129000D02*
G01*
X292225000Y6129000D01*
X292225000Y7231000D01*
X294127000Y7231000D01*
X294127000Y6129000D01*
G37*
G36*
X307977000Y6129000D02*
G01*
X306075000Y6129000D01*
X306075000Y7231000D01*
X307977000Y7231000D01*
X307977000Y6129000D01*
G37*
G36*
X313177000Y6129000D02*
G01*
X311275000Y6129000D01*
X311275000Y7231000D01*
X313177000Y7231000D01*
X313177000Y6129000D01*
G37*
G36*
X327027000Y6129000D02*
G01*
X325125000Y6129000D01*
X325125000Y7231000D01*
X327027000Y7231000D01*
X327027000Y6129000D01*
G37*
G36*
X332227000Y6129000D02*
G01*
X330325000Y6129000D01*
X330325000Y7231000D01*
X332227000Y7231000D01*
X332227000Y6129000D01*
G37*
G36*
X-1649000Y6129000D02*
G01*
X-3551000Y6129000D01*
X-3551000Y7231000D01*
X-1649000Y7231000D01*
X-1649000Y6129000D01*
G37*
M02*
